<svg viewBox="0 0 80 80" fill="none" xmlns="http://www.w3.org/2000/svg">
<path d="M0 40C0 17.9086 17.9086 0 40 0C62.0914 0 80 17.9086 80 40C80 62.0914 62.0914 80 40 80C17.9086 80 0 62.0914 0 40Z" fill="#E4DCDC"/>
<path d="M50.9572 32.3386C52.3771 33.0569 54.6154 33.6916 56.1521 33.0235C56.2189 32.9901 56.2523 32.9567 56.269 32.9066C57.0541 32.1549 57.5218 30.9689 57.9561 29.9834C58.357 29.0647 58.7078 28.1126 58.8915 27.127C59.2423 25.1226 59.0419 23.068 58.2568 21.1805C57.5552 19.5101 56.5029 18.0235 55.0664 16.9043C53.8804 15.9856 52.0096 15.1003 50.5062 15.6348C50.5062 15.6348 50.4895 15.6348 50.4895 15.6515C50.4561 15.6515 50.4227 15.6348 50.3893 15.6348C50.1889 15.6014 50.1053 15.9355 50.2891 16.019C52.7445 17.205 53.7802 19.6103 53.6465 22.2662C53.5129 24.9388 52.3771 27.1771 50.2223 28.7139C50.1721 28.7139 50.1387 28.7139 50.0886 28.7473C48.5686 29.8331 49.7211 31.7206 50.9572 32.3386Z" fill="#8E623C"/>
<path d="M56.1025 29.9332C54.2483 31.6871 55.5679 30.9187 57.2717 32.4221C61.1971 35.8296 64.9054 35.4621 70 29.549C63.8363 24.3207 59.4599 25.9911 56.1025 29.9332Z" fill="white"/>
<path d="M56.4205 30.3341C55.2178 31.4699 56.0697 30.9855 57.1888 31.9543C59.7445 34.176 61.7323 33.1403 64.9561 30.2506C60.9806 27.3441 58.592 27.7784 56.4205 30.3341Z" fill="#FFBDBD"/>
<path d="M29.928 28.4466C29.8945 28.4132 29.8444 28.4132 29.7943 28.4132C27.6395 26.8598 26.5037 24.6381 26.37 21.9655C26.2364 19.3096 27.272 16.9043 29.7275 15.7183C29.9112 15.6348 29.8277 15.3007 29.6273 15.3341C29.5939 15.3341 29.5605 15.3508 29.5104 15.3508C29.5104 15.3508 29.4937 15.3508 29.4937 15.3341C27.9903 14.7996 26.1028 15.6849 24.9335 16.6036C23.497 17.7228 22.4446 19.1927 21.7431 20.8798C20.958 22.7673 20.7409 24.8219 21.1083 26.8264C21.2921 27.8119 21.6429 28.764 22.0437 29.6827C22.4613 30.6682 22.9458 31.8542 23.7308 32.6059C23.7475 32.656 23.781 32.7061 23.8478 32.7228C25.3845 33.3909 27.6228 32.7562 29.0427 32.0379C30.2787 31.4199 31.4313 29.5324 29.928 28.4466Z" fill="#8E623C"/>
<path d="M23.8976 29.6327C25.7517 31.3866 24.4321 30.6182 22.7283 32.1215C18.8029 35.5291 15.0947 35.1617 10 29.2485C16.1637 24.0202 20.5401 25.6906 23.8976 29.6327Z" fill="white"/>
<path d="M23.5796 30.0336C24.7823 31.1695 23.9304 30.685 22.8112 31.6539C20.2555 33.8755 18.2678 32.8398 15.0439 29.9501C19.0195 27.0603 21.3914 27.4779 23.5796 30.0336Z" fill="#FFBDBD"/>
<path d="M63.8029 47.1884C63.8029 58.5637 53.1459 64.8109 40.0167 64.8109C26.8708 64.8109 16.2305 58.5637 16.2305 47.1884C16.2305 35.813 26.8875 23.5859 40.0167 23.5859C53.1626 23.6026 63.8029 35.813 63.8029 47.1884Z" fill="white"/>
<path d="M63.8029 47.1884C63.8029 58.5637 53.1459 64.8109 40.0167 64.8109C26.8708 64.8109 16.2305 58.5637 16.2305 47.1884C16.2305 35.813 26.8875 23.5859 40.0167 23.5859C53.1626 23.6026 63.8029 35.813 63.8029 47.1884Z" fill="white"/>
<path d="M44.9954 24.1871C42.5901 27.1102 42.0556 31.186 42.3562 34.8608C42.6402 38.3352 43.7928 42.2606 46.2816 44.8163C48.1358 46.7205 50.9587 47.7227 53.4977 48.274C56.3373 48.892 59.461 49.0089 62.2505 48.0735C62.8017 47.8898 63.3195 47.6392 63.8039 47.3553C63.8039 47.3051 63.8039 47.2383 63.8039 47.1882C63.8039 37.2996 55.736 26.7594 44.9954 24.1871Z" fill="#A87540"/>
<path d="M26.9213 43.5969C26.9213 44.9666 26.1195 46.0858 25.134 46.0858C24.1485 46.0858 23.3467 44.9666 23.3467 43.5969C23.3467 42.2272 24.1485 41.108 25.134 41.108C26.1195 41.108 26.9213 42.2105 26.9213 43.5969Z" fill="#441F04"/>
<path d="M25.2347 42.4443C25.2347 43.0122 24.9006 43.4799 24.4997 43.4799C24.0821 43.4799 23.748 43.0122 23.748 42.4443C23.748 41.8763 24.0821 41.4086 24.4997 41.4086C24.9006 41.4086 25.2347 41.8763 25.2347 42.4443Z" fill="white"/>
<path d="M55.7016 43.5969C55.7016 44.9666 54.8998 46.0858 53.9143 46.0858C52.9287 46.0858 52.127 44.9666 52.127 43.5969C52.127 42.2272 52.9287 41.108 53.9143 41.108C54.8998 41.108 55.7016 42.2105 55.7016 43.5969Z" fill="#441F04"/>
<path d="M54.014 42.4443C54.014 43.0122 53.6799 43.4799 53.279 43.4799C52.8614 43.4799 52.5273 43.0122 52.5273 42.4443C52.5273 41.8763 52.8614 41.4086 53.279 41.4086C53.6799 41.4086 54.014 41.8763 54.014 42.4443Z" fill="white"/>
<path d="M59.5097 54.371C59.5097 60.1505 50.8404 64.8276 40.1333 64.8276C29.4428 64.8276 20.7568 60.1505 20.7568 54.371C20.7568 48.5915 29.4261 43.9144 40.1333 43.9144C50.8237 43.9144 59.5097 48.5915 59.5097 54.371Z" fill="#FFBDBD"/>
<path d="M42.1542 57.2606C42.1542 57.2606 41.6865 59.0813 39.6486 59.0813C38.5462 59.0813 36.9092 58.4633 36.9092 57.0602C36.9092 57.0602 37.7778 58.3631 39.6486 58.3631C41.1018 58.3464 42.1542 57.2606 42.1542 57.2606Z" fill="#441F04"/>
<path d="M31.8327 49.4934C31.482 50.1615 30.1624 50.9967 29.5276 50.6626C28.8929 50.3285 29.1935 48.9588 29.5443 48.2907C29.8951 47.6225 30.6969 47.3386 31.3316 47.6726C31.9664 48.0067 32.2002 48.8252 31.8327 49.4934Z" fill="#441F04"/>
<path d="M47.8854 49.1926C48.2362 49.8608 49.5558 50.696 50.1905 50.3619C50.8253 50.0278 50.5246 48.6581 50.1738 47.99C49.8231 47.3218 49.0213 47.0379 48.3865 47.3719C47.7685 47.706 47.5346 48.5078 47.8854 49.1926Z" fill="#441F04"/>
</svg>
