<svg viewBox="0 0 80 80" fill="none" xmlns="http://www.w3.org/2000/svg">
<path d="M0 40C0 17.9086 17.9086 0 40 0V0C62.0914 0 80 17.9086 80 40V40C80 62.0914 62.0914 80 40 80V80C17.9086 80 0 62.0914 0 40V40Z" fill="#E4DCDC"/>
<path d="M24.8193 22.6305C24.8193 26.7269 21.506 30.0402 17.4096 30.0402C13.3133 30.0402 10 26.7269 10 22.6305C10 18.5341 13.3133 15.2209 17.4096 15.2209C21.506 15.2209 24.8193 18.5341 24.8193 22.6305Z" fill="black"/>
<path d="M22.1482 23.4939C22.1482 25.6023 20.4213 27.3292 18.3129 27.3292C16.1844 27.3292 14.4775 25.6023 14.4775 23.4939C14.4775 21.3654 16.2045 19.6586 18.3129 19.6586C20.4213 19.6586 22.1482 21.3654 22.1482 23.4939Z" fill="#FFBDBD"/>
<path d="M55.1807 22.6305C55.1807 26.7269 58.4939 30.0402 62.5903 30.0402C66.6867 30.0402 69.9999 26.7269 69.9999 22.6305C69.9999 18.5341 66.6867 15.2209 62.5903 15.2209C58.4939 15.2209 55.1807 18.5341 55.1807 22.6305Z" fill="black"/>
<path d="M57.8525 23.4939C57.8525 25.6023 59.5794 27.3292 61.6879 27.3292C63.7963 27.3292 65.5232 25.6023 65.5232 23.4939C65.5232 21.3654 63.7963 19.6586 61.6879 19.6586C59.5794 19.6586 57.8525 21.3654 57.8525 23.4939Z" fill="#FFBDBD"/>
<path d="M68.9954 43.5944C68.9954 57.2691 56.1841 64.7791 40.401 64.7791C24.5978 64.7791 11.8066 57.2691 11.8066 43.5944C11.8066 29.9197 24.6179 15.2209 40.401 15.2209C56.1841 15.2209 68.9954 29.8996 68.9954 43.5944Z" fill="white"/>
<path d="M30.4813 39.5984C28.674 37.5703 25.8025 37.7912 23.4933 38.6546C20.0596 39.3173 17.4893 42.4498 16.666 45.8434C16.164 47.9518 16.5857 50.2008 18.2724 51.6466C20.0998 53.2129 22.911 53.1125 25.1198 52.7109C28.3528 52.1085 30.8427 49.4177 31.3447 46.4257C32.168 44.0763 32.2283 41.5462 30.4813 39.5984Z" fill="black"/>
<path d="M27.269 46.8875C27.269 48.6948 25.7228 50.1606 23.8152 50.1606C21.9075 50.1606 20.3613 48.6948 20.3613 46.8875C20.3613 45.0803 21.9075 43.6144 23.8152 43.6144C25.7228 43.6144 27.269 45.0803 27.269 46.8875Z" fill="white"/>
<path d="M57.9911 39.7189C56.947 39.0562 55.5815 38.6948 54.2964 38.7149C51.4249 38.2731 48.3927 39.5582 48.0915 42.9719C47.6899 47.4297 50.2201 50.6426 54.2361 52.1687C57.5092 53.4136 61.6458 52.7912 62.9711 49.2169C64.2562 45.8434 61.5052 40.9036 57.9911 39.7189Z" fill="black"/>
<path d="M24.6585 46.8876C24.6585 48.5342 23.6947 49.8795 22.5099 49.8795C21.3252 49.8795 20.3613 48.5342 20.3613 46.8876C20.3613 45.241 21.3252 43.8956 22.5099 43.8956C23.6947 43.8956 24.6585 45.241 24.6585 46.8876Z" fill="#441F04"/>
<path d="M22.6299 45.522C22.6299 46.2047 22.2283 46.767 21.7464 46.767C21.2444 46.767 20.8428 46.2047 20.8428 45.522C20.8428 44.8393 21.2444 44.277 21.7464 44.277C22.2283 44.277 22.6299 44.8192 22.6299 45.522Z" fill="white"/>
<path d="M61.2651 46.747C61.2651 48.5542 59.7189 50.02 57.8112 50.02C55.9036 50.02 54.3574 48.5542 54.3574 46.747C54.3574 44.9397 55.9036 43.4739 57.8112 43.4739C59.7189 43.4939 61.2651 44.9598 61.2651 46.747Z" fill="white"/>
<path d="M58.5745 46.8876C58.5745 48.5342 57.6107 49.8795 56.4259 49.8795C55.2412 49.8795 54.2773 48.5342 54.2773 46.8876C54.2773 45.241 55.2412 43.8956 56.4259 43.8956C57.6107 43.8956 58.5745 45.241 58.5745 46.8876Z" fill="#441F04"/>
<path d="M57.812 45.522C57.812 46.2047 57.4104 46.767 56.9284 46.767C56.4264 46.767 56.0449 46.2047 56.0449 45.522C56.0449 44.8393 56.4465 44.277 56.9284 44.277C57.4104 44.277 57.812 44.8192 57.812 45.522Z" fill="white"/>
<path d="M43.9162 50.0803C43.9162 51.2249 42.3097 52.1486 40.3419 52.1486C38.374 52.1486 36.7676 51.2249 36.7676 50.0803C36.7676 48.9357 38.374 48.012 40.3419 48.012C42.3298 48.012 43.9162 48.9357 43.9162 50.0803Z" fill="#441F04"/>
<path d="M26.6475 56.1647C26.6475 58.0322 25.1214 59.5583 23.2539 59.5583C21.3865 59.5583 19.8604 58.0322 19.8604 56.1647C19.8604 54.2972 21.3865 52.7711 23.2539 52.7711C25.1214 52.7711 26.6475 54.2972 26.6475 56.1647Z" fill="#FFBDBD"/>
<path d="M61.0645 56.0241C61.0645 57.8916 59.5384 59.4177 57.6709 59.4177C55.8035 59.4177 54.2773 57.8916 54.2773 56.0241C54.2773 54.1567 55.8035 52.6306 57.6709 52.6306C59.5384 52.6306 61.0645 54.1366 61.0645 56.0241Z" fill="#FFBDBD"/>
<path d="M40.6228 51.8876H40.0605V57.1084H40.6228V51.8876Z" fill="#441F04"/>
<path d="M43.3931 55.0804C43.3931 55.0804 42.8309 57.2691 40.3811 57.2691C39.0558 57.2691 37.0879 56.5262 37.0879 54.8394C37.0879 54.8394 38.1321 56.4057 40.3811 56.4057C42.1481 56.4057 43.3931 55.0804 43.3931 55.0804Z" fill="#441F04"/>
</svg>
