<svg viewBox="0 0 80 80" fill="none" xmlns="http://www.w3.org/2000/svg">
<path d="M0 40C0 17.9086 17.9086 0 40 0C62.0914 0 80 17.9086 80 40C80 62.0914 62.0914 80 40 80C17.9086 80 0 62.0914 0 40Z" fill="#FFEED0"/>
<path d="M20.9914 22.9058C20.9914 25.9521 18.5214 28.4015 15.4957 28.4015C12.4494 28.4015 10 25.9315 10 22.9058C10 19.8595 12.47 17.4102 15.4957 17.4102C18.542 17.4102 20.9914 19.8595 20.9914 22.9058Z" fill="#FFA300"/>
<path d="M18.9336 23.3793C18.9336 25.0053 17.6163 26.3226 15.9903 26.3226C14.3642 26.3226 13.0469 25.0053 13.0469 23.3793C13.0469 21.7532 14.3642 20.4359 15.9903 20.4359C17.6163 20.4565 18.9336 21.7738 18.9336 23.3793Z" fill="#FF6161"/>
<path d="M58.1445 22.597C58.1445 25.6433 60.6145 28.0927 63.6402 28.0927C66.6865 28.0927 69.1359 25.6227 69.1359 22.597C69.1359 19.5507 66.6659 17.1013 63.6402 17.1013C60.6145 17.1013 58.1445 19.5507 58.1445 22.597Z" fill="#FFA300"/>
<path d="M60.2012 23.091C60.2012 24.7171 61.5185 26.0344 63.1445 26.0344C64.7706 26.0344 66.0879 24.7171 66.0879 23.091C66.0879 21.4649 64.7706 20.1476 63.1445 20.1476C61.5185 20.1476 60.2012 21.4649 60.2012 23.091Z" fill="#FF6161"/>
<path d="M69.9796 43.7564C69.9796 58.0616 56.58 65.9244 40.0518 65.9244C23.5236 65.9244 10.124 58.0822 10.124 43.7564C10.124 29.4512 23.5236 14.0756 40.0518 14.0756C56.58 14.0962 69.9796 29.4512 69.9796 43.7564Z" fill="#FFA300"/>
<path d="M50.1785 56.2298C50.1785 60.0788 45.7119 63.1868 40.1957 63.1868C34.6794 63.1868 30.2129 60.0788 30.2129 56.2298C30.2129 52.3807 34.6794 49.2727 40.1957 49.2727C45.7119 49.2727 50.1785 52.3807 50.1785 56.2298Z" fill="white"/>
<path d="M23.4617 47.2144C23.4617 48.9433 22.4531 50.343 21.2182 50.343C19.9832 50.343 18.9746 48.9433 18.9746 47.2144C18.9746 45.4854 19.9832 44.0857 21.2182 44.0857C22.4531 44.0857 23.4617 45.4854 23.4617 47.2144Z" fill="#441F04"/>
<path d="M21.3202 45.7736C21.3202 46.494 20.9086 47.0703 20.394 47.0703C19.8794 47.0703 19.4678 46.494 19.4678 45.7736C19.4678 45.0532 19.8794 44.4769 20.394 44.4769C20.9086 44.4769 21.3202 45.0532 21.3202 45.7736Z" fill="white"/>
<path d="M60.2644 47.2144C60.2644 48.9433 59.2559 50.343 58.0209 50.343C56.7859 50.343 55.7773 48.9433 55.7773 47.2144C55.7773 45.4854 56.7859 44.0857 58.0209 44.0857C59.2559 44.0857 60.2644 45.4854 60.2644 47.2144Z" fill="#441F04"/>
<path d="M58.1445 45.7736C58.1445 46.494 57.7328 47.0703 57.2182 47.0703C56.7037 47.0703 56.292 46.494 56.292 45.7736C56.292 45.0532 56.7037 44.4769 57.2182 44.4769C57.7122 44.4769 58.1445 45.0532 58.1445 45.7736Z" fill="white"/>
<path d="M25.0661 54.6037C25.0661 56.5591 23.4812 58.1646 21.5052 58.1646C19.5498 58.1646 17.9443 56.5797 17.9443 54.6037C17.9443 52.6483 19.5292 51.0429 21.5052 51.0429C23.4606 51.0635 25.0661 52.6483 25.0661 54.6037Z" fill="#FF6161"/>
<path d="M61.8073 54.6037C61.8073 56.5591 60.2224 58.1646 58.2464 58.1646C56.291 58.1646 54.6855 56.5797 54.6855 54.6037C54.6855 52.6483 56.2704 51.0429 58.2464 51.0429C60.2224 51.0635 61.8073 52.6483 61.8073 54.6037Z" fill="#FF6161"/>
<path d="M40.175 52.4424H39.5781V57.9175H40.175V52.4424Z" fill="#441F04"/>
<path d="M43.0768 55.777C43.0768 55.777 42.4799 58.0617 39.9276 58.0617C38.5485 58.0617 36.4902 57.2795 36.4902 55.5094C36.4902 55.5094 37.5811 57.1354 39.9276 57.1354C41.7595 57.156 43.0768 55.777 43.0768 55.777Z" fill="#441F04"/>
<path d="M45.6294 50.2607C42.7066 53.0394 38.6312 53.801 34.2676 50.2607C34.2676 45.0532 36.8816 38.0549 39.8662 38.0549C42.8507 38.0549 45.6294 45.0532 45.6294 50.2607Z" fill="#FF5E0D"/>
<path d="M45.6294 50.2606C45.6294 51.4544 42.3773 54.0067 39.9485 54.0067C37.5197 54.0067 34.2676 51.4544 34.2676 50.2606C34.2676 49.0668 37.3345 48.0994 39.7633 48.0994C42.2126 48.0994 45.6294 49.0668 45.6294 50.2606Z" fill="#441F04"/>
<path d="M30.9102 15.7428V24.4701C30.9102 25.8285 32.0216 26.9194 33.3595 26.9194C34.718 26.9194 35.8089 25.808 35.8089 24.4701V14.4461C34.1417 14.7343 32.4951 15.1871 30.9102 15.7428Z" fill="#C14000"/>
<path d="M42.519 25.1699V14.6108C42.519 14.4667 42.4984 14.3226 42.4778 14.1785C41.7368 14.1168 40.9752 14.0756 40.2342 14.0756C39.3698 14.0756 38.5053 14.1374 37.6408 14.2197C37.6202 14.3432 37.5996 14.4873 37.5996 14.6314V25.1699C37.5996 26.5284 38.6905 27.6193 40.049 27.6193C41.4075 27.6399 42.519 26.5284 42.519 25.1699Z" fill="#C14000"/>
<path d="M46.7395 26.9401C48.098 26.9401 49.1889 25.8286 49.1889 24.4907V15.64C47.604 15.0842 45.9573 14.6726 44.2695 14.4256V24.5113C44.2901 25.8492 45.381 26.9401 46.7395 26.9401Z" fill="#C14000"/>
<path d="M64.6497 47.7289C63.3735 48.2023 62.7355 49.6226 63.2089 50.8987C63.6823 52.1749 65.1025 52.8129 66.3787 52.3395L68.437 51.5574C69.1985 49.7872 69.672 47.8524 69.8778 45.7735L64.6497 47.7289Z" fill="#C14000"/>
<path d="M69.5263 39.1458L63.7425 41.3276C62.4663 41.801 61.8282 43.2212 62.3017 44.4974C62.7751 45.7735 64.1953 46.4116 65.4714 45.9382L69.9791 44.2504C69.9791 44.0857 69.9997 43.9416 69.9997 43.777C69.9791 42.2332 69.8145 40.6895 69.5263 39.1458Z" fill="#C14000"/>
<path d="M17.1435 50.8987C17.6169 49.6225 16.9788 48.2023 15.7026 47.7289L10.2275 45.6706C10.4128 47.7495 10.8862 49.6637 11.6272 51.4544L13.9737 52.3395C15.2498 52.8129 16.67 52.1543 17.1435 50.8987Z" fill="#C14000"/>
<path d="M18.068 44.4973C18.5414 43.2212 17.9034 41.801 16.6272 41.3275L10.617 39.0634C10.3082 40.6277 10.1436 42.192 10.1436 43.7563C10.1436 43.8798 10.1436 44.0033 10.1641 44.1474L14.9188 45.9382C16.1538 46.4116 17.574 45.7529 18.068 44.4973Z" fill="#C14000"/>
</svg>
