<svg viewBox="0 0 80 80" fill="none" xmlns="http://www.w3.org/2000/svg">
<path d="M0 40C0 17.9086 17.9086 0 40 0V0C62.0914 0 80 17.9086 80 40V40C80 62.0914 62.0914 80 40 80V80C17.9086 80 0 62.0914 0 40V40Z" fill="#FFEAD7"/>
<path d="M47.0977 31.213C47.0977 35.184 43.8831 38.3985 39.9121 38.3985C35.9412 38.3985 32.7266 35.184 32.7266 31.213C32.7266 27.242 37.2766 18.851 39.9121 18.851C42.6894 18.8392 47.0977 27.242 47.0977 31.213Z" fill="#9B581B"/>
<path d="M36.969 30.5867C38.399 34.2858 36.5672 38.4459 32.868 39.8759C29.1689 41.3059 25.0089 39.4741 23.5788 35.7749C22.1488 32.0758 23.3543 22.6093 25.8125 21.652C28.3889 20.6475 35.539 26.8876 36.969 30.5867Z" fill="#9B581B"/>
<path d="M28.8149 33.7066C31.9822 36.094 32.5968 40.6086 30.2095 43.764C27.8222 46.9314 23.3194 47.5459 20.1521 45.1586C16.9848 42.7713 13.0374 34.073 14.6211 31.9693C16.2993 29.7593 25.6476 31.3193 28.8149 33.7066Z" fill="#9B581B"/>
<path d="M23.2121 43.0668C27.1476 43.5868 29.9131 47.1914 29.3931 51.1269C28.8731 55.0624 25.2685 57.8279 21.333 57.3079C17.3975 56.7879 9.6683 51.186 10.011 48.5742C10.3774 45.8323 19.2766 42.5586 23.2121 43.0668Z" fill="#9B581B"/>
<path d="M43.0319 30.5865C41.6019 34.2857 43.4337 38.4457 47.1329 39.8757C50.832 41.3058 54.9921 39.4739 56.4221 35.7748C57.8521 32.0756 56.6467 22.6091 54.1884 21.6519C51.612 20.6473 44.4738 26.8874 43.0319 30.5865Z" fill="#9B581B"/>
<path d="M51.1869 33.7067C48.0196 36.094 47.4051 40.6086 49.7924 43.7641C52.1797 46.9314 56.6825 47.546 59.8498 45.1587C63.0171 42.7713 66.9644 34.0731 65.3808 31.9694C63.7025 29.7594 54.3542 31.3194 51.1869 33.7067Z" fill="#9B581B"/>
<path d="M56.7887 43.0669C52.8532 43.5869 50.0877 47.1915 50.6077 51.127C51.1277 55.0625 54.7323 57.828 58.6678 57.308C62.6033 56.788 70.3325 51.1861 69.9898 48.5742C69.6234 45.8324 60.7242 42.5587 56.7887 43.0669Z" fill="#9B581B"/>
<path d="M30.2076 35.5032C30.2076 37.4414 28.6357 39.0132 26.6975 39.0132C24.7593 39.0132 23.1875 37.4414 23.1875 35.5032C23.1875 33.565 24.7593 31.9932 26.6975 31.9932C28.6357 31.9932 30.2076 33.565 30.2076 35.5032Z" fill="#F7AA4D"/>
<path d="M28.9311 35.9051C28.9311 36.9096 28.1156 37.7251 27.111 37.7251C26.1065 37.7251 25.291 36.9096 25.291 35.9051C25.291 34.9005 26.1065 34.0851 27.111 34.0851C28.1156 34.0851 28.9311 34.9005 28.9311 35.9051Z" fill="#FF6464"/>
<path d="M52.4739 39.0132C54.4125 39.0132 55.984 37.4417 55.984 35.5032C55.984 33.5647 54.4125 31.9932 52.4739 31.9932C50.5354 31.9932 48.9639 33.5647 48.9639 35.5032C48.9639 37.4417 50.5354 39.0132 52.4739 39.0132Z" fill="#F7AA4D"/>
<path d="M50.2266 35.9051C50.2266 36.9096 51.042 37.7251 52.0466 37.7251C53.0511 37.7251 53.8666 36.9096 53.8666 35.9051C53.8666 34.9005 53.0511 34.0851 52.0466 34.0851C51.042 34.0851 50.2266 34.9005 50.2266 35.9051Z" fill="#FF6464"/>
<path d="M56.6576 48.6806C56.6576 56.7289 49.1175 61.1489 39.8283 61.1489C30.5391 61.1489 22.999 56.7289 22.999 48.6806C22.999 43.646 25.9418 38.3868 30.4209 35.1486C35.8219 32.3477 44.6266 32.974 48.7984 34.8413C53.514 38.0441 56.6576 43.4805 56.6576 48.6806Z" fill="#F7AA4D"/>
<path d="M39.9584 39.7696C35.1129 34.4041 30.4092 35.1486 30.4092 35.1486C33.0919 33.2104 36.3302 31.9932 39.8166 31.9932C43.1139 31.9932 46.1867 33.0804 48.7867 34.8414C48.7867 34.8414 42.9721 34.9596 39.9584 39.7696Z" fill="#9B581B"/>
<path d="M30.5506 50.6187C30.5506 51.5878 29.9833 52.3797 29.286 52.3797C28.5888 52.3797 28.0215 51.5878 28.0215 50.6187C28.0215 49.6496 28.5888 48.8578 29.286 48.8578C29.9833 48.8578 30.5506 49.6496 30.5506 50.6187Z" fill="#441F04"/>
<path d="M29.3555 49.8151C29.3555 50.2169 29.1192 50.5478 28.8355 50.5478C28.5401 50.5478 28.3037 50.2169 28.3037 49.8151C28.3037 49.4133 28.5401 49.0824 28.8355 49.0824C29.1192 49.0824 29.3555 49.4133 29.3555 49.8151Z" fill="white"/>
<path d="M51.2576 50.6187C51.2576 51.5878 50.6904 52.3797 49.9931 52.3797C49.2958 52.3797 48.7285 51.5878 48.7285 50.6187C48.7285 49.6496 49.2958 48.8578 49.9931 48.8578C50.6904 48.8578 51.2576 49.6496 51.2576 50.6187Z" fill="#441F04"/>
<path d="M50.0655 49.8151C50.0655 50.2169 49.8291 50.5478 49.5455 50.5478C49.25 50.5478 49.0137 50.2169 49.0137 49.8151C49.0137 49.4133 49.25 49.0824 49.5455 49.0824C49.8291 49.0824 50.0655 49.4133 50.0655 49.8151Z" fill="white"/>
<path d="M41.8968 52.498C41.8968 53.1716 40.9513 53.7153 39.7931 53.7153C38.6349 53.7153 37.6895 53.1716 37.6895 52.498C37.6895 51.8244 38.6349 51.2807 39.7931 51.2807C40.9513 51.2925 41.8968 51.8362 41.8968 52.498Z" fill="#441F04"/>
<path d="M31.8745 54.7789C31.8745 55.878 30.9763 56.7762 29.8772 56.7762C28.7781 56.7762 27.8799 55.878 27.8799 54.7789C27.8799 53.6798 28.7781 52.7816 29.8772 52.7816C30.9763 52.7816 31.8745 53.6798 31.8745 54.7789Z" fill="#FF6464"/>
<path d="M52.1303 54.7789C52.1303 55.878 51.2321 56.7762 50.133 56.7762C49.0339 56.7762 48.1357 55.878 48.1357 54.7789C48.1357 53.6798 49.0339 52.7816 50.133 52.7816C51.2321 52.7816 52.1303 53.6798 52.1303 54.7789Z" fill="#FF6464"/>
<path d="M39.9579 53.5616H39.627V56.6344H39.9579V53.5616Z" fill="#441F04"/>
<path d="M41.5899 55.4407C41.5899 55.4407 41.2589 56.7289 39.8171 56.7289C39.0371 56.7289 37.8789 56.2916 37.8789 55.2989C37.8789 55.2989 38.4934 56.2207 39.8171 56.2207C40.8453 56.2207 41.5899 55.4407 41.5899 55.4407Z" fill="#441F04"/>
</svg>
