<svg viewBox="0 0 80 80" fill="none" xmlns="http://www.w3.org/2000/svg">
<path d="M0 40C0 17.9086 17.9086 0 40 0C62.0914 0 80 17.9086 80 40C80 62.0914 62.0914 80 40 80C17.9086 80 0 62.0914 0 40Z" fill="#D9EBFB"/>
<path d="M27.1702 19.8606C30.2429 23.8692 25.9086 24.1948 21.8797 27.2674C17.871 30.34 15.6937 34.9998 12.6211 30.9911C9.54851 26.9825 9.24329 16.5031 11.3595 14.7938C14.9205 11.9654 24.0976 15.8519 27.1702 19.8606Z" fill="#6D9FCC"/>
<path d="M24.2401 22.3024C26.0104 24.6221 23.5075 24.8052 21.1878 26.5959C18.8681 28.3662 17.6065 31.0726 15.8362 28.7528C14.0658 26.4331 12.8449 20.939 15.1646 19.1484C17.464 17.3577 22.4697 19.9827 24.2401 22.3024Z" fill="#FFBDBD"/>
<path d="M52.8292 19.8606C49.7566 23.8692 54.0908 24.1948 58.1198 27.2674C62.1285 30.34 64.3057 34.9998 67.3784 30.9911C70.451 26.9825 70.7562 16.5031 68.6399 14.7938C65.0993 11.9654 55.9018 15.8519 52.8292 19.8606Z" fill="#6D9FCC"/>
<path d="M55.7796 22.3024C54.0093 24.6221 56.5121 24.8052 58.8319 26.5959C61.1516 28.3662 62.4132 31.0726 64.1835 28.7528C65.9538 26.4331 67.1747 20.939 64.855 19.1484C62.5353 17.3577 57.5499 19.9827 55.7796 22.3024Z" fill="#FFBDBD"/>
<path d="M69.048 44.7059C69.048 58.5632 56.0657 66.1735 40.0719 66.1735C24.0577 66.1735 11.0957 58.5632 11.0957 44.7059C11.0957 30.8486 24.078 15.9536 40.0719 15.9536C56.0861 15.9739 69.048 30.8486 69.048 44.7059Z" fill="#6D9FCC"/>
<path d="M24.1182 48.0635C24.1182 49.7321 23.1415 51.0954 21.9409 51.0954C20.7404 51.0954 19.7637 49.7321 19.7637 48.0635C19.7637 46.3949 20.7404 45.0316 21.9409 45.0316C23.1415 45.0112 24.1182 46.3746 24.1182 48.0635Z" fill="#441F04"/>
<path d="M22.063 46.6594C22.063 47.3512 21.656 47.921 21.1676 47.921C20.6589 47.921 20.252 47.3512 20.252 46.6594C20.252 45.9675 20.6589 45.3978 21.1676 45.3978C21.656 45.3978 22.063 45.9675 22.063 46.6594Z" fill="white"/>
<path d="M47.8658 55.0023C47.8658 57.9936 44.4879 60.4354 40.2962 60.4354C36.1247 60.4354 32.7266 58.0139 32.7266 55.0023C32.7266 52.0111 36.1044 49.5693 40.2962 49.5693C44.4879 49.5693 47.8658 51.9908 47.8658 55.0023Z" fill="white"/>
<path d="M59.7677 48.0635C59.7677 49.7321 58.7909 51.0954 57.5904 51.0954C56.3898 51.0954 55.4131 49.7321 55.4131 48.0635C55.4131 46.3949 56.3898 45.0316 57.5904 45.0316C58.7909 45.0112 59.7677 46.3746 59.7677 48.0635Z" fill="#441F04"/>
<path d="M57.7114 46.6594C57.7114 47.3512 57.3044 47.921 56.8161 47.921C56.3074 47.921 55.9004 47.3512 55.9004 46.6594C55.9004 45.9675 56.3074 45.3978 56.8161 45.3978C57.3044 45.3978 57.7114 45.9675 57.7114 46.6594Z" fill="white"/>
<path d="M43.6327 51.2988C43.6327 52.4586 42.0048 53.3947 40.0107 53.3947C38.0166 53.3947 36.3887 52.4586 36.3887 51.2988C36.3887 50.1389 38.0166 49.2029 40.0107 49.2029C42.0252 49.2029 43.6327 50.1389 43.6327 51.2988Z" fill="#441F04"/>
<path d="M26.3973 55.2262C26.3973 57.1186 24.8508 58.6651 22.9584 58.6651C21.066 58.6651 19.5195 57.1186 19.5195 55.2262C19.5195 53.3338 21.066 51.7873 22.9584 51.7873C24.8508 51.767 26.3973 53.3135 26.3973 55.2262Z" fill="#FFBDBD"/>
<path d="M61.2743 55.2262C61.2743 57.1186 59.7278 58.6651 57.8354 58.6651C55.943 58.6651 54.3965 57.1186 54.3965 55.2262C54.3965 53.3338 55.943 51.7873 57.8354 51.7873C59.7278 51.767 61.2743 53.3135 61.2743 55.2262Z" fill="#FFBDBD"/>
<path d="M40.2943 53.11H39.7246V58.4005H40.2943V53.11Z" fill="#441F04"/>
<path d="M43.1228 56.3453C43.1228 56.3453 42.5531 58.5632 40.0706 58.5632C38.7276 58.5632 36.7334 57.8104 36.7334 56.1011C36.7334 56.1011 37.7915 57.6883 40.0706 57.6883C41.8409 57.6883 43.1228 56.3453 43.1228 56.3453Z" fill="#441F04"/>
<path d="M31.0557 17.5817V24.256C31.0557 25.5786 32.1138 26.6367 33.4364 26.6367C34.7591 26.6367 35.8172 25.5786 35.8172 24.256V16.3201C34.169 16.605 32.5818 17.0323 31.0557 17.5817Z" fill="white"/>
<path d="M42.2889 26.7182V16.4829C42.2889 16.3405 42.2685 16.198 42.2482 16.0556C41.536 15.9946 40.8034 15.9539 40.0709 15.9539C39.2366 15.9539 38.4023 15.9946 37.568 16.076C37.5477 16.198 37.5273 16.3405 37.5273 16.4626V26.6775C37.5273 28.0001 38.5855 29.0582 39.9081 29.0582C41.2307 29.0989 42.2889 28.0205 42.2889 26.7182Z" fill="white"/>
<path d="M46.3778 26.6367C47.7005 26.6367 48.7586 25.5786 48.7586 24.256V17.4596C47.2324 16.9305 45.6249 16.5236 43.9971 16.2794V24.256C43.9971 25.5786 45.0755 26.6367 46.3778 26.6367Z" fill="white"/>
</svg>
