<svg viewBox="0 0 80 80" fill="none" xmlns="http://www.w3.org/2000/svg">
<path d="M0 40C0 17.9086 17.9086 0 40 0C62.0914 0 80 17.9086 80 40C80 62.0914 62.0914 80 40 80C17.9086 80 0 62.0914 0 40Z" fill="#FFEED0"/>
<path d="M30.705 24.0784C32.4777 27.8313 28.9511 27.341 25.1981 29.1137C21.4452 30.8865 19.5027 35.2429 17.73 31.49C15.9572 27.737 17.3905 17.9492 18.8804 17.2891C20.936 16.101 28.9322 20.3254 30.705 24.0784Z" fill="#C14E00"/>
<path d="M28.2712 25.8511C29.4028 28.2273 27.1585 27.9256 24.7823 29.0571C22.4061 30.1886 21.7083 32.1688 20.5767 29.7926C19.4452 27.4164 19.8224 21.985 20.7653 21.5701C22.0666 20.7969 27.1397 23.4748 28.2712 25.8511Z" fill="#FFBDBD"/>
<path d="M18.2764 12.876C18.8233 15.7426 18.7102 16.7987 18.7102 16.7987C18.7102 16.7987 17.5975 16.0632 15.9002 14.0264C14.6178 12.48 14.448 10.5941 15.4664 10.1038C16.4848 9.61342 17.8992 10.9147 18.2764 12.876Z" fill="#441F04"/>
<path d="M20.9915 14.1585C19.8788 16.2142 19.2753 16.8177 19.2753 16.8177C19.2753 16.8177 18.9547 15.7993 18.9358 13.6682C18.917 12.0652 19.7845 10.8016 20.652 11.0091C21.5384 11.2165 21.7647 12.7441 20.9915 14.1585Z" fill="#441F04"/>
<path d="M15.9752 14.9505C17.7668 16.4404 18.2194 17.157 18.2194 17.157C18.2194 17.157 17.1633 17.2702 15.0699 16.8553C13.4858 16.5536 12.4297 15.4597 12.8257 14.6488C13.2029 13.8379 14.7493 13.9322 15.9752 14.9505Z" fill="#441F04"/>
<path d="M48.259 24.0782C46.4863 27.8312 50.0129 27.3408 53.7659 29.1136C57.5188 30.8863 59.4613 35.2427 61.234 31.4898C63.0068 27.7369 61.5735 17.949 60.0836 17.289C58.028 16.1009 50.0506 20.3253 48.259 24.0782Z" fill="#C14E00"/>
<path d="M50.7111 25.8509C49.5796 28.2271 51.8238 27.9254 54.2 29.0569C56.5763 30.1885 57.2741 32.1687 58.4056 29.7924C59.5372 27.4162 59.16 21.9848 58.217 21.5699C56.8969 20.7967 51.8427 23.4747 50.7111 25.8509Z" fill="#FFBDBD"/>
<path d="M60.6864 12.9703C60.1583 15.7614 60.2526 16.7798 60.2526 16.7798C60.2526 16.7798 61.3465 16.0632 62.9872 14.083C64.2319 12.5931 64.4016 10.7449 63.4209 10.2735C62.4214 9.80199 61.0447 11.0656 60.6864 12.9703Z" fill="#441F04"/>
<path d="M58.0468 14.215C59.1217 16.2141 59.7252 16.7987 59.7252 16.7987C59.7252 16.7987 60.0458 15.818 60.0458 13.7435C60.0647 12.1782 59.2349 10.9713 58.3674 11.1599C57.5187 11.3673 57.3113 12.8572 58.0468 14.215Z" fill="#441F04"/>
<path d="M62.9123 14.9882C61.1772 16.4404 60.7246 17.1382 60.7246 17.1382C60.7246 17.1382 61.7619 17.2513 63.7798 16.8553C65.3074 16.5535 66.3446 15.4974 65.9674 14.7053C65.6091 13.9133 64.1192 14.0076 62.9123 14.9882Z" fill="#441F04"/>
<path d="M67.4211 49.6888C67.4211 62.7958 55.1439 70 40.0001 70C24.8563 70 12.5791 62.8147 12.5791 49.6888C12.5791 36.5818 24.8563 22.4941 40.0001 22.4941C55.1439 22.4941 67.4211 36.5629 67.4211 49.6888Z" fill="#FFA300"/>
<path d="M24.7988 52.8383C24.7988 54.4225 23.8747 55.7049 22.7431 55.7049C21.6116 55.7049 20.6875 54.4225 20.6875 52.8383C20.6875 51.2541 21.6116 49.9717 22.7431 49.9717C23.8747 49.9717 24.7988 51.2541 24.7988 52.8383Z" fill="#441F04"/>
<path d="M22.8565 51.5182C22.8565 52.1782 22.4793 52.7063 22.0078 52.7063C21.5364 52.7063 21.1592 52.1782 21.1592 51.5182C21.1592 50.8581 21.5364 50.33 22.0078 50.33C22.4793 50.33 22.8565 50.8581 22.8565 51.5182Z" fill="white"/>
<path d="M58.5195 52.8383C58.5195 54.4225 57.5954 55.7049 56.4638 55.7049C55.3323 55.7049 54.4082 54.4225 54.4082 52.8383C54.4082 51.2541 55.3323 49.9717 56.4638 49.9717C57.5954 49.9717 58.5195 51.2541 58.5195 52.8383Z" fill="#441F04"/>
<path d="M56.5772 51.5182C56.5772 52.1782 56.2 52.7063 55.7285 52.7063C55.2571 52.7063 54.8799 52.1782 54.8799 51.5182C54.8799 50.8581 55.2571 50.33 55.7285 50.33C56.2 50.33 56.5772 50.8581 56.5772 51.5182Z" fill="white"/>
<path d="M26.2703 59.6276C26.2703 61.4192 24.8182 62.8902 23.0077 62.8902C21.2161 62.8902 19.7451 61.438 19.7451 59.6276C19.7451 57.836 21.1972 56.3649 23.0077 56.3649C24.8182 56.3649 26.2703 57.8171 26.2703 59.6276Z" fill="#FF6161"/>
<path d="M59.9344 59.6276C59.9344 61.4192 58.4822 62.8902 56.6718 62.8902C54.8802 62.8902 53.4092 61.438 53.4092 59.6276C53.4092 57.836 54.8613 56.3649 56.6718 56.3649C58.4822 56.3649 59.9344 57.8171 59.9344 59.6276Z" fill="#FF6161"/>
<path d="M43.0932 55.403C41.9994 55.403 40.6038 56.6289 39.906 57.2512C39.2082 56.6289 37.8127 55.403 36.7188 55.403C34.6255 55.403 33.3242 56.6289 33.3242 58.4016C33.3242 60.1744 35.0215 61.6077 37.1337 61.6077C38.2653 62.626 39.9437 62.8901 42.6971 61.6077C44.7905 61.6077 46.5067 60.1744 46.5067 58.4016C46.4878 56.6289 45.1865 55.403 43.0932 55.403Z" fill="white"/>
<path d="M40.1123 57.6286H39.5654V62.6451H40.1123V57.6286Z" fill="#441F04"/>
<path d="M43.206 56.3651C43.206 57.4401 41.6973 58.3076 39.8491 58.3076C38.0009 58.3076 36.4922 57.4401 36.4922 56.3651C36.4922 55.2901 38.0009 54.4226 39.8491 54.4226C41.6973 54.4226 43.206 55.2901 43.206 56.3651Z" fill="#441F04"/>
<path d="M36.3036 61.8153C36.2847 61.8153 36.2659 61.7965 36.2659 61.7965C36.0207 62.0982 35.8887 62.4942 35.8887 62.9091V64.2293C35.8887 65.2288 36.6996 66.0397 37.6991 66.0397C38.6987 66.0397 39.5096 65.2288 39.5096 64.2293V62.9091C39.5096 62.7205 39.4719 62.532 39.4153 62.3622C38.3403 62.2868 37.2654 62.0793 36.3036 61.8153Z" fill="white"/>
<path d="M40.0178 62.3811C39.9612 62.5508 39.9424 62.7205 39.9424 62.9091V64.2292C39.9424 65.2287 40.7533 66.0397 41.7528 66.0397C42.7524 66.0397 43.5633 65.2287 43.5633 64.2292V62.9091C43.5633 62.4565 43.3936 62.0227 43.1107 61.721C42.1677 62.1925 41.0928 62.3811 40.0178 62.3811Z" fill="white"/>
<path d="M44.6387 60.6838C44.6387 60.6838 43.7712 62.7772 39.9617 62.7772C37.906 62.7772 34.832 62.0605 34.832 60.4386C34.832 60.4386 36.4728 61.9285 39.9617 61.9285C42.6774 61.9662 44.6387 60.6838 44.6387 60.6838Z" fill="#441F04"/>
</svg>
