<svg viewBox="0 0 80 80" fill="none" xmlns="http://www.w3.org/2000/svg">
<path d="M0 40C0 17.9086 17.9086 0 40 0C62.0914 0 80 17.9086 80 40C80 62.0914 62.0914 80 40 80C17.9086 80 0 62.0914 0 40Z" fill="#FFEAD7"/>
<path d="M24.8193 21.0495C24.8193 25.1459 21.506 28.4592 17.4096 28.4592C13.3133 28.4592 10 25.1459 10 21.0495C10 16.9532 13.3133 13.6399 17.4096 13.6399C21.506 13.66 24.8193 16.9732 24.8193 21.0495Z" fill="#C28241"/>
<path d="M22.1482 21.9131C22.1482 24.0215 20.4213 25.7485 18.3129 25.7485C16.1844 25.7485 14.4775 24.0215 14.4775 21.9131C14.4775 19.7846 16.2044 18.0778 18.3129 18.0778C20.4213 18.0778 22.1482 19.8047 22.1482 21.9131Z" fill="#FFBDBD"/>
<path d="M55.1807 21.0495C55.1807 25.1459 58.4939 28.4592 62.5903 28.4592C66.6867 28.4592 69.9999 25.1459 69.9999 21.0495C69.9999 16.9532 66.6867 13.6399 62.5903 13.6399C58.4939 13.66 55.1807 16.9732 55.1807 21.0495Z" fill="#C28241"/>
<path d="M57.8525 21.9131C57.8525 24.0215 59.5794 25.7485 61.6879 25.7485C63.7963 25.7485 65.5232 24.0215 65.5232 21.9131C65.5232 19.7846 63.7963 18.0778 61.6879 18.0778C59.5794 18.0778 57.8525 19.8047 57.8525 21.9131Z" fill="#FFBDBD"/>
<path d="M68.9954 42.0134C68.9954 55.6881 56.1841 63.1981 40.401 63.1981C24.5978 63.1981 11.8066 55.6881 11.8066 42.0134C11.8066 28.3387 24.6179 13.6399 40.401 13.6399C56.2042 13.66 68.9954 28.3387 68.9954 42.0134Z" fill="#C28241"/>
<path d="M24.6585 45.3066C24.6585 46.9531 23.6947 48.2985 22.5099 48.2985C21.3252 48.2985 20.3613 46.9531 20.3613 45.3066C20.3613 43.66 21.3252 42.3146 22.5099 42.3146C23.6947 42.3146 24.6585 43.66 24.6585 45.3066Z" fill="#441F04"/>
<path d="M22.6299 43.941C22.6299 44.6237 22.2283 45.186 21.7464 45.186C21.2444 45.186 20.8428 44.6237 20.8428 43.941C20.8428 43.2583 21.2444 42.696 21.7464 42.696C22.2283 42.696 22.6299 43.2583 22.6299 43.941Z" fill="white"/>
<path d="M59.8392 45.3066C59.8392 46.9531 58.8753 48.2985 57.6906 48.2985C56.5058 48.2985 55.542 46.9531 55.542 45.3066C55.542 43.66 56.5058 42.3146 57.6906 42.3146C58.8753 42.3146 59.8392 43.66 59.8392 45.3066Z" fill="#441F04"/>
<path d="M57.8096 43.941C57.8096 44.6237 57.408 45.186 56.9261 45.186C56.4241 45.186 56.0225 44.6237 56.0225 43.941C56.0225 43.2583 56.4241 42.696 56.9261 42.696C57.408 42.696 57.8096 43.2583 57.8096 43.941Z" fill="white"/>
<path d="M43.9162 48.4993C43.9162 49.6439 42.3097 50.5676 40.3419 50.5676C38.374 50.5676 36.7676 49.6439 36.7676 48.4993C36.7676 47.3547 38.374 46.431 40.3419 46.431C42.3298 46.4511 43.9162 47.3748 43.9162 48.4993Z" fill="#441F04"/>
<path d="M26.9073 52.3749C26.9073 54.2423 25.3812 55.7684 23.5137 55.7684C21.6462 55.7684 20.1201 54.2423 20.1201 52.3749C20.1201 50.5074 21.6462 48.9813 23.5137 48.9813C25.3812 48.9813 26.9073 50.5074 26.9073 52.3749Z" fill="#FFBDBD"/>
<path d="M61.3252 52.3749C61.3252 54.2423 59.7991 55.7684 57.9317 55.7684C56.0642 55.7684 54.5381 54.2423 54.5381 52.3749C54.5381 50.5074 56.0642 48.9813 57.9317 48.9813C59.7991 48.9813 61.3252 50.5074 61.3252 52.3749Z" fill="#FFBDBD"/>
<path d="M40.6228 50.3066H40.0605V55.5274H40.6228V50.3066Z" fill="#441F04"/>
<path d="M43.4126 53.4994C43.4126 53.4994 42.8504 55.6881 40.4006 55.6881C39.0753 55.6881 37.1074 54.9452 37.1074 53.2584C37.1074 53.2584 38.1516 54.8247 40.4006 54.8247C42.1476 54.8247 43.4126 53.4994 43.4126 53.4994Z" fill="#441F04"/>
<path d="M42.1679 62.9771C42.1679 64.3024 41.0836 65.3867 39.7583 65.3867C38.433 65.3867 37.3486 64.3024 37.3486 62.9771C37.3486 61.6518 38.433 60.5675 39.7583 60.5675C41.1037 60.5675 42.1679 61.6518 42.1679 62.9771Z" fill="white"/>
<path d="M38.394 64.1819C38.394 65.4269 36.1048 66.4711 33.3739 66.3506C32.3297 66.3506 31.4863 65.3466 31.4863 64.1016V61.8526C31.4863 60.6076 31.9482 59.6438 33.3739 59.6036C36.9482 59.8044 38.394 61.8526 38.394 63.0976V64.1819Z" fill="white"/>
<path d="M41.3457 64.1818C41.3457 65.4268 43.6349 66.471 46.3658 66.3505C47.41 66.3505 48.2533 65.3465 48.2533 64.1015V61.8525C48.2533 60.6075 47.7915 59.6437 46.3658 59.6035C42.7915 59.8043 41.3457 61.8525 41.3457 63.0975V64.1818Z" fill="white"/>
</svg>
