<svg viewBox="0 0 80 80" fill="none" xmlns="http://www.w3.org/2000/svg">
<path d="M0 40C0 17.9086 17.9086 0 40 0C62.0914 0 80 17.9086 80 40C80 62.0914 62.0914 80 40 80C17.9086 80 0 62.0914 0 40Z" fill="#FFEAD7"/>
<path d="M70 43.7711C70 58.118 56.559 65.9972 40 65.9972C23.4199 65.9972 10 58.118 10 43.7711C10 29.4242 23.441 14.0028 40 14.0028C56.559 14.0028 70 29.4031 70 43.7711Z" fill="#FFCA85"/>
<path d="M59.403 61.3203C54.1572 64.3961 47.3103 65.9973 39.8314 65.9973C32.4999 65.9973 25.7583 64.4593 20.5547 61.4888C29.1081 61.6995 34.6488 60.5619 36.608 49.965C38.5673 49.5225 40.5687 49.4172 42.7387 49.965C43.2021 58.9186 46.889 62.3947 59.403 61.3203Z" fill="#9B581B"/>
<path d="M43.0131 49.5646C41.9597 53.7781 37.1985 49.6067 36.5875 49.5857C36.6929 29.9298 12.2547 31.7626 16.0889 26.6433C21.5665 19.3329 30.2462 14.0028 39.9794 14.0028C49.7336 14.0028 58.3923 19.3329 63.8698 26.6433C67.7252 31.7626 47.7743 31.3202 43.0131 49.5646Z" fill="#9B581B"/>
<path d="M23.9049 47.3736C23.9049 49.1011 22.8937 50.5126 21.6507 50.5126C20.4077 50.5126 19.3965 49.1011 19.3965 47.3736C19.3965 45.6461 20.4077 44.2345 21.6507 44.2345C22.8937 44.2345 23.9049 45.6461 23.9049 47.3736Z" fill="#441F04"/>
<path d="M21.7758 45.9412C21.7758 46.6575 21.3545 47.2473 20.8488 47.2473C20.3222 47.2473 19.9219 46.6575 19.9219 45.9412C19.9219 45.2249 20.3432 44.635 20.8488 44.635C21.3545 44.635 21.7758 45.2038 21.7758 45.9412Z" fill="white"/>
<path d="M59.9088 47.3736C59.9088 49.1011 58.8976 50.5126 57.6546 50.5126C56.4116 50.5126 55.4004 49.1011 55.4004 47.3736C55.4004 45.6461 56.4116 44.2345 57.6546 44.2345C58.8976 44.2345 59.9088 45.6461 59.9088 47.3736Z" fill="#441F04"/>
<path d="M57.7813 45.9412C57.7813 46.6575 57.3599 47.2473 56.8543 47.2473C56.3276 47.2473 55.9062 46.6575 55.9062 45.9412C55.9062 45.2249 56.3276 44.635 56.8543 44.635C57.3599 44.635 57.7813 45.2038 57.7813 45.9412Z" fill="white"/>
<path d="M26.2643 54.7894C26.2643 56.7486 24.6632 58.3497 22.7039 58.3497C20.7447 58.3497 19.1436 56.7486 19.1436 54.7894C19.1436 52.8301 20.7447 51.229 22.7039 51.229C24.6632 51.229 26.2643 52.8301 26.2643 54.7894Z" fill="#FF6464"/>
<path d="M61.447 54.7894C61.447 56.7486 59.8458 58.3497 57.8866 58.3497C55.9273 58.3497 54.3262 56.7486 54.3262 54.7894C54.3262 52.8301 55.9273 51.229 57.8866 51.229C59.8458 51.229 61.447 52.8301 61.447 54.7894Z" fill="#FF6464"/>
<path d="M44.7197 51.0393C44.7197 53.8834 40.9276 56.5168 39.9585 56.5168C39.2633 56.5168 35.1973 53.9045 35.1973 51.0393C35.1973 49.08 37.3251 48.6376 39.9585 48.6376C42.5919 48.6376 44.7197 49.08 44.7197 51.0393Z" fill="#FF6700"/>
<path d="M27.864 18.7852C25.3359 19.67 22.6814 20.2388 19.9848 20.281C17.246 20.302 12.3373 17.8161 12.253 17.8161C11.0943 17.5844 10.673 18.6588 10.7783 19.649C10.9468 21.1869 11.8527 22.6616 12.6533 23.9467C13.6224 25.4846 14.8022 27.0015 16.0873 28.2655C16.614 28.7922 27.6954 19.9018 28.18 19.2065C28.3274 18.9959 28.0957 18.7009 27.864 18.7852Z" fill="#9B581B"/>
<path d="M52.0711 19.1854C52.5345 19.8596 63.6371 28.75 64.1638 28.2444C65.4489 26.9593 66.6286 25.4424 67.5977 23.9256C68.3983 22.6405 69.3042 21.1657 69.4727 19.6278C69.5781 18.6377 69.1778 17.5632 67.998 17.7949C67.9348 17.816 63.0051 20.302 60.2663 20.2598C57.5697 20.2388 54.9152 19.67 52.3871 18.7641C52.1764 18.7009 51.9447 18.9958 52.0711 19.1854Z" fill="#9B581B"/>
</svg>
