<svg viewBox="0 0 80 80" fill="none" xmlns="http://www.w3.org/2000/svg">
<path d="M0 40C0 17.9086 17.9086 0 40 0C62.0914 0 80 17.9086 80 40C80 62.0914 62.0914 80 40 80C17.9086 80 0 62.0914 0 40Z" fill="#FFEAD7"/>
<path d="M25.7451 24.8935C27.0308 29.1433 24.7094 29.7862 21.031 32.2504C17.3347 34.7146 19.7274 36.4288 15.4954 35.1074C7.95999 32.7504 9.97778 19.9651 11.1742 19.8044C15.1205 19.2865 24.1559 19.6615 25.7451 24.8935Z" fill="#F28B8B"/>
<path d="M23.0488 26.3397C23.8166 28.8932 22.4238 29.286 20.2096 30.7681C17.9776 32.2502 19.4239 33.2859 16.8705 32.4824C12.3349 31.0538 13.5491 23.3577 14.2634 23.2684C16.6383 22.9648 22.1024 23.197 23.0488 26.3397Z" fill="#FFC4B8"/>
<path d="M54.244 24.8934C52.9583 29.1432 55.2618 29.7861 58.9581 32.2503C62.6365 34.7145 60.2616 36.4287 64.4936 35.1073C72.0291 32.7503 70.0291 19.9828 68.8328 19.8221C64.8686 19.2864 55.8332 19.6614 54.244 24.8934Z" fill="#F28B8B"/>
<path d="M56.9238 26.3396C56.156 28.8931 57.5488 29.2859 59.763 30.768C61.9772 32.2501 60.5487 33.2858 63.1022 32.5001C67.6377 31.0894 66.4413 23.3754 65.7092 23.2861C63.3343 22.9647 57.8881 23.179 56.9238 26.3396Z" fill="#FFC4B8"/>
<path d="M65.4042 43.1963C65.4042 55.3566 54.0118 62.035 39.9765 62.035C25.9234 62.035 14.5488 55.3566 14.5488 43.1963C14.5488 31.036 25.9413 17.965 39.9765 17.965C54.0296 17.965 65.4042 31.036 65.4042 43.1963Z" fill="#F28B8B"/>
<path d="M25.9776 46.1247C25.9776 47.589 25.1204 48.7854 24.0669 48.7854C23.0134 48.7854 22.1562 47.589 22.1562 46.1247C22.1562 44.6605 23.0134 43.4641 24.0669 43.4641C25.1204 43.4641 25.9776 44.6605 25.9776 46.1247Z" fill="#441F04"/>
<path d="M24.1739 44.9106C24.1739 45.5177 23.8168 46.0177 23.3882 46.0177C22.9418 46.0177 22.6025 45.5177 22.6025 44.9106C22.6025 44.3035 22.9597 43.8035 23.3882 43.8035C23.8168 43.8035 24.1739 44.2856 24.1739 44.9106Z" fill="white"/>
<path d="M57.2617 46.1247C57.2617 47.589 56.4046 48.7854 55.3511 48.7854C54.2976 48.7854 53.4404 47.589 53.4404 46.1247C53.4404 44.6605 54.2976 43.4641 55.3511 43.4641C56.4046 43.4641 57.2617 44.6605 57.2617 46.1247Z" fill="#441F04"/>
<path d="M55.4571 44.9106C55.4571 45.5177 55.1 46.0177 54.6714 46.0177C54.225 46.0177 53.8857 45.5177 53.8857 44.9106C53.8857 44.3035 54.2429 43.8035 54.6714 43.8035C55.1 43.8035 55.4571 44.2856 55.4571 44.9106Z" fill="white"/>
<path d="M27.9769 52.4102C27.9769 54.0709 26.6198 55.428 24.9592 55.428C23.2985 55.428 21.9414 54.0709 21.9414 52.4102C21.9414 50.7495 23.2985 49.3925 24.9592 49.3925C26.6198 49.3925 27.9769 50.7495 27.9769 52.4102Z" fill="#FFC4B8"/>
<path d="M58.5824 52.4102C58.5824 54.0709 57.2253 55.428 55.5646 55.428C53.904 55.428 52.5469 54.0709 52.5469 52.4102C52.5469 50.7495 53.904 49.3925 55.5646 49.3925C57.2253 49.3925 58.5824 50.7495 58.5824 52.4102Z" fill="#FFC4B8"/>
<path d="M42.065 54.2316C42.065 54.2316 41.565 56.1779 39.3865 56.1779C38.208 56.1779 36.458 55.5172 36.458 54.0173C36.458 54.0173 37.3866 55.4101 39.3865 55.4101C40.94 55.4101 42.065 54.2316 42.065 54.2316Z" fill="#441F04"/>
<path d="M46.977 47.2856C46.977 50.3033 43.7271 52.7497 39.7273 52.7497C35.7274 52.7497 32.4775 50.3033 32.4775 47.2856C32.4775 44.2678 35.7274 41.8215 39.7273 41.8215C43.7271 41.8215 46.977 44.2678 46.977 47.2856Z" fill="#FFC4B8"/>
<path d="M37.5132 47.4282C37.5132 47.9282 37.1203 48.3211 36.6204 48.3211C36.1204 48.3211 35.7275 47.9282 35.7275 47.4282C35.7275 46.9282 36.1204 46.5354 36.6204 46.5354C37.1203 46.5354 37.5132 46.9282 37.5132 47.4282Z" fill="#F28B8B"/>
<path d="M43.2085 47.2854C43.2085 47.7854 42.8157 48.1782 42.3157 48.1782C41.8157 48.1782 41.4229 47.7854 41.4229 47.2854C41.4229 46.7854 41.8157 46.3926 42.3157 46.3926C42.8157 46.3926 43.2085 46.7854 43.2085 47.2854Z" fill="#F28B8B"/>
</svg>
