<svg viewBox="0 0 80 80" fill="none" xmlns="http://www.w3.org/2000/svg">
<path d="M0 40C0 17.9086 17.9086 0 40 0V0C62.0914 0 80 17.9086 80 40V40C80 62.0914 62.0914 80 40 80V80C17.9086 80 0 62.0914 0 40V40Z" fill="#FFE3BF"/>
<path d="M26.1959 31.0683C27.4298 35.457 24.8639 40.014 20.4751 41.2338C16.0864 42.4677 11.5294 39.9018 10.3096 35.5131C9.07566 31.1244 11.6416 26.5814 16.0303 25.3475C20.4191 24.1276 24.976 26.6795 26.1959 31.0683Z" fill="#9B581B"/>
<path d="M23.5872 32.7928C24.2182 35.0643 22.9001 37.4199 20.6287 38.0509C18.3572 38.6819 16.0016 37.3638 15.3706 35.0924C14.7396 32.8209 16.0577 30.4653 18.3291 29.8343C20.6006 29.2033 22.9562 30.5214 23.5872 32.7928Z" fill="#FFBDBD"/>
<path d="M53.8037 31.0683C52.5698 35.457 55.1357 40.014 59.5245 41.2338C63.9132 42.4677 68.4702 39.9018 69.69 35.5131C70.9239 31.1244 68.358 26.5814 63.9693 25.3475C59.5805 24.1276 55.0376 26.6795 53.8037 31.0683Z" fill="#9B581B"/>
<path d="M56.4126 32.7928C55.7816 35.0643 57.0996 37.4199 59.3711 38.0509C61.6426 38.6819 63.9982 37.3638 64.6292 35.0924C65.2601 32.8209 63.9421 30.4653 61.6707 29.8343C59.4132 29.2033 57.0576 30.5214 56.4126 32.7928Z" fill="#FFBDBD"/>
<path d="M60.1695 42.5098C60.1695 52.0585 51.2238 57.3025 40.2029 57.3025C29.168 57.3025 20.2363 52.0585 20.2363 42.5098C20.2363 32.9612 29.182 22.6975 40.2029 22.6975C51.2378 22.6975 60.1695 32.9612 60.1695 42.5098Z" fill="#9B581B"/>
<path d="M54.7017 44.557C58.8941 54.1757 48.3219 55.1993 40.3297 55.1993C32.3374 55.1993 22.915 54.372 25.7614 44.557C20.3491 39.1026 29.6874 24.0436 40.498 34.083C49.2334 24.8708 60.3103 35.9338 54.7017 44.557Z" fill="#FFCA85"/>
<path d="M30.5709 44.9497C30.5709 46.0994 29.8979 47.0389 29.0706 47.0389C28.2434 47.0389 27.5703 46.0994 27.5703 44.9497C27.5703 43.7999 28.2434 42.8605 29.0706 42.8605C29.8979 42.8605 30.5709 43.7999 30.5709 44.9497Z" fill="#441F04"/>
<path d="M29.1538 43.996C29.1538 44.4727 28.8734 44.8653 28.5369 44.8653C28.1864 44.8653 27.9199 44.4727 27.9199 43.996C27.9199 43.5193 28.2004 43.1267 28.5369 43.1267C28.8734 43.1267 29.1538 43.5193 29.1538 43.996Z" fill="white"/>
<path d="M52.6832 44.9497C52.6832 46.0994 52.0102 47.0389 51.1829 47.0389C50.3556 47.0389 49.6826 46.0994 49.6826 44.9497C49.6826 43.7999 50.3556 42.8605 51.1829 42.8605C52.0102 42.8605 52.6832 43.7999 52.6832 44.9497Z" fill="#441F04"/>
<path d="M51.2645 43.996C51.2645 44.4727 50.9841 44.8653 50.6476 44.8653C50.3111 44.8653 50.0166 44.4727 50.0166 43.996C50.0166 43.5193 50.297 43.1267 50.6476 43.1267C50.9981 43.1267 51.2645 43.5193 51.2645 43.996Z" fill="white"/>
<path d="M42.7973 47.1931C42.7973 47.9923 41.6756 48.6373 40.3015 48.6373C38.9274 48.6373 37.8057 47.9923 37.8057 47.1931C37.8057 46.3938 38.9274 45.7488 40.3015 45.7488C41.6756 45.7488 42.7973 46.3938 42.7973 47.1931Z" fill="#441F04"/>
<path d="M32.1416 49.885C32.1416 51.189 31.076 52.2547 29.772 52.2547C28.468 52.2547 27.4023 51.189 27.4023 49.885C27.4023 48.581 28.468 47.5154 29.772 47.5154C31.076 47.5154 32.1416 48.581 32.1416 49.885Z" fill="#FF6464"/>
<path d="M53.7061 49.885C53.7061 51.189 52.6404 52.2547 51.3364 52.2547C50.0324 52.2547 48.9668 51.189 48.9668 49.885C48.9668 48.581 50.0324 47.5154 51.3364 47.5154C52.6404 47.5154 53.7061 48.581 53.7061 49.885Z" fill="#FF6464"/>
<path d="M40.4981 48.4409H40.1055V52.0865H40.4981V48.4409Z" fill="#441F04"/>
<path d="M42.433 50.6703C42.433 50.6703 42.0404 52.1987 40.3298 52.1987C39.4044 52.1987 38.0303 51.6799 38.0303 50.5021C38.0303 50.5021 38.7594 51.5957 40.3298 51.5957C41.5497 51.5957 42.433 50.6703 42.433 50.6703Z" fill="#441F04"/>
</svg>
