<svg viewBox="0 0 80 80" fill="none" xmlns="http://www.w3.org/2000/svg">
<path d="M0 40C0 17.9086 17.9086 0 40 0C62.0914 0 80 17.9086 80 40C80 62.0914 62.0914 80 40 80C17.9086 80 0 62.0914 0 40Z" fill="#FFFAF7"/>
<path d="M48.3468 24.9146C48.3468 29.9262 50.6375 34.9251 39.2601 34.0013C29.7684 33.2293 30.1734 29.9388 30.1734 24.9146C30.1734 19.903 34.2359 15.8279 39.2601 15.8279C44.2844 15.8279 48.3468 19.903 48.3468 24.9146Z" fill="#FF5B00"/>
<path d="M61.8877 30.8501C61.8877 35.229 58.3315 38.7852 53.9526 38.7852C49.5738 38.7852 46.0176 35.229 46.0176 30.8501C46.0176 26.4713 49.5738 22.9151 53.9526 22.9151C58.3315 22.9151 61.8877 26.4713 61.8877 30.8501Z" fill="#FF5B00"/>
<path d="M70.0007 43.3538C70.0007 47.7326 66.4445 51.2888 62.0656 51.2888C57.6868 51.2888 54.7507 47.6946 54.1306 43.3538C53.308 37.5702 57.6868 35.4187 62.0656 35.4187C66.4571 35.4187 70.0007 38.9623 70.0007 43.3538Z" fill="#FF5B00"/>
<path d="M63.3688 56.2371C63.3688 60.6159 59.8126 64.1721 55.4338 64.1721C51.0549 64.1721 46.2205 61.0968 47.4987 56.2371C47.4987 51.8583 51.0549 48.302 55.4338 48.302C59.8253 48.302 63.3688 51.8583 63.3688 56.2371Z" fill="#FF5B00"/>
<path d="M32.6914 30.8501C34.0076 35.0138 29.1352 38.7852 24.7564 38.7852C20.3775 38.7852 16.8213 35.229 16.8213 30.8501C16.8213 26.4713 20.3775 22.9151 24.7564 22.9151C29.1479 22.9151 32.6914 26.4713 32.6914 30.8501Z" fill="#FF5B00"/>
<path d="M25.8701 43.3538C25.8701 47.7326 22.3139 51.2888 17.935 51.2888C13.5562 51.2888 10 47.7326 10 43.3538C10 38.9749 13.5562 35.4187 17.935 35.4187C22.3139 35.4187 25.8701 38.9623 25.8701 43.3538Z" fill="#FF5B00"/>
<path d="M32.501 56.2371C32.501 60.6159 28.9448 64.1721 24.5659 64.1721C20.1871 64.1721 16.6309 60.6159 16.6309 56.2371C16.6309 51.8583 20.1871 48.302 24.5659 48.302C28.9448 48.302 32.501 51.8583 32.501 56.2371Z" fill="#FF5B00"/>
<path d="M28.2624 36.1527C28.2624 37.9878 26.7817 39.4685 24.9466 39.4685C23.1116 39.4685 21.6309 37.9878 21.6309 36.1527C21.6309 34.3176 23.1116 32.8369 24.9466 32.8369C26.7817 32.8496 28.2624 34.3303 28.2624 36.1527Z" fill="#FFA300"/>
<path d="M27.0221 36.4565C27.0221 37.431 26.2248 38.2283 25.2503 38.2283C24.2758 38.2283 23.4785 37.431 23.4785 36.4565C23.4785 35.482 24.2758 34.6847 25.2503 34.6847C26.2248 34.6847 27.0221 35.4694 27.0221 36.4565Z" fill="#FFD843"/>
<path d="M50.6494 35.9755C50.6494 37.8106 52.1301 39.2913 53.9652 39.2913C55.8002 39.2913 57.281 37.8106 57.281 35.9755C57.281 34.1404 55.8002 32.6597 53.9652 32.6597C52.1301 32.6597 50.6494 34.1404 50.6494 35.9755Z" fill="#FFA300"/>
<path d="M51.8779 36.2667C51.8779 37.2412 52.6752 38.0385 53.6497 38.0385C54.6242 38.0385 55.4215 37.2412 55.4215 36.2667C55.4215 35.2922 54.6242 34.4949 53.6497 34.4949C52.6752 34.4949 51.8779 35.2922 51.8779 36.2667Z" fill="#FFD843"/>
<path d="M57.6867 48.7324C57.6867 57.3508 49.6124 62.084 39.6651 62.084C29.7051 62.084 21.6436 57.3508 21.6436 48.7324C21.6436 40.1139 29.7178 30.85 39.6651 30.85C49.625 30.85 57.6867 40.1013 57.6867 48.7324Z" fill="#FFA300"/>
<path d="M45.8401 56.2372C45.8401 58.5531 43.1445 60.4262 39.8161 60.4262C36.4876 60.4262 33.792 58.5531 33.792 56.2372C33.792 53.9212 36.4876 52.0482 39.8161 52.0482C43.1445 52.0482 45.8401 53.9212 45.8401 56.2372Z" fill="white"/>
<path d="M29.7425 50.8078C29.7425 51.8456 29.135 52.6935 28.3883 52.6935C27.6416 52.6935 27.0342 51.8456 27.0342 50.8078C27.0342 49.7701 27.6416 48.9221 28.3883 48.9221C29.135 48.9221 29.7425 49.7574 29.7425 50.8078Z" fill="#441F04"/>
<path d="M28.4633 49.9347C28.4633 50.365 28.2102 50.7193 27.9064 50.7193C27.5901 50.7193 27.3496 50.365 27.3496 49.9347C27.3496 49.5044 27.6027 49.1501 27.9064 49.1501C28.2102 49.1501 28.4633 49.5044 28.4633 49.9347Z" fill="white"/>
<path d="M51.9153 50.8078C51.9153 51.8456 51.3079 52.6935 50.5612 52.6935C49.8145 52.6935 49.207 51.8456 49.207 50.8078C49.207 49.7701 49.8145 48.9221 50.5612 48.9221C51.3079 48.9221 51.9153 49.7574 51.9153 50.8078Z" fill="#441F04"/>
<path d="M50.6371 49.9347C50.6371 50.365 50.384 50.7193 50.0803 50.7193C49.7765 50.7193 49.5234 50.365 49.5234 49.9347C49.5234 49.5044 49.7765 49.1501 50.0803 49.1501C50.384 49.1501 50.6371 49.5044 50.6371 49.9347Z" fill="white"/>
<path d="M31.1604 55.2626C31.1604 56.4396 30.1986 57.4014 29.0216 57.4014C27.8447 57.4014 26.8828 56.4396 26.8828 55.2626C26.8828 54.0856 27.8447 53.1238 29.0216 53.1238C30.1986 53.1238 31.1604 54.073 31.1604 55.2626Z" fill="#FFBDBD"/>
<path d="M52.8518 55.2626C52.8518 56.4396 51.89 57.4014 50.713 57.4014C49.536 57.4014 48.5742 56.4396 48.5742 55.2626C48.5742 54.0856 49.536 53.1238 50.713 53.1238C51.89 53.1238 52.8518 54.073 52.8518 55.2626Z" fill="#FFBDBD"/>
<path d="M39.8046 53.9466H39.4502V57.2497H39.8046V53.9466Z" fill="#441F04"/>
<path d="M41.5637 55.9714C41.5637 55.9714 41.2093 57.3508 39.6653 57.3508C38.8301 57.3508 37.5898 56.8826 37.5898 55.8195C37.5898 55.8195 38.2479 56.8067 39.6653 56.8067C40.7664 56.794 41.5637 55.9714 41.5637 55.9714Z" fill="#441F04"/>
<path d="M43.1064 52.643C41.3473 54.3136 38.8921 54.7692 36.2598 52.643C36.2598 49.5045 37.8417 45.2901 39.6388 45.2901C41.4359 45.2901 43.1064 49.5045 43.1064 52.643Z" fill="#FFD843"/>
<path d="M43.1074 52.6431C43.1074 53.3644 41.1458 54.8958 39.6777 54.8958C38.2097 54.8958 36.248 53.3518 36.248 52.6431C36.248 51.9217 38.0958 51.3395 39.5638 51.3395C41.0445 51.3395 43.1074 51.9217 43.1074 52.6431Z" fill="#441F04"/>
</svg>
