<svg viewBox="0 0 80 80" fill="none" xmlns="http://www.w3.org/2000/svg">
<path d="M0 40C0 17.9086 17.9086 0 40 0C62.0914 0 80 17.9086 80 40C80 62.0914 62.0914 80 40 80C17.9086 80 0 62.0914 0 40Z" fill="#FFBDBD"/>
<path d="M60.885 29.3666C57.8144 38.7975 52.3605 45.465 48.7051 44.2807C45.0497 43.0963 44.5672 34.4842 47.6231 25.0532C50.6937 15.6223 56.1475 8.94022 59.8029 10.1392C63.4583 11.3235 63.9409 19.9357 60.885 29.3666Z" fill="white"/>
<path d="M19.1252 29.3666C22.1957 38.7975 27.6496 45.4796 31.305 44.2807C34.9604 43.0963 35.4429 34.4842 32.387 25.0532C29.3164 15.6223 23.8626 8.94022 20.2072 10.1392C16.5372 11.3235 16.0546 19.9357 19.1252 29.3666Z" fill="white"/>
<path d="M22.59 30.5801C24.988 37.657 28.0439 43.0231 30.7928 42.102C33.5416 41.1662 32.7082 35.0543 30.3102 27.9629C27.9123 20.886 24.8564 15.5199 22.1075 16.441C19.3587 17.3768 20.1921 23.5033 22.59 30.5801Z" fill="#FFBDBD"/>
<path d="M49.4055 27.9192C46.9637 34.9814 46.0864 41.0932 48.8353 42.0436C51.5841 42.9941 54.6693 37.6425 57.1111 30.5803C59.5529 23.5181 60.4302 17.4062 57.6813 16.4558C54.9471 15.5054 51.8619 20.8569 49.4055 27.9192Z" fill="#FFBDBD"/>
<path d="M60.6423 57.6603C60.6423 67.6176 51.3138 73.0861 39.8212 73.0861C28.314 73.0861 19 67.6176 19 57.6603C19 47.703 28.3286 37 39.8212 37C51.3138 37 60.6423 47.6884 60.6423 57.6603Z" fill="white"/>
<path d="M28.5275 56.9722C28.5275 58.1711 27.8256 59.1508 26.9629 59.1508C26.1003 59.1508 25.3984 58.1711 25.3984 56.9722C25.3984 55.7732 26.1003 54.7936 26.9629 54.7936C27.8256 54.7936 28.5275 55.7732 28.5275 56.9722Z" fill="#441F04"/>
<path d="M27.0494 55.9632C27.0494 56.4603 26.757 56.8697 26.406 56.8697C26.0405 56.8697 25.7627 56.4603 25.7627 55.9632C25.7627 55.4661 26.0551 55.0567 26.406 55.0567C26.7716 55.0713 27.0494 55.4661 27.0494 55.9632Z" fill="white"/>
<path d="M54.1593 56.9722C54.1593 58.1711 53.4575 59.1508 52.5948 59.1508C51.7321 59.1508 51.0303 58.1711 51.0303 56.9722C51.0303 55.7732 51.7321 54.7936 52.5948 54.7936C53.4575 54.7936 54.1593 55.7732 54.1593 56.9722Z" fill="#441F04"/>
<path d="M52.6812 55.9632C52.6812 56.4603 52.3888 56.8697 52.0379 56.8697C51.6723 56.8697 51.3945 56.4603 51.3945 55.9632C51.3945 55.4661 51.687 55.0567 52.0379 55.0567C52.3888 55.0713 52.6812 55.4661 52.6812 55.9632Z" fill="white"/>
<path d="M42.5637 59.297C42.5637 60.1304 41.394 60.803 39.9611 60.803C38.5281 60.803 37.3584 60.1304 37.3584 59.297C37.3584 58.4636 38.5281 57.791 39.9611 57.791C41.394 57.791 42.5637 58.4636 42.5637 59.297Z" fill="#441F04"/>
<path d="M30.1648 62.1189C30.1648 63.4787 29.0535 64.59 27.6937 64.59C26.3339 64.59 25.2227 63.4787 25.2227 62.1189C25.2227 60.7591 26.3339 59.6479 27.6937 59.6479C29.0681 59.6479 30.1648 60.7445 30.1648 62.1189Z" fill="#FFBDBD"/>
<path d="M55.2253 62.1189C55.2253 63.4787 54.1141 64.59 52.7543 64.59C51.3944 64.59 50.2832 63.4787 50.2832 62.1189C50.2832 60.7591 51.3944 59.6479 52.7543 59.6479C54.1141 59.6479 55.2253 60.7445 55.2253 62.1189Z" fill="#FFBDBD"/>
<path d="M40.1653 60.6131H39.7559V64.4293H40.1653V60.6131Z" fill="#441F04"/>
<path d="M42.1839 62.9378C42.1839 62.9378 41.7745 64.5315 39.9907 64.5315C39.0257 64.5315 37.5928 63.9905 37.5928 62.7623C37.5928 62.7623 38.3531 63.9028 39.9907 63.9028C41.2774 63.8882 42.1839 62.9378 42.1839 62.9378Z" fill="#441F04"/>
</svg>
