<svg viewBox="0 0 80 80" fill="none" xmlns="http://www.w3.org/2000/svg">
<path d="M0 40C0 17.9086 17.9086 0 40 0V0C62.0914 0 80 17.9086 80 40V40C80 62.0914 62.0914 80 40 80V80C17.9086 80 0 62.0914 0 40V40Z" fill="#E4DCDC"/>
<path d="M52.6654 19.6687C49.5633 23.7158 53.9391 24.0445 58.0067 27.1466C62.0538 30.2486 64.2519 34.9531 67.354 30.906C70.4561 26.859 70.7642 16.279 68.6277 14.5534C65.0326 11.6978 55.7674 15.6011 52.6654 19.6687Z" fill="#8C8C8C"/>
<path d="M55.6223 22.1338C53.835 24.4758 56.3618 24.6607 58.7038 26.4685C61.0457 28.2558 62.3194 30.9881 64.1067 28.6461C65.894 26.3042 67.1266 20.7574 64.7847 18.9496C62.4427 17.1418 57.4095 19.7713 55.6223 22.1338Z" fill="#595959"/>
<path d="M27.3349 19.6687C30.437 23.7158 26.0612 24.0445 21.9936 27.1466C17.9465 30.2486 15.7483 34.9531 12.6463 30.906C9.54418 26.859 9.23603 16.279 11.3726 14.5534C14.9471 11.6978 24.2328 15.6011 27.3349 19.6687Z" fill="#8C8C8C"/>
<path d="M24.3549 22.1338C26.1422 24.4758 23.6154 24.6607 21.2734 26.4685C18.9314 28.2558 17.6577 30.9881 15.8705 28.6461C14.0832 26.3042 12.8505 20.7574 15.1925 18.9496C17.5345 17.1418 22.5676 19.7713 24.3549 22.1338Z" fill="#595959"/>
<path d="M10.9619 44.7524C10.9619 58.7426 24.0687 66.4259 40.2159 66.4259C56.3837 66.4259 69.4699 58.7426 69.4699 44.7524C69.4699 30.7623 56.3632 15.7244 40.2159 15.7244C24.0687 15.7244 10.9619 30.7623 10.9619 44.7524Z" fill="#8C8C8C"/>
<path d="M10.9619 44.7524C10.9619 58.7425 24.0687 66.4258 40.2159 66.4258C56.3837 66.4258 69.4699 58.7425 69.4699 44.7524C69.4699 30.7622 45.3723 35.7748 42.4141 50.6484C41.4485 50.6484 40.257 51.3879 37.8534 50.5251C37.1344 34.5011 10.9619 31.584 10.9619 44.7524Z" fill="white"/>
<path d="M31.1347 46.1288C31.8127 49.9089 24.9717 51.9016 22.1572 53.6272C20.3905 54.7161 17.9252 56.2979 15.5011 57.2635C12.625 53.9354 10.9404 49.7445 10.9404 44.7524C10.9404 44.4237 10.961 44.095 11.002 43.7663C17.3705 39.8014 29.7172 38.1374 31.1347 46.1288Z" fill="#666666"/>
<path d="M57.5346 53.6273C54.7201 51.9016 47.8997 49.9089 48.5571 46.1289C50.0362 37.7882 63.3895 39.9658 69.4498 44.28C69.4498 44.4238 69.4704 44.5881 69.4704 44.7319C69.4704 49.8473 67.7242 54.0998 64.7248 57.4484C62.1569 56.5445 59.4451 54.7983 57.5346 53.6273Z" fill="#666666"/>
<path d="M54.5342 47.7312C54.5342 49.6418 56.0339 51.1825 57.8828 51.1825C59.7317 51.1825 61.2314 49.6418 61.2314 47.7312C61.2314 45.8207 59.7317 44.2799 57.8828 44.2799C56.0339 44.2799 54.5342 45.8207 54.5342 47.7312Z" fill="white"/>
<path d="M55.499 48.1215C55.499 49.8266 56.5673 51.203 57.8615 51.203C59.1763 51.203 60.224 49.8266 60.224 48.1215C60.224 46.4164 59.1558 45.0194 57.8615 45.0194C56.5673 45.0399 55.499 46.4164 55.499 48.1215Z" fill="#441F04"/>
<path d="M57.7383 46.7041C57.7383 47.4026 58.1697 47.9778 58.7244 47.9778C59.2585 47.9778 59.7105 47.4026 59.7105 46.7041C59.7105 46.0056 59.2585 45.4304 58.7244 45.4304C58.1902 45.4304 57.7383 46.0056 57.7383 46.7041Z" fill="white"/>
<path d="M36.6211 51.3879C36.6211 52.5589 38.2646 53.5039 40.2778 53.5039C42.2911 53.5039 43.9346 52.5589 43.9346 51.3879C43.9346 50.217 42.2911 49.272 40.2778 49.272C38.244 49.2925 36.6211 50.2375 36.6211 51.3879Z" fill="#441F04"/>
<path d="M54.2891 56.9758C54.2891 58.8864 55.8504 60.4477 57.7609 60.4477C59.6715 60.4477 61.2328 58.8864 61.2328 56.9758C61.2328 55.0653 59.6715 53.5039 57.7609 53.5039C55.8504 53.5039 54.2891 55.0653 54.2891 56.9758Z" fill="#FFBDBD"/>
<path d="M19.0771 56.9758C19.0771 58.8864 20.6385 60.4477 22.549 60.4477C24.4596 60.4477 26.0209 58.8864 26.0209 56.9758C26.0209 55.0653 24.4596 53.5039 22.549 53.5039C20.6385 53.5039 19.0771 55.0653 19.0771 56.9758Z" fill="#FFBDBD"/>
<path d="M40.544 53.2368H39.9688V58.5781H40.544V53.2368Z" fill="#441F04"/>
<path d="M37.1338 56.5033C37.1338 56.5033 37.709 58.7426 40.2153 58.7426C41.5712 58.7426 43.5844 57.9825 43.5844 56.2568C43.5844 56.2568 42.5162 57.8592 40.2153 57.8592C38.428 57.8592 37.1338 56.5033 37.1338 56.5033Z" fill="#441F04"/>
<path d="M19.1992 47.7312C19.1992 49.6418 20.6989 51.1825 22.5478 51.1825C24.3967 51.1825 25.8964 49.6418 25.8964 47.7312C25.8964 45.8207 24.3967 44.2799 22.5478 44.2799C20.6989 44.2799 19.1992 45.8207 19.1992 47.7312Z" fill="white"/>
<path d="M20.1855 48.1215C20.1855 49.8266 21.2538 51.203 22.5481 51.203C23.8628 51.203 24.9106 49.8266 24.9106 48.1215C24.9106 46.4164 23.8423 45.0194 22.5481 45.0194C21.2333 45.0399 20.1855 46.4164 20.1855 48.1215Z" fill="#441F04"/>
<path d="M22.4043 46.7041C22.4043 47.4026 22.8357 47.9778 23.3904 47.9778C23.9245 47.9778 24.3765 47.4026 24.3765 46.7041C24.3765 46.0056 23.9245 45.4304 23.3904 45.4304C22.8563 45.4304 22.4043 46.0056 22.4043 46.7041Z" fill="white"/>
</svg>
