<svg viewBox="0 0 80 80" fill="none" xmlns="http://www.w3.org/2000/svg">
<path d="M0 40C0 17.9086 17.9086 0 40 0C62.0914 0 80 17.9086 80 40C80 62.0914 62.0914 80 40 80C17.9086 80 0 62.0914 0 40Z" fill="#FFF8DE"/>
<path d="M39.9114 29.174C43.338 29.174 46.1158 24.8817 46.1158 19.587C46.1158 14.2922 43.338 10 39.9114 10C36.4848 10 33.707 14.2922 33.707 19.587C33.707 24.8817 36.4848 29.174 39.9114 29.174Z" fill="#FF1D1D"/>
<path d="M51.7413 25.1402C50.059 28.3238 47.0201 30.0242 44.958 28.9207C42.8959 27.8354 42.6065 24.3624 44.2887 21.1788C45.971 17.9952 49.0099 16.2949 51.072 17.3983C53.116 18.4836 53.4235 21.9566 51.7413 25.1402Z" fill="#FF1D1D"/>
<path d="M35.679 21.4321C37.1623 24.7242 36.6196 28.1611 34.5033 29.1017C32.3869 30.0604 29.4565 28.1611 27.9914 24.887C26.5262 21.5949 27.0507 18.1581 29.1671 17.2174C31.2835 16.2587 34.1958 18.14 35.679 21.4321Z" fill="#FF1D1D"/>
<path d="M65.7586 50.9165C65.7586 63.2349 54.2181 70 40.0004 70C25.7647 70 14.2422 63.2349 14.2422 50.9165C14.2422 38.5981 25.7827 25.3573 40.0004 25.3573C54.2181 25.3753 65.7586 38.5981 65.7586 50.9165Z" fill="#FFD843"/>
<path d="M25.8007 53.883C25.8007 55.3663 24.9324 56.5782 23.8652 56.5782C22.7979 56.5782 21.9297 55.3663 21.9297 53.883C21.9297 52.3998 22.7979 51.1878 23.8652 51.1878C24.9324 51.1878 25.8007 52.3998 25.8007 53.883Z" fill="#441F04"/>
<path d="M23.9736 52.6532C23.9736 53.2682 23.6119 53.7747 23.1777 53.7747C22.7255 53.7747 22.3818 53.2682 22.3818 52.6532C22.3818 52.0381 22.7436 51.5317 23.1777 51.5317C23.6119 51.5317 23.9736 52.0381 23.9736 52.6532Z" fill="white"/>
<path d="M57.4911 53.883C57.4911 55.3663 56.6228 56.5782 55.5556 56.5782C54.4884 56.5782 53.6201 55.3663 53.6201 53.883C53.6201 52.3998 54.4884 51.1878 55.5556 51.1878C56.6228 51.1878 57.4911 52.3998 57.4911 53.883Z" fill="#441F04"/>
<path d="M55.6641 52.6532C55.6641 53.2682 55.3023 53.7747 54.8682 53.7747C54.416 53.7747 54.0723 53.2682 54.0723 52.6532C54.0723 52.0381 54.434 51.5317 54.8682 51.5317C55.3023 51.5317 55.6641 52.0381 55.6641 52.6532Z" fill="white"/>
<path d="M27.8269 60.2503C27.8269 61.9325 26.4521 63.3072 24.7699 63.3072C23.0876 63.3072 21.7129 61.9325 21.7129 60.2503C21.7129 58.568 23.0876 57.1933 24.7699 57.1933C26.4521 57.1933 27.8269 58.568 27.8269 60.2503Z" fill="#FFA6A6"/>
<path d="M58.8308 60.2503C58.8308 61.9325 57.456 63.3072 55.7738 63.3072C54.0915 63.3072 52.7168 61.9325 52.7168 60.2503C52.7168 58.568 54.0915 57.1933 55.7738 57.1933C57.456 57.1933 58.8308 58.568 58.8308 60.2503Z" fill="#FFA6A6"/>
<path d="M45.0838 54.697C45.0838 57.139 41.032 59.4 39.9828 59.4C39.2412 59.4 34.8818 57.157 34.8818 54.697C34.8818 53.0147 37.161 52.6349 39.9828 52.6349C42.8046 52.653 45.0838 53.0147 45.0838 54.697Z" fill="#FF7900"/>
<path d="M40.0009 67.7207C38.4091 67.7207 35.8586 65.9842 40.0009 60.7385C44.0708 65.6225 41.5927 67.7207 40.0009 67.7207Z" fill="#FF1D1D"/>
</svg>
