<svg viewBox="0 0 80 80" fill="none" xmlns="http://www.w3.org/2000/svg">
<path d="M0 40C0 17.9086 17.9086 0 40 0C62.0914 0 80 17.9086 80 40C80 62.0914 62.0914 80 40 80C17.9086 80 0 62.0914 0 40Z" fill="#E4DCDC"/>
<path d="M70.0004 43.7697C70.0004 58.1116 56.5641 65.9881 40.0109 65.9881C23.4367 65.9881 10.0215 58.1116 10.0215 43.7697C10.0215 29.4279 23.4578 14.0119 40.0109 14.0119C56.5852 14.033 70.0004 29.4279 70.0004 43.7697Z" fill="white"/>
<path d="M70 43.7697C70 53.5837 63.7241 60.365 54.4577 63.6715C71.3057 54.6157 62.8607 30.9231 54.2892 27.3219C43.696 22.8782 41.8217 32.0393 40.158 31.9761C38.9154 31.934 36.8305 22.4149 26.1109 27.3219C17.2868 31.3654 6.44086 49.0769 24.6367 63.3345C15.8757 59.9228 10 53.2678 10 43.7697C10 29.4279 23.4363 14.0119 39.9895 14.0119C56.5848 14.033 70 29.4279 70 43.7697Z" fill="#441F04"/>
<path d="M23.9629 47.3922C23.9629 49.1191 22.952 50.5301 21.7095 50.5301C20.4669 50.5301 19.4561 49.1191 19.4561 47.3922C19.4561 45.6652 20.4669 44.2542 21.7095 44.2542C22.952 44.2542 23.9629 45.6652 23.9629 47.3922Z" fill="#441F04"/>
<path d="M21.8343 45.9391C21.8343 46.6552 21.4131 47.2448 20.9077 47.2448C20.3812 47.2448 19.96 46.6552 19.96 45.9391C19.96 45.2231 20.3812 44.6334 20.9077 44.6334C21.4131 44.6544 21.8343 45.2231 21.8343 45.9391Z" fill="white"/>
<path d="M59.9336 47.3922C59.9336 49.1191 58.9227 50.5301 57.6802 50.5301C56.4376 50.5301 55.4268 49.1191 55.4268 47.3922C55.4268 45.6652 56.4376 44.2542 57.6802 44.2542C58.9227 44.2542 59.9336 45.6652 59.9336 47.3922Z" fill="#441F04"/>
<path d="M57.8079 45.9391C57.8079 46.6552 57.3867 47.2448 56.8813 47.2448C56.3548 47.2448 55.9336 46.6552 55.9336 45.9391C55.9336 45.2231 56.3548 44.6334 56.8813 44.6334C57.3867 44.6544 57.8079 45.2231 57.8079 45.9391Z" fill="white"/>
<path d="M26.3204 54.8052C26.3204 56.7638 24.7199 58.3643 22.7613 58.3643C20.8027 58.3643 19.2021 56.7638 19.2021 54.8052C19.2021 52.8466 20.8027 51.246 22.7613 51.246C24.7199 51.246 26.3204 52.8466 26.3204 54.8052Z" fill="#FFBDBD"/>
<path d="M61.4913 54.8052C61.4913 56.7638 59.8908 58.3643 57.9322 58.3643C55.9736 58.3643 54.373 56.7638 54.373 54.8052C54.373 52.8466 55.9736 51.246 57.9322 51.246C59.8908 51.246 61.4913 52.8466 61.4913 54.8052Z" fill="#FFBDBD"/>
<path d="M46.0116 48.445C46.0116 51.2881 41.2942 53.9206 40.0727 53.9206C39.2093 53.9206 34.1338 51.3092 34.1338 48.445C34.1338 46.4864 36.7874 46.0442 40.0727 46.0442C43.337 46.0442 46.0116 46.4654 46.0116 48.445Z" fill="#FFA300"/>
</svg>
