<svg viewBox="0 0 80 80" fill="none" xmlns="http://www.w3.org/2000/svg">
<path d="M0 40C0 17.9086 17.9086 0 40 0C62.0914 0 80 17.9086 80 40C80 62.0914 62.0914 80 40 80C17.9086 80 0 62.0914 0 40Z" fill="#E4DCDC"/>
<path d="M53.4876 30.5495C53.6629 35.0658 54.8088 40.1753 57.95 43.7749C58.6915 45.3388 60.3497 46.7544 62.0619 45.8241C63.5314 45.0287 64.0976 43.5727 63.9628 42.1032C65.3514 42.6829 66.9692 42.5211 67.859 40.9708C68.924 39.1103 68.4656 37.4386 67.3467 36.1039C68.5196 35.8612 69.5442 35.1332 69.8408 33.9064C70.5418 31.0483 68.8296 28.7295 66.4299 27.2869C62.8573 25.1434 55.739 24.6446 53.7572 29.1744C53.5685 29.3631 53.4741 30.2259 53.4876 30.5495Z" fill="#877E8E"/>
<path d="M54.7691 33.2053C55.8072 29.754 59.6225 29.7135 61.7526 31.1022C63.9366 32.5177 64.7186 34.5265 63.8018 36.8723C62.8851 39.245 60.0674 40.728 57.6272 39.6764C55.0118 38.5305 54.6478 33.5828 54.7691 33.2053Z" fill="#FFBDBD"/>
<path d="M26.242 29.1607C24.2737 24.6309 17.142 25.1297 13.5693 27.2733C11.1696 28.7158 9.45745 31.0347 10.1585 33.8928C10.4551 35.1196 11.4932 35.8476 12.6526 36.0903C11.5336 37.425 11.0752 39.1102 12.1403 40.9571C13.0301 42.5075 14.6479 42.6693 16.0365 42.0896C15.9016 43.5591 16.4679 45.0151 17.9374 45.8105C19.6495 46.7407 21.3078 45.3386 22.0493 43.7613C25.1905 40.1617 26.3499 35.0522 26.5117 30.5359C26.5386 30.1988 26.4442 29.3495 26.242 29.1607Z" fill="#877E8E"/>
<path d="M25.2447 33.1919C24.2067 29.7406 20.3914 29.7001 18.2613 31.0887C16.0773 32.5043 15.2953 34.5131 16.2121 36.8588C17.1288 39.2316 19.9465 40.7146 22.3866 39.663C25.0021 38.5171 25.3526 33.5693 25.2447 33.1919Z" fill="#FFBDBD"/>
<path d="M20.916 42.4132C20.916 51.5942 29.5173 56.6363 40.1138 56.6363C50.7238 56.6363 59.3116 51.5942 59.3116 42.4132C59.3116 33.2322 50.7103 23.3637 40.1138 23.3637C29.5173 23.3772 20.916 33.2322 20.916 42.4132Z" fill="#877E8E"/>
<path d="M50.1582 44.6377C50.1582 45.7567 50.8592 46.66 51.7086 46.66C52.5714 46.66 53.259 45.7567 53.259 44.6377C53.259 43.5187 52.5579 42.602 51.7086 42.602C50.8458 42.602 50.1582 43.5053 50.1582 44.6377Z" fill="#441F04"/>
<path d="M51.6143 43.694C51.6143 44.1524 51.8974 44.5299 52.2614 44.5299C52.6119 44.5299 52.9085 44.1524 52.9085 43.694C52.9085 43.2356 52.6119 42.8581 52.2614 42.8581C51.9109 42.8581 51.6143 43.2356 51.6143 43.694Z" fill="white"/>
<path d="M36.9727 43.3838C36.9727 46.0127 38.4287 48.1563 40.2217 48.1563C42.0148 48.1563 43.4708 46.0127 43.4708 43.3838C43.4708 40.7414 42.0148 38.6113 40.2217 38.6113C38.4287 38.6113 36.9727 40.7549 36.9727 43.3838Z" fill="#441F04"/>
<path d="M49.3486 49.2619C49.3486 50.5157 50.3732 51.5403 51.627 51.5403C52.8808 51.5403 53.9054 50.5157 53.9054 49.2619C53.9054 48.0081 52.8808 46.9835 51.627 46.9835C50.3732 46.9835 49.3486 48.0081 49.3486 49.2619Z" fill="#FFBDBD"/>
<path d="M26.2422 49.2619C26.2422 50.5157 27.2668 51.5403 28.5206 51.5403C29.7744 51.5403 30.799 50.5157 30.799 49.2619C30.799 48.0081 29.7744 46.9835 28.5206 46.9835C27.2668 46.9835 26.2422 48.0081 26.2422 49.2619Z" fill="#FFBDBD"/>
<path d="M40.3433 47.981H39.9658V51.4862H40.3433V47.981Z" fill="#441F04"/>
<path d="M38.1055 50.1246C38.1055 50.1246 38.483 51.5941 40.1277 51.5941C41.0175 51.5941 42.3387 51.0953 42.3387 49.9628C42.3387 49.9628 41.6376 51.0144 40.1277 51.0144C38.9548 51.0144 38.1055 50.1246 38.1055 50.1246Z" fill="#441F04"/>
<path d="M26.9697 44.6377C26.9697 45.7567 27.6708 46.66 28.5201 46.66C29.3829 46.66 30.0705 45.7567 30.0705 44.6377C30.0705 43.5187 29.3694 42.602 28.5201 42.602C27.6708 42.602 26.9697 43.5053 26.9697 44.6377Z" fill="#441F04"/>
<path d="M28.4404 43.694C28.4404 44.1524 28.7235 44.5299 29.0875 44.5299C29.4381 44.5299 29.7347 44.1524 29.7347 43.694C29.7347 43.2356 29.4381 42.8581 29.0875 42.8581C28.7235 42.8581 28.4404 43.2356 28.4404 43.694Z" fill="white"/>
</svg>
