<svg viewBox="0 0 80 80" fill="none" xmlns="http://www.w3.org/2000/svg">
<path d="M0 40C0 17.9086 17.9086 0 40 0C62.0914 0 80 17.9086 80 40C80 62.0914 62.0914 80 40 80C17.9086 80 0 62.0914 0 40Z" fill="#FFEED0"/>
<path d="M27.1702 19.8606C30.2429 23.8692 25.9086 24.1948 21.8796 27.2674C17.871 30.34 15.6937 34.9998 12.6211 30.9912C9.54851 26.9825 9.24329 16.5031 11.3595 14.7938C14.9002 11.9654 24.0976 15.8519 27.1702 19.8606Z" fill="#C14E00"/>
<path d="M24.2205 22.3024C25.9908 24.6221 23.488 24.8052 21.1682 26.5959C18.8485 28.3662 17.5869 31.0726 15.8166 28.7528C14.0463 26.4331 12.8254 20.939 15.1451 19.1484C17.4648 17.3577 22.4502 19.9827 24.2205 22.3024Z" fill="#FFBDBD"/>
<path d="M52.8292 19.8606C49.7566 23.8692 54.0908 24.1948 58.1198 27.2674C62.1285 30.34 64.3057 34.9998 67.3784 30.9912C70.451 26.9825 70.7562 16.5031 68.6399 14.7938C65.079 11.9654 55.9018 15.8519 52.8292 19.8606Z" fill="#C14E00"/>
<path d="M55.7601 22.3024C53.9898 24.6221 56.4926 24.8052 58.8123 26.5959C61.1321 28.3866 62.3937 31.0726 64.164 28.7528C65.9343 26.4331 67.1552 20.939 64.8355 19.1484C62.5361 17.3577 57.5507 19.9827 55.7601 22.3024Z" fill="#FFBDBD"/>
<path d="M69.048 44.7059C69.048 58.5632 56.0657 66.1735 40.0719 66.1735C24.0577 66.1735 11.0957 58.5632 11.0957 44.7059C11.0957 30.8486 24.078 15.9536 40.0719 15.9536C56.0657 15.9739 69.048 30.8486 69.048 44.7059Z" fill="#FFA300"/>
<path d="M69.048 44.7059C69.048 58.5632 56.0657 66.1735 40.0719 66.1735C24.0577 66.1735 11.0957 58.5632 11.0957 44.7059C11.0957 30.8486 34.9644 35.8137 37.8946 50.5459C38.851 50.5459 40.0312 51.2785 42.4119 50.4238C43.1241 34.5521 69.048 31.6829 69.048 44.7059Z" fill="white"/>
<path d="M24.0977 48.0634C24.0977 49.732 23.121 51.0953 21.9205 51.0953C20.7199 51.0953 19.7432 49.732 19.7432 48.0634C19.7432 46.3948 20.7199 45.0315 21.9205 45.0315C23.121 45.0315 24.0977 46.3745 24.0977 48.0634Z" fill="#441F04"/>
<path d="M22.0434 46.6594C22.0434 47.3513 21.6365 47.921 21.1481 47.921C20.6394 47.921 20.2324 47.3513 20.2324 46.6594C20.2324 45.9676 20.6394 45.3978 21.1481 45.3978C21.6365 45.3978 22.0434 45.9676 22.0434 46.6594Z" fill="white"/>
<path d="M59.7481 48.0634C59.7481 49.732 58.7714 51.0953 57.5708 51.0953C56.3703 51.0953 55.3936 49.732 55.3936 48.0634C55.3936 46.3948 56.3703 45.0315 57.5708 45.0315C58.7714 45.0315 59.7481 46.3745 59.7481 48.0634Z" fill="#441F04"/>
<path d="M57.691 46.6594C57.691 47.3513 57.2841 47.921 56.7957 47.921C56.287 47.921 55.9004 47.3513 55.9004 46.6594C55.9004 45.9676 56.3074 45.3978 56.7957 45.3978C57.2841 45.3978 57.691 45.9676 57.691 46.6594Z" fill="white"/>
<path d="M43.6327 51.2989C43.6327 52.4588 42.0048 53.3948 40.0107 53.3948C38.0166 53.3948 36.3887 52.4588 36.3887 51.2989C36.3887 50.139 38.0166 49.203 40.0107 49.203C42.0048 49.203 43.6327 50.139 43.6327 51.2989Z" fill="#441F04"/>
<path d="M26.3768 55.2261C26.3768 57.1185 24.8303 58.665 22.9379 58.665C21.0455 58.665 19.499 57.1185 19.499 55.2261C19.499 53.3337 21.0455 51.7873 22.9379 51.7873C24.8303 51.7873 26.3768 53.3134 26.3768 55.2261Z" fill="#FFBDBD"/>
<path d="M61.2547 55.2261C61.2547 57.1185 59.7082 58.665 57.8158 58.665C55.9234 58.665 54.377 57.1185 54.377 55.2261C54.377 53.3337 55.9234 51.7872 57.8158 51.7872C59.7082 51.7669 61.2547 53.3134 61.2547 55.2261Z" fill="#FFBDBD"/>
<path d="M40.2944 53.1099H39.7246V58.4005H40.2944V53.1099Z" fill="#441F04"/>
<path d="M43.1033 56.3452C43.1033 56.3452 42.5335 58.5632 40.051 58.5632C38.708 58.5632 36.7139 57.8103 36.7139 56.101C36.7139 56.101 37.772 57.6882 40.051 57.6882C41.8213 57.6882 43.1033 56.3452 43.1033 56.3452Z" fill="#441F04"/>
</svg>
