<svg viewBox="0 0 80 80" fill="none" xmlns="http://www.w3.org/2000/svg">
<path d="M0 40C0 17.9086 17.9086 0 40 0V0C62.0914 0 80 17.9086 80 40V40C80 62.0914 62.0914 80 40 80V80C17.9086 80 0 62.0914 0 40V40Z" fill="#FFE7C9"/>
<path d="M34.3247 31.9938C34.8392 33.087 34.3729 34.4053 33.2797 34.9198C32.1865 35.4342 30.8681 34.968 30.3537 33.8748L20.5306 13.1354C20.0161 12.0421 20.4824 10.7238 21.5756 10.2093C22.6688 9.69487 23.9872 10.1611 24.5016 11.2543L34.3247 31.9938Z" fill="#722E00"/>
<path d="M29.4063 21.608C28.9401 22.6852 28.3291 21.2704 27.252 20.8042C26.1748 20.3379 25.6764 19.1 26.1427 18.0228L28.4738 12.5727C28.9401 11.4955 30.178 10.9971 31.2552 11.4634C32.3323 11.9296 32.8307 13.1676 32.3645 14.2447L29.4063 21.608Z" fill="#722E00"/>
<path d="M26.5442 23.0228C27.6213 23.4569 30.1454 26.0292 29.7113 27.1064C29.7113 27.1064 29.422 29.0196 24.9686 26.9617L19.4542 24.7431C18.377 24.309 17.8465 23.0711 18.2806 21.9939C18.7146 20.9007 19.9526 20.3862 21.0297 20.8203L26.5442 23.0228Z" fill="#722E00"/>
<path d="M44.1966 31.9938C43.6821 33.087 44.1484 34.4053 45.2416 34.9198C46.3349 35.4342 47.6532 34.968 48.1676 33.8748L57.9907 13.1354C58.5052 12.0421 58.039 10.7238 56.9457 10.2093C55.8525 9.69487 54.5342 10.1611 54.0197 11.2543L44.1966 31.9938Z" fill="#722E00"/>
<path d="M49.0999 21.608C49.5661 22.6852 50.177 21.2704 51.2542 20.8042C52.3314 20.3379 52.8298 19.1 52.3635 18.0228L50.0323 12.5727C49.5661 11.4955 48.3282 10.9971 47.251 11.4634C46.1738 11.9296 45.6755 13.1676 46.1417 14.2447L49.0999 21.608Z" fill="#722E00"/>
<path d="M51.9622 23.0228C50.869 23.4569 48.361 26.0292 48.7951 27.1064C48.7951 27.1064 49.0844 29.0196 53.5378 26.9617L59.0522 24.7591C60.1455 24.3251 60.6599 23.0871 60.2259 22.01C59.7918 20.9167 58.5538 20.4023 57.4767 20.8363L51.9622 23.0228Z" fill="#722E00"/>
<path d="M26.7524 39.6625C25.2411 42.5724 21.6559 43.6978 18.746 42.1866C15.836 40.6753 12.8779 34.3892 14.4052 31.4793C15.9164 28.5693 21.3344 30.1609 24.2283 31.6722C27.1382 33.1674 28.2636 36.7525 26.7524 39.6625Z" fill="#C28241"/>
<path d="M24.5348 39.2767C23.7471 40.7879 21.8982 41.3667 20.3869 40.5789C18.8757 39.7911 16.7214 36.3346 17.4931 34.8394C18.2808 33.3282 21.7053 34.3571 23.2165 35.1288C24.7278 35.9166 25.3226 37.7815 24.5348 39.2767Z" fill="#FFBDBD"/>
<path d="M53.2474 39.6625C54.7587 42.5724 58.3438 43.6978 61.2538 42.1866C64.1637 40.6753 67.1219 34.3892 65.5946 31.4793C64.0834 28.5693 58.6654 30.1609 55.7715 31.6722C52.8616 33.1674 51.7362 36.7525 53.2474 39.6625Z" fill="#C28241"/>
<path d="M55.4646 39.2767C56.2524 40.7879 58.1013 41.3667 59.6125 40.5789C61.1237 39.7911 63.2781 36.3346 62.5064 34.8394C61.7186 33.3282 58.2942 34.3571 56.7829 35.1288C55.2556 35.9166 54.6768 37.7815 55.4646 39.2767Z" fill="#FFBDBD"/>
<path d="M62.9579 53.0386C62.9579 63.987 52.7007 69.9999 40.0641 69.9999C27.4115 69.9999 17.1543 63.987 17.1543 53.0386C17.1543 42.0901 27.4115 30.3217 40.048 30.3217C52.7007 30.3217 62.9579 42.074 62.9579 53.0386Z" fill="#C28241"/>
<path d="M62.9569 53.0387C62.9569 63.9871 52.6997 70 40.0631 70C27.4105 70 17.1533 63.9871 17.1533 53.0387C19.7739 41.013 34.4683 45.0001 40.0149 58.2315C42.2175 47.4599 59.3074 41.4471 62.9569 53.0387Z" fill="#FFCA85"/>
<path d="M27.459 55.6754C27.459 56.9937 26.6873 58.0709 25.7388 58.0709C24.7903 58.0709 24.0186 56.9937 24.0186 55.6754C24.0186 54.3571 24.7903 53.2799 25.7388 53.2799C26.6873 53.2799 27.459 54.3571 27.459 55.6754Z" fill="#441F04"/>
<path d="M25.8371 54.582C25.8371 55.1286 25.5156 55.5788 25.1297 55.5788C24.7278 55.5788 24.4062 55.1286 24.4062 54.582C24.4062 54.0354 24.7278 53.5852 25.1297 53.5852C25.5156 53.5852 25.8371 54.0193 25.8371 54.582Z" fill="white"/>
<path d="M55.626 55.6754C55.626 56.9937 54.8543 58.0709 53.9058 58.0709C52.9572 58.0709 52.1855 56.9937 52.1855 55.6754C52.1855 54.3571 52.9572 53.2799 53.9058 53.2799C54.8543 53.2799 55.626 54.3571 55.626 55.6754Z" fill="#441F04"/>
<path d="M54.0017 54.582C54.0017 55.1286 53.6801 55.5788 53.2943 55.5788C52.8924 55.5788 52.5869 55.1286 52.5869 54.582C52.5869 54.0354 52.9084 53.5852 53.2943 53.5852C53.6801 53.5852 54.0017 54.0193 54.0017 54.582Z" fill="white"/>
<path d="M42.8768 58.2317C42.8768 59.1481 41.5906 59.8877 40.015 59.8877C38.4395 59.8877 37.1533 59.1481 37.1533 58.2317C37.1533 57.3153 38.4395 56.5758 40.015 56.5758C41.6067 56.5758 42.8768 57.3153 42.8768 58.2317Z" fill="#441F04"/>
<path d="M29.2426 61.3344C29.2426 62.8296 28.0208 64.0515 26.5256 64.0515C25.0304 64.0515 23.8086 62.8296 23.8086 61.3344C23.8086 59.8393 25.0304 58.6174 26.5256 58.6174C28.0369 58.6174 29.2426 59.8393 29.2426 61.3344Z" fill="#FF6464"/>
<path d="M56.7993 61.3344C56.7993 62.8296 55.5774 64.0515 54.0823 64.0515C52.5871 64.0515 51.3652 62.8296 51.3652 61.3344C51.3652 59.8393 52.5871 58.6174 54.0823 58.6174C55.5935 58.6174 56.7993 59.8393 56.7993 61.3344Z" fill="#FF6464"/>
<path d="M40.2402 59.6786H39.79V63.8586H40.2402V59.6786Z" fill="#441F04"/>
<path d="M42.4584 62.2348C42.4584 62.2348 42.0082 63.9872 40.0468 63.9872C38.9857 63.9872 37.4102 63.3924 37.4102 62.0419C37.4102 62.0419 38.2462 63.2959 40.0468 63.2959C41.4616 63.2959 42.4584 62.2348 42.4584 62.2348Z" fill="#441F04"/>
</svg>
