<svg viewBox="0 0 80 80" fill="none" xmlns="http://www.w3.org/2000/svg">
<path d="M0 40C0 17.9086 17.9086 0 40 0C62.0914 0 80 17.9086 80 40C80 62.0914 62.0914 80 40 80C17.9086 80 0 62.0914 0 40Z" fill="#ECF9D2"/>
<path d="M70 45.5302C70 59.8771 56.559 67.7563 40 67.7563C23.4199 67.7563 10 59.8771 10 45.5302C10 31.1833 23.441 15.762 40 15.762C56.5801 15.762 70 31.1622 70 45.5302Z" fill="#7CBC00"/>
<path d="M29.4023 31.415C29.4023 33.7956 27.4641 35.7338 25.0835 35.7338C22.7029 35.7338 20.7646 33.7956 20.7646 31.415C20.7646 29.0344 22.7029 27.0962 25.0835 27.0962C27.4641 27.0962 29.4023 29.0344 29.4023 31.415Z" fill="#FFBDBD"/>
<path d="M58.8134 31.6467C58.8134 34.0273 56.8752 35.9656 54.4946 35.9656C52.114 35.9656 50.1758 34.0273 50.1758 31.6467C50.1758 29.2661 52.114 27.3279 54.4946 27.3279C56.8752 27.3279 58.8134 29.2661 58.8134 31.6467Z" fill="#FFBDBD"/>
<path d="M48.9739 29.835C48.9739 29.835 47.5202 36.1552 40.4837 36.3448C36.6705 36.429 30.9823 34.4276 30.877 29.5821C30.877 29.5821 33.9949 34.0063 40.4416 33.8378C45.4345 33.7324 48.9739 29.835 48.9739 29.835Z" fill="#407C00"/>
<path d="M28.0116 20.0175C28.0116 24.3153 24.5355 27.7914 20.2377 27.7914C15.94 27.7914 12.4639 24.3153 12.4639 20.0175C12.4639 15.7198 15.94 12.2437 20.2377 12.2437C24.5355 12.2437 28.0116 15.7198 28.0116 20.0175Z" fill="#7CBC00"/>
<path d="M16.1082 22.2718C17.3933 24.6314 20.3006 25.5162 22.5759 24.2732C24.8512 23.0302 25.6728 20.1019 24.3666 17.7423C23.0815 15.3828 20.1742 14.4979 17.8989 15.7409C15.6236 16.9839 14.8231 19.9123 16.1082 22.2718Z" fill="white"/>
<path d="M17.3101 21.6187C18.216 23.262 20.2385 23.8729 21.8607 22.9881C23.4829 22.1033 24.0728 20.0597 23.1669 18.4164C22.261 16.7732 20.2385 16.1622 18.6163 17.0471C17.0152 17.9319 16.4253 19.9754 17.3101 21.6187Z" fill="#441F04"/>
<path d="M19.334 18.7327C19.7133 19.4068 20.5559 19.6597 21.2301 19.3015C21.9043 18.9434 22.136 18.0796 21.7779 17.4054C21.3986 16.7313 20.5559 16.4785 19.8818 16.8366C19.2076 17.2158 18.9548 18.0585 19.334 18.7327Z" fill="white"/>
<path d="M66.3124 20.0175C66.3124 24.3153 62.8363 27.7914 58.5385 27.7914C54.2408 27.7914 50.7646 24.3153 50.7646 20.0175C50.7646 15.7198 54.2408 12.2437 58.5385 12.2437C62.8152 12.2437 66.3124 15.7198 66.3124 20.0175Z" fill="#7CBC00"/>
<path d="M54.3885 22.2718C55.6736 24.6314 58.5809 25.5162 60.8562 24.2732C63.1315 23.0302 63.9531 20.1019 62.6469 17.7423C61.3618 15.3828 58.4545 14.4979 56.1792 15.7409C53.9039 16.9839 53.1034 19.9123 54.3885 22.2718Z" fill="white"/>
<path d="M55.6109 21.6187C56.5168 23.262 58.5393 23.8729 60.1615 22.9881C61.7836 22.1033 62.3736 20.0597 61.4677 18.4164C60.5618 16.7732 58.5393 16.1622 56.9171 17.0471C55.2949 17.9319 54.705 19.9754 55.6109 21.6187Z" fill="#441F04"/>
<path d="M57.6118 18.7327C57.991 19.4068 58.8337 19.6597 59.5079 19.3015C60.182 18.9434 60.4138 18.0796 60.0556 17.4054C59.6764 16.7313 58.8337 16.4785 58.1595 16.8366C57.4854 17.2158 57.2537 18.0585 57.6118 18.7327Z" fill="white"/>
</svg>
