<svg viewBox="0 0 80 80" fill="none" xmlns="http://www.w3.org/2000/svg">
<path d="M0 40C0 17.9086 17.9086 0 40 0C62.0914 0 80 17.9086 80 40C80 62.0914 62.0914 80 40 80C17.9086 80 0 62.0914 0 40Z" fill="#E4DCDC"/>
<path d="M31.9093 21.0734C33.7633 26.3402 29.0863 25.1815 23.8194 27.0355C18.5526 28.8894 15.8138 34.8725 13.981 29.6057C12.127 24.3388 13.2857 11.572 17.0568 10.329C21.818 8.79107 30.0554 15.8065 31.9093 21.0734Z" fill="#595959"/>
<path d="M27.991 22.6323C29.0654 25.6871 26.3688 25.0129 23.314 26.0874C20.2592 27.1618 18.9741 30.2587 17.8997 27.225C16.8253 24.1702 17.1623 16.8809 19.5219 16.2067C22.05 15.4904 26.9166 19.5986 27.991 22.6323Z" fill="#FFBDBD"/>
<path d="M48.2583 21.0734C46.4044 26.3402 51.0814 25.1815 56.3482 27.0355C61.6151 28.8894 64.3538 34.8725 66.1867 29.6057C68.0406 24.3388 66.8819 11.572 63.1108 10.329C58.3496 8.79107 50.1123 15.8065 48.2583 21.0734Z" fill="#595959"/>
<path d="M52.1761 22.6323C51.1017 25.6871 53.7983 25.0129 56.8531 26.0874C59.9079 27.1618 61.193 30.2587 62.2674 27.225C63.3418 24.1702 63.0048 16.8809 60.6452 16.2067C58.1171 15.4904 53.2505 19.5986 52.1761 22.6323Z" fill="#FFBDBD"/>
<path d="M70 47.6394C70 61.9864 56.559 69.8656 40 69.8656C23.4199 69.8656 10 61.9864 10 47.6394C10 33.2925 23.441 17.8712 40 17.8712C56.559 17.8923 70 33.2925 70 47.6394Z" fill="#8C8C8C"/>
<path d="M69.0518 53.9175C65.7232 64.2827 53.9676 69.8866 39.9999 69.8866C26.3271 69.8866 14.7822 64.5144 11.1586 54.5706C9.89453 40.94 35.4914 42.6254 37.7246 59.4582C38.7147 59.4582 39.9367 60.2166 42.4016 59.3318C43.181 42.8782 70.8847 42.7728 69.0518 53.9175Z" fill="white"/>
<path d="M23.483 51.1154C23.483 52.8429 22.4718 54.2545 21.2288 54.2545C19.9859 54.2545 18.9746 52.8429 18.9746 51.1154C18.9746 49.3879 19.9859 47.9764 21.2288 47.9764C22.4718 47.9764 23.483 49.3668 23.483 51.1154Z" fill="#441F04"/>
<path d="M21.3555 49.6617C21.3555 50.378 20.9341 50.9679 20.4285 50.9679C19.9018 50.9679 19.4805 50.378 19.4805 49.6617C19.4805 48.9454 19.9018 48.3555 20.4285 48.3555C20.9341 48.3555 21.3555 48.9454 21.3555 49.6617Z" fill="white"/>
<path d="M60.3941 51.1154C60.3941 52.8429 59.3829 54.2545 58.1399 54.2545C56.897 54.2545 55.8857 52.8429 55.8857 51.1154C55.8857 49.3879 56.897 47.9764 58.1399 47.9764C59.3829 47.9764 60.3941 49.3668 60.3941 51.1154Z" fill="#441F04"/>
<path d="M58.266 49.6617C58.266 50.378 57.8447 50.9679 57.3391 50.9679C56.8334 50.9679 56.4121 50.378 56.4121 49.6617C56.4121 48.9454 56.8334 48.3555 57.3391 48.3555C57.8447 48.3555 58.266 48.9454 58.266 49.6617Z" fill="white"/>
<path d="M25.8434 58.5312C25.8434 60.4905 24.2423 62.0916 22.2831 62.0916C20.3238 62.0916 18.7227 60.4905 18.7227 58.5312C18.7227 56.5719 20.3238 54.9708 22.2831 54.9708C24.2423 54.9708 25.8434 56.5509 25.8434 58.5312Z" fill="#FFBDBD"/>
<path d="M61.9304 58.5312C61.9304 60.4905 60.3292 62.0916 58.37 62.0916C56.4107 62.0916 54.8096 60.4905 54.8096 58.5312C54.8096 56.5719 56.4107 54.9708 58.37 54.9708C60.3503 54.9708 61.9304 56.5509 61.9304 58.5312Z" fill="#FFBDBD"/>
<path d="M43.6865 60.2167C43.6865 61.4176 42.0011 62.3867 39.9365 62.3867C37.8719 62.3867 36.1865 61.4176 36.1865 60.2167C36.1865 59.0159 37.8719 58.0468 39.9365 58.0468C42.0222 58.0468 43.6865 59.0159 43.6865 60.2167Z" fill="#441F04"/>
<path d="M40.2305 62.0916H39.6406V67.5691H40.2305V62.0916Z" fill="#441F04"/>
<path d="M43.1591 65.4413C43.1591 65.4413 42.5692 67.7377 39.999 67.7377C38.6086 67.7377 36.5439 66.9582 36.5439 65.1885C36.5439 65.1885 37.6395 66.8318 39.999 66.8318C41.8319 66.8318 43.1591 65.4413 43.1591 65.4413Z" fill="#441F04"/>
</svg>
