<svg viewBox="0 0 80 80" fill="none" xmlns="http://www.w3.org/2000/svg">
<path d="M0 40C0 17.9086 17.9086 0 40 0C62.0914 0 80 17.9086 80 40C80 62.0914 62.0914 80 40 80C17.9086 80 0 62.0914 0 40Z" fill="#E4DCDC"/>
<path d="M24.4341 30.6096C24.4341 33.0208 18.5948 34.9891 15.5276 34.9891C12.4768 34.9891 10 33.0372 10 30.6096C10 28.1985 12.4768 26.2302 15.5276 26.2302C18.5948 26.2302 24.4341 28.1821 24.4341 30.6096Z" fill="#FFE2D7"/>
<path d="M55.5664 30.6096C55.5664 33.0208 61.4056 34.9891 64.4729 34.9891C67.5237 34.9891 70.0005 33.0372 70.0005 30.6096C70.0005 28.1985 67.5237 26.2302 64.4729 26.2302C61.4056 26.2302 55.5664 28.1821 55.5664 30.6096Z" fill="#FFE2D7"/>
<path d="M63.3077 47.3729C63.3077 58.5429 52.843 64.6774 39.9507 64.6774C27.0421 64.6774 16.5938 58.5429 16.5938 47.3729C16.5938 36.2029 27.0585 24.1963 39.9507 24.1963C52.843 24.2127 63.3077 36.2029 63.3077 47.3729Z" fill="#FFE2D7"/>
<path d="M26.8285 50.0793C26.8285 51.4243 26.0412 52.5233 25.0734 52.5233C24.1057 52.5233 23.3184 51.4243 23.3184 50.0793C23.3184 48.7343 24.1057 47.6354 25.0734 47.6354C26.0412 47.6354 26.8285 48.7179 26.8285 50.0793Z" fill="#441F04"/>
<path d="M25.1719 48.9474C25.1719 49.5051 24.8439 49.9644 24.4502 49.9644C24.0402 49.9644 23.7285 49.5051 23.7285 48.9474C23.7285 48.3897 24.0566 47.9305 24.4502 47.9305C24.8439 47.9305 25.1719 48.3897 25.1719 48.9474Z" fill="white"/>
<path d="M55.5658 50.0793C55.5658 51.4243 54.7785 52.5233 53.8107 52.5233C52.843 52.5233 52.0557 51.4243 52.0557 50.0793C52.0557 48.7343 52.843 47.6354 53.8107 47.6354C54.7785 47.6354 55.5658 48.7179 55.5658 50.0793Z" fill="#441F04"/>
<path d="M53.9102 48.9474C53.9102 49.5051 53.5822 49.9644 53.1885 49.9644C52.7784 49.9644 52.4668 49.5051 52.4668 48.9474C52.4668 48.3897 52.7948 47.9305 53.1885 47.9305C53.5822 47.9305 53.9102 48.3897 53.9102 48.9474Z" fill="white"/>
<path d="M28.6495 55.8529C28.6495 57.3784 27.4029 58.6249 25.8775 58.6249C24.352 58.6249 23.1055 57.3784 23.1055 55.8529C23.1055 54.3275 24.352 53.0809 25.8775 53.0809C27.4193 53.0809 28.6495 54.3111 28.6495 55.8529Z" fill="#FF9494"/>
<path d="M56.7627 55.8529C56.7627 57.3784 55.5162 58.6249 53.9907 58.6249C52.4653 58.6249 51.2188 57.3784 51.2188 55.8529C51.2188 54.3275 52.4653 53.0809 53.9907 53.0809C55.5326 53.0809 56.7627 54.3111 56.7627 55.8529Z" fill="#FF9494"/>
<path d="M42.5902 53.0809C42.5902 54.0159 41.278 54.7704 39.6706 54.7704C38.0632 54.7704 36.751 54.0159 36.751 53.0809C36.751 52.146 38.0632 51.3915 39.6706 51.3915C41.278 51.3915 42.5902 52.146 42.5902 53.0809Z" fill="#441F04"/>
<path d="M39.8655 54.1471H39.4062V58.4281H39.8655V54.1471Z" fill="#441F04"/>
<path d="M42.1298 56.755C42.1298 56.755 41.6706 58.5429 39.6695 58.5429C38.5869 58.5429 36.9795 57.936 36.9795 56.5582C36.9795 56.5582 37.8324 57.8376 39.6695 57.8376C41.1129 57.8376 42.1298 56.755 42.1298 56.755Z" fill="#441F04"/>
<path d="M54.4018 27.8376C54.4674 27.8048 54.533 27.772 54.5987 27.7392C57.0754 26.3286 58.0924 23.4254 56.8458 21.2439C55.6156 19.0624 52.5976 18.4391 50.1208 19.8497C49.6943 20.0957 49.3171 20.3746 48.989 20.6862C47.6769 17.5533 44.1667 15.3226 40.0498 15.3226C35.8672 15.3226 32.3078 17.6354 31.0449 20.8338C30.684 20.4566 30.2411 20.1285 29.7655 19.8497C27.2887 18.4391 24.2707 19.0624 23.0405 21.2439C21.8103 23.4254 22.8109 26.3286 25.2876 27.7392C25.3532 27.772 25.4188 27.8048 25.4844 27.8376C24.1066 28.6906 23.3685 30.0027 23.7458 31.1017C24.2215 32.4795 26.3046 33.0208 28.4041 32.2827C28.9289 32.1022 29.4046 31.8562 29.8147 31.5774C29.7655 32.053 29.7819 32.5615 29.8803 33.0536C30.4708 35.9076 33.5544 37.6791 36.7529 37.0066C38.0815 36.7277 39.2132 36.088 40.0498 35.2187C40.8863 36.088 42.018 36.7277 43.3466 37.0066C46.5451 37.6791 49.6287 35.9076 50.2192 33.0536C50.3176 32.6107 50.334 32.1679 50.3012 31.7414C50.6621 31.9546 51.0557 32.1515 51.4822 32.2991C53.5653 33.0208 55.6484 32.4959 56.1405 31.1181C56.5177 30.0027 55.7796 28.6906 54.4018 27.8376Z" fill="white"/>
</svg>
