<svg viewBox="0 0 80 80" fill="none" xmlns="http://www.w3.org/2000/svg">
<path d="M0 40C0 17.9086 17.9086 0 40 0C62.0914 0 80 17.9086 80 40C80 62.0914 62.0914 80 40 80C17.9086 80 0 62.0914 0 40Z" fill="#FFEAD7"/>
<path d="M68.2208 44.6575C68.2208 58.022 55.7001 65.3617 40.2749 65.3617C24.8301 65.3617 12.3291 58.022 12.3291 44.6575C12.3291 31.2929 24.8498 16.9275 40.2749 16.9275C55.7001 16.9471 68.2208 31.2929 68.2208 44.6575Z" fill="#C28241"/>
<path d="M49.6761 55.6474C49.6761 59.2388 45.496 62.1433 40.3346 62.1433C35.1733 62.1433 30.9932 59.2388 30.9932 55.6474C30.9932 52.0561 35.1733 49.1516 40.3346 49.1516C45.496 49.1516 49.6761 52.0561 49.6761 55.6474Z" fill="white"/>
<path d="M62.4904 42.4595C61.6858 41.9689 60.842 41.5372 59.9981 41.0858C58.2318 39.0841 55.975 37.1804 52.9331 37.1216C49.7539 37.0627 47.9484 39.1626 47.4578 41.4391C46.9475 43.8137 47.4382 46.5415 48.9297 48.6414C50.5389 50.9179 53.6985 52.3505 56.8777 52.7234C58.8795 52.9589 61.0186 52.7234 62.7063 51.801C64.6296 50.7412 65.4734 48.8769 65.5715 47.0714C65.6697 45.1285 64.3352 43.5782 62.4904 42.4595Z" fill="#964700"/>
<path d="M24.8687 47.8956C24.8687 49.5048 23.9267 50.8197 22.7688 50.8197C21.6109 50.8197 20.6689 49.5048 20.6689 47.8956C20.6689 46.2864 21.6109 44.9715 22.7688 44.9715C23.9267 44.9715 24.8687 46.2667 24.8687 47.8956Z" fill="#441F04"/>
<path d="M22.8882 46.5415C22.8882 47.2087 22.4957 47.7582 22.0247 47.7582C21.5341 47.7582 21.1416 47.2087 21.1416 46.5415C21.1416 45.8742 21.5341 45.3247 22.0247 45.3247C22.4957 45.3247 22.8882 45.8742 22.8882 46.5415Z" fill="white"/>
<path d="M59.2515 47.8956C59.2515 49.5048 58.3095 50.8197 57.1516 50.8197C55.9937 50.8197 55.0518 49.5048 55.0518 47.8956C55.0518 46.2864 55.9937 44.9715 57.1516 44.9715C58.3095 44.9715 59.2515 46.2667 59.2515 47.8956Z" fill="#441F04"/>
<path d="M57.2701 46.5415C57.2701 47.2087 56.8776 47.7582 56.4066 47.7582C55.9159 47.7582 55.5234 47.2087 55.5234 46.5415C55.5234 45.8742 55.9159 45.3247 56.4066 45.3247C56.8776 45.3247 57.2701 45.8742 57.2701 46.5415Z" fill="white"/>
<path d="M43.7101 51.0159C43.7101 52.1345 42.1401 53.0373 40.2169 53.0373C38.2936 53.0373 36.7236 52.1345 36.7236 51.0159C36.7236 49.8973 38.2936 48.9945 40.2169 48.9945C42.1401 48.9945 43.7101 49.8973 43.7101 51.0159Z" fill="#441F04"/>
<path d="M27.0678 54.8034C27.0678 56.6285 25.5763 58.12 23.7512 58.12C21.9261 58.12 20.4346 56.6285 20.4346 54.8034C20.4346 52.9783 21.9261 51.4868 23.7512 51.4868C25.5763 51.4868 27.0678 52.9587 27.0678 54.8034Z" fill="#FFBDBD"/>
<path d="M60.7035 54.8034C60.7035 56.6285 59.212 58.12 57.3869 58.12C55.5618 58.12 54.0703 56.6285 54.0703 54.8034C54.0703 52.9783 55.5618 51.4868 57.3869 51.4868C59.212 51.4868 60.7035 52.9587 60.7035 54.8034Z" fill="#FFBDBD"/>
<path d="M40.4909 52.7625H39.9414V57.8649H40.4909V52.7625Z" fill="#441F04"/>
<path d="M43.1983 55.8829C43.1983 55.8829 42.6488 58.022 40.2546 58.022C38.9594 58.022 37.0361 57.2959 37.0361 55.6474C37.0361 55.6474 38.0566 57.1781 40.2546 57.1781C41.962 57.1781 43.1983 55.8829 43.1983 55.8829Z" fill="#441F04"/>
<path d="M28.4214 15.9854C32.994 21.4215 30.8745 35.6103 24.3787 36.1795C17.8828 36.729 10.5039 34.7468 10.0133 28.8398C9.50302 22.9327 23.8488 10.5493 28.4214 15.9854Z" fill="#964700"/>
<path d="M51.5787 15.9854C47.0061 21.4215 49.1256 35.6103 55.6214 36.1795C62.1173 36.729 69.4962 34.7468 69.9869 28.8398C70.4971 22.9327 56.1513 10.5493 51.5787 15.9854Z" fill="#964700"/>
</svg>
