<svg viewBox="0 0 80 80" fill="none" xmlns="http://www.w3.org/2000/svg">
<path d="M0 40C0 17.9086 17.9086 0 40 0C62.0914 0 80 17.9086 80 40C80 62.0914 62.0914 80 40 80C17.9086 80 0 62.0914 0 40Z" fill="#D9EBFB"/>
<path d="M30.3994 23.3564C32.6359 32.3467 32.8567 41.749 29.4283 42.5877C26.0146 43.4411 21.5268 34.804 19.305 25.799C17.0685 16.8087 19.9377 10.305 21.3503 10.0108C22.7481 9.74592 28.1629 14.3661 30.3994 23.3564Z" fill="#6D9FCC"/>
<path d="M29.4272 27.5205C31.1929 34.6569 31.6785 42.0286 29.5008 42.573C27.3231 43.1175 24.1154 36.1724 22.335 29.0361C20.5693 21.8998 22.1879 16.897 23.0854 16.7204C23.983 16.5586 27.6615 20.3842 29.4272 27.5205Z" fill="#FFBDBD"/>
<path d="M49.321 23.3564C47.0845 32.3467 46.8638 41.749 50.2921 42.5877C53.7058 43.4411 58.1936 34.804 60.4154 25.799C62.6372 16.794 59.7827 10.305 58.3702 10.0108C56.9723 9.74592 51.5575 14.3661 49.321 23.3564Z" fill="#6D9FCC"/>
<path d="M50.2925 27.5205C48.5268 34.6569 48.0412 42.0286 50.2189 42.573C52.3966 43.1175 55.6042 36.1724 57.3846 29.0361C59.1503 21.8998 57.5318 16.897 56.6342 16.7204C55.7367 16.5586 52.0581 20.3842 50.2925 27.5205Z" fill="#FFBDBD"/>
<path d="M61.5189 54.4767C61.5189 64.497 52.1314 70 40.5661 70C28.9861 70 19.6133 64.497 19.6133 54.4767C19.6133 44.4564 29.0009 33.6857 40.5661 33.6857C52.1314 33.6857 61.5189 44.4564 61.5189 54.4767Z" fill="#6D9FCC"/>
<path d="M29.017 51.2983C29.017 52.5049 28.3107 53.4907 27.4426 53.4907C26.5744 53.4907 25.8682 52.5049 25.8682 51.2983C25.8682 50.0918 26.5744 49.1059 27.4426 49.1059C28.3107 49.1059 29.017 50.0918 29.017 51.2983Z" fill="#441F04"/>
<path d="M27.5322 50.2978C27.5322 50.7981 27.2379 51.2101 26.8848 51.2101C26.5169 51.2101 26.2227 50.7981 26.2227 50.2978C26.2227 49.7976 26.5169 49.3856 26.8848 49.3856C27.2379 49.3856 27.5322 49.7829 27.5322 50.2978Z" fill="white"/>
<path d="M57.7226 60.7889C57.7226 65.8799 50.086 69.9999 40.6543 69.9999C31.2225 69.9999 23.5859 65.8799 23.5859 60.7889C23.5859 55.6978 31.2225 51.5779 40.6543 51.5779C50.086 51.5779 57.7226 55.7125 57.7226 60.7889Z" fill="#FFBDBD"/>
<path d="M54.3685 51.2983C54.3685 52.5049 53.6623 53.4907 52.7941 53.4907C51.926 53.4907 51.2197 52.5049 51.2197 51.2983C51.2197 50.0918 51.926 49.1059 52.7941 49.1059C53.6623 49.1059 54.3685 50.0918 54.3685 51.2983Z" fill="#441F04"/>
<path d="M52.8818 50.2978C52.8818 50.7981 52.5875 51.2101 52.2344 51.2101C51.8665 51.2101 51.5723 50.7981 51.5723 50.2978C51.5723 49.7976 51.8665 49.3856 52.2344 49.3856C52.5875 49.3856 52.8818 49.7829 52.8818 50.2978Z" fill="white"/>
<path d="M42.4493 63.3344C42.4493 63.3344 42.0373 64.9383 40.2422 64.9383C39.2711 64.9383 37.8291 64.3938 37.8291 63.1579C37.8291 63.1579 38.5942 64.3056 40.2422 64.3056C41.5223 64.3056 42.4493 63.3344 42.4493 63.3344Z" fill="#441F04"/>
<path d="M33.3568 56.4925C33.0478 57.081 31.8854 57.8167 31.3263 57.5225C30.7671 57.2282 31.032 56.0216 31.341 55.4331C31.65 54.8445 32.3562 54.5944 32.9154 54.8886C33.4745 55.1829 33.6658 55.9039 33.3568 56.4925Z" fill="#C45353"/>
<path d="M47.4969 56.2276C47.8059 56.8161 48.9683 57.5518 49.5275 57.2576C50.0866 56.9633 49.8217 55.7567 49.5127 55.1682C49.2038 54.5796 48.4975 54.3295 47.9383 54.6237C47.3792 54.918 47.1879 55.639 47.4969 56.2276Z" fill="#C45353"/>
<path d="M48.3509 33.0089C46.1291 30.8753 43.2157 29.8453 40.3023 29.6835C37.33 29.5069 33.5632 30.0513 31.4738 32.6116C30.4586 33.8475 30.076 35.6279 30.2967 37.2465C30.5321 38.865 31.3856 40.1599 32.5627 41.1163C33.3425 41.749 34.1812 42.264 35.0494 42.7201C35.2406 42.8231 35.4319 42.779 35.5496 42.573C36.1235 41.5724 36.4766 40.4247 36.5796 39.2476C37.6538 41.4106 39.7726 42.8526 41.9061 43.6324C42.892 43.9855 44.0544 44.0003 44.5252 42.7937C44.9078 41.7932 44.9078 40.5719 44.7165 39.4389C45.4522 40.2629 46.2909 40.9397 47.2915 41.4106C48.704 42.0727 50.3814 42.264 50.3814 42.0874C51.6615 40.2187 50.6757 35.2307 48.3509 33.0089Z" fill="#9B581B"/>
</svg>
