<svg viewBox="0 0 731 511" fill="none" xmlns="http://www.w3.org/2000/svg">
<path opacity="0.1" d="M204.823 413.409C161.065 414.676 117.366 402.769 82.0157 376.849C46.5621 350.854 22.2494 312.467 9.52002 270.202C-3.07455 228.385 -2.50815 183.741 11.3972 142.348C25.247 101.12 51.7083 65.4668 86.8359 40.0479C122.012 14.5939 164.075 -0.139923 207.383 0.521332C250.417 1.17844 291.091 18.1202 325.868 43.7044C360.724 69.3471 388.925 103.332 402.918 144.374C417.143 186.096 419.064 231.936 404.198 273.392C389.574 314.175 357.477 344.984 322.04 369.872C287.003 394.479 247.47 412.173 204.823 413.409Z" stroke="#464A52"/>
<path opacity="0.1" d="M520.823 510.409C477.065 511.676 433.366 499.769 398.016 473.849C362.562 447.854 338.249 409.467 325.52 367.202C312.925 325.385 313.492 280.741 327.397 239.348C341.247 198.12 367.708 162.467 402.836 137.048C438.012 111.594 480.075 96.8601 523.383 97.5213C566.417 98.1784 607.091 115.12 641.868 140.704C676.724 166.347 704.925 200.332 718.918 241.374C733.143 283.096 735.064 328.936 720.198 370.392C705.574 411.175 673.477 441.984 638.04 466.872C603.003 491.479 563.47 509.173 520.823 510.409Z" stroke="#464A52"/>
</svg>
