<svg viewBox="0 0 135 126" fill="none" xmlns="http://www.w3.org/2000/svg">
<path d="M84.1551 0.0245219C97.009 0.691995 108.572 8.58299 117.522 17.8096C126.686 27.2567 133.888 39.2329 134.902 52.3391C135.885 65.0428 129.3 76.7878 122.94 87.8377C117.127 97.9367 109.5 106.587 99.8803 113.185C90.1389 119.867 79.2801 127.163 67.5318 125.844C56.0309 124.554 49.494 112.475 39.6375 106.424C29.7183 100.336 16.5544 99.4698 9.50232 90.2241C1.9105 80.2708 -0.708308 67.1421 0.159116 54.6656C1.05555 41.7719 4.24541 27.4409 14.4234 19.442C24.4038 11.5984 39.1848 17.7851 51.4229 14.3773C63.1397 11.1146 72.0067 -0.606313 84.1551 0.0245219Z" fill="#28C48B"/>
<circle cx="57" cy="62" r="5" fill="white"/>
</svg>
