<svg width="32" height="32" fill="none" xmlns="http://www.w3.org/2000/svg"><path d="M15.823 1.76c3.1-.089 6.182.753 8.667 2.57 2.49 1.82 4.212 4.52 5.116 7.514.89 2.95.85 6.097-.132 9.015a14.674 14.674 0 01-5.333 7.21c-2.493 1.799-5.463 2.833-8.511 2.787-3.02-.046-5.894-1.232-8.372-3.05-2.483-1.822-4.47-4.22-5.454-7.097-1.009-2.95-1.139-6.174-.096-9.074 1.019-2.832 3.267-5.004 5.82-6.792 2.51-1.758 5.306-2.996 8.295-3.082z" stroke="#fff"/><path d="M15.384 31.211c-3.2.093-6.38-.776-8.946-2.652-2.571-1.88-4.348-4.667-5.28-7.758a15.29 15.29 0 01.136-9.305 15.147 15.147 0 015.504-7.444c2.573-1.856 5.64-2.924 8.785-2.876 3.118.047 6.085 1.272 8.642 3.148 2.561 1.88 4.613 4.356 5.628 7.326 1.042 3.046 1.175 6.374.099 9.368-1.052 2.925-3.373 5.167-6.007 7.012-2.59 1.814-5.475 3.092-8.56 3.181z" stroke="#fff"/></svg>