<svg width="42" height="42" viewBox="0 0 42 42" fill="none" xmlns="http://www.w3.org/2000/svg">
<path d="M21.284 41.4909C25.6243 41.617 29.9457 40.4325 33.4334 37.8691C36.9298 35.2993 39.3408 31.4939 40.6061 27.2825C41.8543 23.1282 41.7979 18.6941 40.4204 14.5838C39.0488 10.4911 36.4281 6.95088 32.9479 4.42647C29.4578 1.89489 25.2943 0.436672 21.0187 0.502113C16.7789 0.567009 12.7512 2.24095 9.28739 4.79533C5.81732 7.35432 3.02894 10.7318 1.64821 14.7913C0.235748 18.9441 0.0514291 23.489 1.51633 27.5841C2.95038 31.593 6.11004 34.6519 9.66672 37.1559C13.1695 39.6219 17.0858 41.369 21.284 41.4909Z" stroke="#111111"/>
</svg>
