<svg viewBox="0 0 121 119" fill="none" xmlns="http://www.w3.org/2000/svg">
<path d="M62.6557 117.121C75.0528 117.479 87.4226 114.114 97.4226 106.801C107.45 99.467 114.337 88.6293 117.946 76.68C121.513 64.8672 121.352 52.2569 117.414 40.5655C113.493 28.9216 106 18.851 96.0512 11.6707C86.085 4.47756 74.1752 0.319321 61.9213 0.505936C49.752 0.691284 38.2341 5.47042 28.3705 12.7081C18.4855 19.9615 10.5035 29.5632 6.54535 41.1428C2.51451 52.935 1.97537 65.8769 6.17874 77.569C10.3083 89.0556 19.382 97.7576 29.4545 104.814C39.4024 111.782 50.5985 116.773 62.6557 117.121Z" stroke="#464A52"/>
<path d="M58.7053 118.474C46.4324 118.829 34.1868 115.498 24.2873 108.258C14.3603 100.999 7.54236 90.2702 3.97034 78.4413C0.439156 66.7476 0.598206 54.2644 4.49636 42.6909C8.37868 31.1645 15.7965 21.1955 25.6451 14.0876C35.5113 6.9669 47.3016 2.85064 59.4324 3.03537C71.4793 3.21884 82.8816 7.9497 92.6465 15.1146C102.433 22.295 110.334 31.7999 114.253 43.2625C118.243 54.9359 118.777 67.7472 114.616 79.3211C110.528 90.6914 101.545 99.3057 91.5733 106.291C81.7249 113.19 70.6412 118.129 58.7053 118.474Z" stroke="#464A52"/>
</svg>
