<svg viewBox="0 0 677 635" fill="none" xmlns="http://www.w3.org/2000/svg"><path opacity=".3" d="M366.218 74.04c22.077 4.612 45.295 4.216 68.205 3.825 7.079-.12 14.129-.24 21.107-.213 29.604.12 57.954 2.903 82.105 19.48 50.877 34.922 78.458 96.482 91.127 156.994 12.698 60.65 2.824 123.549-20.407 181.048-11.528 28.532-24.667 59.137-42.163 85.171-17.494 26.032-39.319 47.454-68.201 57.67-28.828 10.198-57.321-.765-86.441-14.077-3.044-1.391-6.095-2.809-9.154-4.229-11.543-5.362-23.191-10.772-34.967-15.038-14.902-5.398-30.05-8.98-45.53-8.324-27.367 1.16-52.347 15.45-76.866 29.477a1814.303 1814.303 0 01-7.424 4.231c-26.98 15.271-53.637 28.579-82.809 22.497-30.301-6.317-61.743-20.977-87.042-41.657-25.299-20.681-44.42-47.354-50.153-77.688-5.987-31.682 10.223-58.909 30.206-86.156 3.384-4.614 6.877-9.231 10.387-13.868 6.832-9.029 13.723-18.136 19.982-27.457 9.48-14.119 17.548-28.782 21.828-44.528 5.999-22.072 3.076-44.95.182-67.592l-.498-3.91c-3.03-23.957-5.45-47.588 3.152-69.917 10.243-26.592 22.339-55.234 38.633-79.432 16.292-24.197 36.754-43.908 63.715-52.697 26.946-8.785 53.138-.19 79.673 12.15 6.603 3.071 13.219 6.37 19.87 9.685l.083.041c6.677 3.33 13.389 6.674 20.146 9.817 13.512 6.283 27.226 11.766 41.254 14.697z" stroke="#111"/><path opacity=".1" d="M353.767 79.01c22.444 2.218 45.486-.667 68.221-3.513 7.026-.88 14.022-1.756 20.963-2.476 29.446-3.058 57.931-3.332 83.721 10.558 54.33 29.261 88.356 87.507 107.445 146.31 19.132 58.938 16.063 122.533-.865 182.193-8.4 29.604-18.179 61.442-32.781 89.204-14.601 27.758-34.001 51.397-61.62 64.653-27.568 13.232-57.072 5.39-87.453-4.721-3.176-1.057-6.361-2.139-9.555-3.223-12.052-4.092-24.213-8.221-36.378-11.199-15.395-3.768-30.841-5.704-46.16-3.391-27.085 4.089-50.388 20.977-73.261 37.553a1916.61 1916.61 0 01-6.926 5.004c-25.186 18.078-50.261 34.168-79.917 31.251-30.805-3.03-63.638-14.231-91.009-32.078-27.373-17.847-49.246-42.314-58.199-71.858-9.351-30.857 3.843-59.666 20.788-88.9 2.869-4.951 5.847-9.915 8.838-14.902 5.824-9.71 11.7-19.504 16.922-29.442 7.911-15.055 14.359-30.499 16.924-46.613 3.597-22.589-1.765-45.021-7.07-67.222l-.915-3.834c-5.583-23.493-10.525-46.729-4.368-69.852 7.331-27.536 16.284-57.312 29.888-83.118 13.602-25.805 31.831-47.598 57.693-59.229 25.848-11.625 52.811-5.89 80.517 3.533 6.894 2.344 13.826 4.914 20.795 7.497l.087.032c6.995 2.593 14.027 5.199 21.082 7.598 14.109 4.798 28.332 8.777 42.593 10.186z" stroke="#111"/></svg>