<svg viewBox="0 0 121 119" fill="none" xmlns="http://www.w3.org/2000/svg">
<path d="M60.2725 5.23035C72.1724 4.88651 84.0454 8.11616 93.6434 15.1341C103.268 22.1715 109.879 32.5718 113.342 44.0396C116.766 55.376 116.612 67.4777 112.832 78.6974C109.068 89.8715 101.876 99.5358 92.3267 106.427C82.7603 113.33 71.3286 117.32 59.5671 117.141C47.8872 116.963 36.8317 112.377 27.3631 105.431C17.874 98.4693 10.2127 89.2548 6.4137 78.1431C2.54452 66.8261 2.0273 54.4067 6.06158 43.1873C10.0247 32.1658 18.7333 23.8148 28.4036 17.0419C37.9536 10.3533 48.7004 5.56473 60.2725 5.23035Z" stroke="#464A52"/>
<path d="M62.6557 117.121C75.0528 117.479 87.4226 114.114 97.4226 106.801C107.45 99.4668 114.337 88.629 117.946 76.6798C121.513 64.867 121.352 52.2566 117.414 40.5653C113.493 28.9214 106 18.8508 96.0512 11.6705C86.085 4.47732 74.1752 0.319077 61.9213 0.505692C49.752 0.69104 38.2341 5.47018 28.3705 12.7079C18.4855 19.9613 10.5035 29.563 6.54535 41.1425C2.51451 52.9348 1.97537 65.8767 6.17874 77.5687C10.3083 89.0554 19.382 97.7574 29.4545 104.813C39.4024 111.782 50.5985 116.772 62.6557 117.121Z" stroke="#464A52"/>
<path d="M58.7053 118.474C46.4324 118.829 34.1868 115.497 24.2873 108.258C14.3603 100.998 7.54236 90.2699 3.97034 78.441C0.439156 66.7474 0.598206 54.2642 4.49636 42.6907C8.37868 31.1643 15.7965 21.1952 25.6451 14.0873C35.5113 6.96665 47.3016 2.8504 59.4324 3.03513C71.4793 3.2186 82.8816 7.94946 92.6465 15.1143C102.433 22.2947 110.334 31.7996 114.253 43.2622C118.243 54.9357 118.777 67.7469 114.616 79.3208C110.528 90.6912 101.545 99.3054 91.5733 106.291C81.7249 113.189 70.6412 118.129 58.7053 118.474Z" stroke="#464A52"/>
</svg>
