<svg width="63" height="63" viewBox="0 0 63 63" fill="none" xmlns="http://www.w3.org/2000/svg">
<path opacity="0.2" d="M31.0957 62.9861C24.4382 63.1794 17.7873 61.3635 12.4057 57.408C7.00808 53.4407 3.30883 47.5842 1.37252 41.1396C-0.543907 34.7612 -0.457775 27.9514 1.65821 21.6374C3.76582 15.3484 7.79254 9.90987 13.1378 6.0326C18.4896 2.15061 24.8908 -0.0976524 31.4834 0.00325394C38.0357 0.103542 44.2252 2.68919 49.514 6.58938C54.8152 10.4987 59.1075 15.6823 61.2377 21.9454C63.4018 28.3079 63.6951 35.3015 61.4317 41.6288C59.2039 47.8567 54.3161 52.5563 48.9317 56.3471C43.6054 60.0969 37.5897 62.7974 31.0957 62.9861Z" fill="#28C48B"/>
</svg>
