<svg viewBox="0 0 117 121" fill="none" xmlns="http://www.w3.org/2000/svg">
<path d="M57.7348 120.475C45.4678 120.828 33.2281 117.51 23.3336 110.299C13.4117 103.069 6.59751 92.3845 3.02749 80.6041C-0.501701 68.9584 -0.342751 56.5264 3.55321 45.0004C7.43336 33.5212 14.8471 23.5928 24.6907 16.5136C34.552 9.42171 46.3365 5.32194 58.4616 5.50594C70.5029 5.68866 81.8996 10.4006 91.6595 17.5364C101.441 24.6878 109.338 34.1541 113.254 45.5697C117.242 57.1953 117.776 69.9539 113.617 81.4802C109.532 92.8038 100.554 101.383 90.5869 108.34C80.7435 115.211 69.6652 120.131 57.7348 120.475Z" stroke="#464A52"/>
<circle cx="59" cy="4" r="4" fill="#28C48B"/>
</svg>
