<svg width="49" height="48" viewBox="0 0 49 48" fill="none" xmlns="http://www.w3.org/2000/svg">
<path d="M24.1714 47.4896C19.0889 47.6342 14.027 46.2755 9.94103 43.3336C5.84531 40.3847 3.02494 36.0212 1.54554 31.1978C0.0855675 26.4378 0.151512 21.3574 1.7628 16.6475C3.36734 11.9574 6.4338 7.89876 10.5079 5.00385C14.5926 2.10141 19.4688 0.427292 24.4796 0.502422C29.4502 0.576954 34.1669 2.49918 38.2181 5.42579C42.2775 8.35825 45.5409 12.2298 47.157 16.8843C48.8088 21.6416 49.0252 26.8501 47.3105 31.5457C45.6305 36.1465 41.9299 39.6534 37.7741 42.5195C33.6798 45.3431 29.0938 47.3495 24.1714 47.4896Z" stroke="#464A52"/>
<circle cx="42" cy="9" r="4" fill="#28C48B"/>
</svg>
