<svg viewBox="0 0 677 635" fill="none" xmlns="http://www.w3.org/2000/svg">
<path opacity="0.3" d="M366.218 74.0396C388.295 78.6519 411.513 78.2559 434.423 77.8651C441.502 77.7444 448.552 77.6241 455.53 77.6523C485.134 77.7718 513.484 80.5554 537.635 97.1319C588.512 132.054 616.093 193.614 628.762 254.126C641.46 314.776 631.586 377.675 608.355 435.174C596.827 463.706 583.688 494.311 566.192 520.345C548.698 546.377 526.873 567.799 497.991 578.015C469.163 588.213 440.67 577.25 411.55 563.938C408.506 562.547 405.455 561.129 402.396 559.709C390.853 554.347 379.205 548.937 367.429 544.671C352.527 539.273 337.379 535.691 321.899 536.347C294.532 537.507 269.552 551.797 245.033 565.824C242.554 567.242 240.08 568.657 237.609 570.055C210.629 585.326 183.972 598.634 154.8 592.552C124.499 586.235 93.0568 571.575 67.7585 550.895C42.459 530.214 23.3373 503.541 17.6053 473.207C11.6185 441.525 27.8278 414.298 47.8111 387.051C51.1949 382.437 54.6884 377.82 58.1976 373.183C65.0296 364.154 71.9214 355.047 78.1802 345.726C87.6609 331.607 95.7283 316.944 100.008 301.198C106.007 279.126 103.084 256.248 100.19 233.606C100.024 232.302 99.8572 230.998 99.6925 229.696C96.6622 205.739 94.2418 182.108 102.844 159.779C113.087 133.187 125.183 104.545 141.477 80.3466C157.769 56.1503 178.231 36.439 205.192 27.6496C232.138 18.8649 258.33 27.4603 284.865 39.8005C291.468 42.871 298.084 46.1694 304.735 49.4852L304.818 49.5265C311.495 52.8552 318.207 56.2005 324.964 59.3426C338.476 65.6264 352.19 71.1089 366.218 74.0396Z" stroke="#111111"/>
<path opacity="0.1" d="M353.767 79.0109C376.211 81.228 399.253 78.3432 421.988 75.4967C429.014 74.6171 436.01 73.7412 442.951 73.0206C472.397 69.9632 500.882 69.689 526.672 83.5787C581.002 112.84 615.028 171.086 634.117 229.889C653.249 288.827 650.18 352.422 633.252 412.082C624.852 441.686 615.073 473.524 600.471 501.286C585.87 529.044 566.47 552.683 538.851 565.939C511.283 579.171 481.779 571.329 451.398 561.218C448.222 560.161 445.037 559.079 441.843 557.995C429.791 553.903 417.63 549.774 405.465 546.796C390.07 543.028 374.624 541.092 359.305 543.405C332.22 547.494 308.917 564.382 286.044 580.958C283.732 582.634 281.424 584.306 279.118 585.962C253.932 604.04 228.857 620.13 199.201 617.213C168.396 614.183 135.563 602.982 108.192 585.135C80.8193 567.288 58.9464 542.821 49.993 513.277C40.6416 482.42 53.8362 453.611 70.7807 424.377C73.65 419.426 76.6279 414.462 79.6194 409.475C85.4433 399.765 91.3182 389.971 96.5408 380.033C104.452 364.978 110.9 349.534 113.465 333.42C117.062 310.831 111.7 288.399 106.395 266.198C106.089 264.919 105.784 263.641 105.48 262.364C99.897 238.871 94.9552 215.635 101.112 192.512C108.443 164.976 117.396 135.2 131 109.394C144.602 83.5892 162.831 61.7963 188.693 50.1651C214.541 38.54 241.504 44.2757 269.21 53.6977C276.104 56.0421 283.036 58.6116 290.005 61.1947L290.092 61.2269C297.087 63.82 304.119 66.4258 311.174 68.8249C325.283 73.6227 339.506 77.6022 353.767 79.0109Z" stroke="#111111"/>
</svg>
