<svg width="32" height="32" fill="none" xmlns="http://www.w3.org/2000/svg"><path d="M5.773 26.329l-1.952 4.328H3.19l1.924-4.191h-2.53v-.493h3.189v.356zm2.75 3.424a.444.444 0 00-.193-.383c-.11-.082-.33-.165-.633-.22a2.772 2.772 0 01-.714-.218.913.913 0 01-.385-.33.825.825 0 01-.138-.438c0-.274.11-.52.358-.712.247-.192.55-.301.934-.301.385 0 .715.11.963.301a.933.933 0 01.357.767h-.605c0-.164-.082-.301-.22-.41a.794.794 0 00-.522-.165.98.98 0 00-.522.137.468.468 0 00-.193.356.39.39 0 00.165.329c.11.082.33.137.605.219.302.055.55.137.715.247.192.082.33.191.412.328a.847.847 0 01.137.466c0 .301-.137.548-.384.74-.248.191-.578.274-.963.274-.275 0-.522-.055-.742-.137a1.243 1.243 0 01-.495-.411 1.03 1.03 0 01-.192-.576h.605c0 .192.082.357.247.466.138.11.357.165.577.165.22 0 .413-.055.55-.137.22-.083.275-.22.275-.357zm2.198-3.397v.85h.66v.465h-.66v2.165c0 .137.028.246.083.301.055.082.165.11.302.11.083 0 .165 0 .275-.028v.493c-.165.055-.302.055-.467.055-.275 0-.467-.082-.605-.246-.137-.165-.192-.384-.192-.685V27.67h-.633v-.465h.633v-.85h.604zm2.777 4.384c-.467 0-.852-.165-1.155-.466-.302-.301-.44-.712-.44-1.233v-.11c0-.356.056-.657.193-.931s.33-.493.55-.63a1.32 1.32 0 01.77-.22c.44 0 .797.138 1.044.439.248.301.385.712.385 1.288v.246h-2.364c0 .33.11.63.302.822.193.22.44.329.743.329a.98.98 0 00.522-.137 1.45 1.45 0 00.385-.329l.357.274c-.275.439-.715.658-1.292.658zm-.055-3.124a.743.743 0 00-.605.274c-.165.165-.275.411-.302.74h1.76v-.055c-.028-.301-.11-.548-.248-.712a.81.81 0 00-.605-.247zm5.059 1.343c0 .52-.11.959-.358 1.288a1.177 1.177 0 01-.99.493c-.412 0-.742-.137-.99-.411V32h-.604v-4.794h.55l.027.383c.248-.301.578-.438 1.017-.438.413 0 .743.164.99.465.248.302.358.74.358 1.316v.027zm-.605-.055c0-.383-.083-.712-.248-.931-.165-.22-.385-.33-.687-.33-.357 0-.632.165-.825.467v1.67c.165.33.44.467.825.467.275 0 .522-.11.687-.33.165-.246.248-.575.248-1.013zm3.381.85a.444.444 0 00-.192-.384c-.11-.082-.33-.165-.633-.22a2.773 2.773 0 01-.714-.218.914.914 0 01-.385-.33.826.826 0 01-.138-.438c0-.274.11-.52.358-.712.247-.192.55-.301.934-.301.385 0 .715.11.963.301a.933.933 0 01.357.767h-.605c0-.164-.082-.301-.22-.41a.794.794 0 00-.522-.165.98.98 0 00-.522.137.468.468 0 00-.193.356.39.39 0 00.165.329c.11.082.33.137.605.219.302.055.55.137.715.247a.849.849 0 01.55.794c0 .301-.138.548-.385.74-.248.191-.578.274-.963.274-.274 0-.522-.055-.742-.137a1.243 1.243 0 01-.495-.411 1.03 1.03 0 01-.192-.576h.605c0 .192.082.357.247.466.137.11.357.165.577.165.22 0 .413-.055.55-.137.22-.083.275-.22.275-.357zm1.402.602c0-.11.028-.192.083-.246a.42.42 0 01.275-.11c.11 0 .22.027.274.11a.44.44 0 01.083.246c0 .11-.027.192-.082.247a.42.42 0 01-.275.11c-.11 0-.22-.028-.275-.11-.055-.055-.083-.137-.083-.247zm3.41-2.63c-.083-.027-.193-.027-.303-.027-.385 0-.66.164-.797.493v2.465h-.605v-3.451h.577v.41c.192-.3.467-.465.825-.465.11 0 .192.027.275.055v.52h.027zm2.693 2.603c-.22.274-.577.41-1.017.41-.385 0-.66-.109-.852-.328-.193-.22-.303-.52-.303-.959v-2.247h.605v2.247c0 .52.22.795.633.795.467 0 .77-.165.907-.494v-2.52h.605v3.48h-.578v-.384zM26.31 16.137A24.718 24.718 0 0032 12.438l-2.914-3.287a19.756 19.756 0 01-5.388 3.37C21.306 8.658 19.518 4.466 18.474 0h-4.948a40.728 40.728 0 01-5.224 12.493 19.756 19.756 0 01-5.388-3.37L0 12.438a23.846 23.846 0 005.69 3.699 42.275 42.275 0 01-4.123 4.466l3.024 3.205a44.417 44.417 0 005.47-6.137c1.925.493 3.932.74 5.939.74s4.014-.247 5.938-.74c1.622 2.192 3.464 4.22 5.47 6.137l3.025-3.205a42.279 42.279 0 01-4.124-4.466zM16 14.055c-1.127 0-2.227-.11-3.326-.274A46.31 46.31 0 0016 6.93a43.81 43.81 0 003.326 6.85c-1.1.164-2.199.274-3.326.274z" fill="#111"/></svg>