<svg width="738" height="5211" fill="none" xmlns="http://www.w3.org/2000/svg"><path opacity=".3" d="M247.418 1c-24.5-.5 14.515 237.685 151.161 71.54C457.417 1 494.653 109.502 532.22 109.502c67.5 0 30.492 31.5-43 212.5-29.641 73-8.5 152 96.5 216 94.028 35.333 241.261 121.8 77.972 185-204.113 79-499.057 52.937-400 155.5 56.5 58.5 282.023 12.541 268.528 99.5C515.692 1084.5 208.417 1392 565.918 1727.5c265.539 249.2 103.499 697-216.501 907-101.333 55-292.5 140-246.5 40 57.5-125 538.5-72.5 479 292s-247 196.5-172 476.5 429.5 551.5 102.5 659-681-846-422-504 444.5 292 394.5 669c-40 301.6-211.333 754.67-292 943.5" stroke="#464A52"/></svg>