<svg viewBox="0 0 32 32" fill="none" xmlns="http://www.w3.org/2000/svg"><path d="M14.072 64.176L9.315 74.728H7.773l4.691-10.218H6.299v-1.202h7.773v.868zm6.701 8.348c0-.4-.134-.668-.469-.935-.268-.2-.804-.4-1.541-.534-.737-.134-1.34-.334-1.742-.534-.402-.2-.737-.468-.938-.802-.201-.334-.335-.668-.335-1.068 0-.668.268-1.27.87-1.737.604-.467 1.34-.734 2.279-.734.938 0 1.742.267 2.345.734.604.468.871 1.136.871 1.87H20.64c0-.4-.2-.734-.536-1.002-.335-.267-.737-.4-1.273-.4a2.39 2.39 0 00-1.273.334c-.268.2-.47.534-.47.868 0 .334.135.6.403.801.268.2.804.334 1.474.534.737.134 1.34.334 1.742.602.47.2.804.467 1.005.8.202.335.336.669.336 1.136 0 .735-.336 1.336-.939 1.803-.603.468-1.407.668-2.345.668-.67 0-1.273-.133-1.81-.334-.535-.267-.937-.6-1.205-1.001-.268-.401-.47-.869-.47-1.403h1.475c0 .468.2.868.603 1.135.335.267.87.401 1.407.401.536 0 1.005-.133 1.34-.334.536-.2.67-.534.67-.868zm5.361-8.28v2.07h1.608v1.135h-1.608v5.275c0 .334.067.601.201.735.134.2.402.267.737.267.201 0 .402 0 .67-.067v1.202c-.402.134-.737.134-1.139.134-.67 0-1.139-.2-1.474-.601-.335-.4-.47-.935-.47-1.67V67.45h-1.54v-1.136h1.54v-2.07h1.475zm6.768 10.684c-1.139 0-2.077-.4-2.814-1.135-.737-.735-1.072-1.737-1.072-3.005v-.267c0-.869.134-1.603.469-2.271.335-.668.804-1.202 1.34-1.536.603-.4 1.206-.534 1.876-.534 1.072 0 1.943.334 2.547 1.068.603.735.938 1.737.938 3.139v.601h-5.763c0 .801.268 1.536.737 2.003.469.535 1.072.802 1.81.802a2.39 2.39 0 001.272-.334c.335-.2.67-.468.939-.802l.87.668c-.67 1.069-1.742 1.603-3.149 1.603zm-.134-7.613c-.603 0-1.072.2-1.474.668-.402.4-.67 1.002-.737 1.803h4.289v-.134c-.067-.734-.269-1.335-.604-1.736-.402-.4-.87-.6-1.474-.6zm12.33 3.272c0 1.27-.268 2.338-.871 3.139-.603.801-1.407 1.202-2.412 1.202-1.006 0-1.81-.334-2.413-1.002V78h-1.474V66.313h1.34l.067.935c.603-.734 1.407-1.068 2.48-1.068 1.005 0 1.809.4 2.412 1.135s.871 1.803.871 3.206v.066zm-1.474-.133c0-.935-.201-1.736-.603-2.27-.402-.535-.938-.802-1.675-.802-.872 0-1.542.4-2.01 1.135v4.074c.401.801 1.071 1.135 2.01 1.135.67 0 1.273-.267 1.675-.801.402-.601.603-1.403.603-2.471zm8.242 2.07c0-.4-.134-.668-.469-.935-.268-.2-.804-.4-1.541-.534-.737-.134-1.34-.334-1.742-.534-.403-.2-.738-.468-.939-.802-.2-.334-.335-.668-.335-1.068 0-.668.268-1.27.871-1.737.604-.467 1.34-.734 2.279-.734.938 0 1.742.267 2.345.734.603.468.871 1.136.871 1.87h-1.474c0-.4-.201-.734-.536-1.002-.335-.267-.737-.4-1.273-.4-.536 0-.938.133-1.273.334-.268.2-.47.534-.47.868a.95.95 0 00.403.801c.268.2.804.334 1.474.534.737.134 1.34.334 1.742.602.47.2.804.467 1.005.8.201.335.335.669.335 1.136 0 .735-.335 1.336-.938 1.803-.603.468-1.407.668-2.345.668-.67 0-1.273-.133-1.81-.334-.536-.267-.938-.6-1.206-1.001-.268-.401-.469-.869-.469-1.403h1.474c0 .468.202.868.604 1.135.335.267.87.401 1.407.401.536 0 1.005-.133 1.34-.334.536-.2.67-.534.67-.868zm3.418 1.47c0-.268.067-.468.2-.602.135-.133.403-.267.67-.267.269 0 .537.067.67.267.135.2.202.4.202.601 0 .267-.067.468-.201.601a1.026 1.026 0 01-.67.267c-.268 0-.536-.067-.67-.267-.134-.133-.201-.334-.201-.6zm8.309-6.412c-.201-.067-.47-.067-.737-.067-.938 0-1.608.401-1.944 1.203v6.01h-1.474v-8.415h1.407v1.002c.47-.734 1.14-1.135 2.01-1.135.269 0 .47.067.67.133v1.27h.068zm6.567 6.344c-.536.668-1.407 1.002-2.48 1.002-.938 0-1.608-.267-2.077-.801-.469-.534-.737-1.27-.737-2.338v-5.476h1.474v5.476c0 1.27.536 1.937 1.541 1.937 1.14 0 1.877-.4 2.212-1.202V66.38h1.474v8.481H70.16v-.935zm-6.031-34.592c4.959-2.337 9.65-5.343 13.871-9.016l-7.103-8.013a48.153 48.153 0 01-13.134 8.214C51.933 21.103 47.577 10.885 45.03 0H32.969a99.273 99.273 0 01-12.732 30.452 48.156 48.156 0 01-13.134-8.214L0 30.318c4.222 3.673 8.912 6.745 13.871 9.016A103.042 103.042 0 013.82 50.219l7.37 7.813c4.96-4.607 9.382-9.616 13.336-14.958A58.465 58.465 0 0039 44.877c4.892 0 9.783-.601 14.474-1.803 3.954 5.342 8.444 10.284 13.335 14.959l7.371-7.814a103.047 103.047 0 01-10.05-10.885zM39 34.259c-2.747 0-5.428-.268-8.108-.668 3.15-5.343 5.897-10.952 8.108-16.696a106.791 106.791 0 008.108 16.696c-2.68.4-5.36.668-8.108.668z" fill="#111"/></svg>