<svg  viewBox="0 0 32 32" preserveAspectRatio="xMidYMid slice" fill="none" xmlns="http://www.w3.org/2000/svg">
<path d="M5.77299 26.3288L3.8211 30.6575H3.1888L5.11319 26.4658H2.58398V25.9726H5.77299V26.3288ZM8.52213 29.7534C8.52213 29.589 8.46714 29.4795 8.32969 29.3699C8.21972 29.2877 7.99979 29.2055 7.69739 29.1507C7.39498 29.0959 7.14756 29.0137 6.98261 28.9315C6.81766 28.8493 6.6802 28.7397 6.59773 28.6027C6.51526 28.4658 6.46027 28.3288 6.46027 28.1644C6.46027 27.8904 6.57024 27.6438 6.81766 27.4521C7.06508 27.2603 7.36749 27.1507 7.75237 27.1507C8.13725 27.1507 8.46715 27.2603 8.71457 27.4521C8.96199 27.6438 9.07196 27.9178 9.07196 28.2192H8.46714C8.46714 28.0548 8.38467 27.9178 8.24721 27.8082C8.10976 27.6986 7.94481 27.6438 7.72488 27.6438C7.50495 27.6438 7.34 27.6986 7.20254 27.7808C7.09258 27.863 7.0101 28 7.0101 28.137C7.0101 28.274 7.06508 28.3836 7.17505 28.4658C7.28502 28.548 7.50495 28.6027 7.77986 28.6849C8.08227 28.7397 8.32969 28.8219 8.49464 28.9315C8.68708 29.0137 8.82453 29.1233 8.90701 29.2603C8.98948 29.3973 9.04447 29.5343 9.04447 29.726C9.04447 30.0274 8.90701 30.274 8.65958 30.4658C8.41216 30.6575 8.08227 30.7397 7.69739 30.7397C7.42247 30.7397 7.17505 30.6849 6.95512 30.6027C6.73519 30.4932 6.57024 30.3562 6.46027 30.1918C6.35031 30.0274 6.26783 29.8356 6.26783 29.6164H6.87264C6.87264 29.8082 6.95512 29.9726 7.12007 30.0822C7.25752 30.1918 7.47745 30.2466 7.69739 30.2466C7.91732 30.2466 8.10976 30.1918 8.24721 30.1096C8.46715 30.0274 8.52213 29.8904 8.52213 29.7534ZM10.7214 26.3562V27.2055H11.3812V27.6712H10.7214V29.8356C10.7214 29.9726 10.7489 30.0822 10.8039 30.137C10.8589 30.2192 10.9689 30.2466 11.1063 30.2466C11.1888 30.2466 11.2713 30.2466 11.3812 30.2192V30.7123C11.2163 30.7671 11.0788 30.7671 10.9139 30.7671C10.639 30.7671 10.4465 30.6849 10.3091 30.5206C10.1716 30.3562 10.1166 30.137 10.1166 29.8356V27.6712H9.48433V27.2055H10.1166V26.3562H10.7214ZM13.4981 30.7397C13.0307 30.7397 12.6458 30.5753 12.3434 30.274C12.041 29.9726 11.9036 29.5617 11.9036 29.0411V28.9315C11.9036 28.5753 11.9586 28.274 12.096 28C12.2335 27.726 12.4259 27.5069 12.6458 27.3699C12.8933 27.2055 13.1407 27.1507 13.4156 27.1507C13.8555 27.1507 14.2128 27.2877 14.4603 27.589C14.7077 27.8904 14.8452 28.3014 14.8452 28.8767V29.1233H12.4809C12.4809 29.4521 12.5909 29.7534 12.7833 29.9452C12.9757 30.1644 13.2232 30.274 13.5256 30.274C13.7455 30.274 13.9104 30.2192 14.0479 30.137C14.1854 30.0548 14.3228 29.9452 14.4328 29.8082L14.7902 30.0822C14.5153 30.5206 14.0754 30.7397 13.4981 30.7397ZM13.4431 27.6164C13.1957 27.6164 13.0032 27.6986 12.8383 27.8904C12.6733 28.0548 12.5634 28.3014 12.5359 28.6301H14.2953V28.5754C14.2678 28.274 14.1854 28.0274 14.0479 27.863C13.883 27.6986 13.6905 27.6164 13.4431 27.6164ZM18.5015 28.9589C18.5015 29.4795 18.3915 29.9178 18.1441 30.2466C17.8967 30.5753 17.5668 30.7397 17.1544 30.7397C16.7421 30.7397 16.4122 30.6027 16.1647 30.3288V32H15.5599V27.2055H16.1098L16.1372 27.589C16.3847 27.2877 16.7146 27.1507 17.1544 27.1507C17.5668 27.1507 17.8967 27.3151 18.1441 27.6164C18.3915 27.9178 18.5015 28.3562 18.5015 28.9315V28.9589ZM17.8967 28.9041C17.8967 28.5206 17.8142 28.1918 17.6493 27.9726C17.4843 27.7534 17.2644 27.6438 16.962 27.6438C16.6046 27.6438 16.3297 27.8082 16.1372 28.1096V29.7808C16.3022 30.1096 16.5771 30.2466 16.962 30.2466C17.2369 30.2466 17.4843 30.137 17.6493 29.9178C17.8142 29.6712 17.8967 29.3425 17.8967 28.9041ZM21.2781 29.7534C21.2781 29.589 21.2232 29.4795 21.0857 29.3699C20.9757 29.2877 20.7558 29.2055 20.4534 29.1507C20.151 29.0959 19.9036 29.0137 19.7386 28.9315C19.5737 28.8493 19.4362 28.7397 19.3537 28.6027C19.2713 28.4658 19.2163 28.3288 19.2163 28.1644C19.2163 27.8904 19.3263 27.6438 19.5737 27.4521C19.8211 27.2603 20.1235 27.1507 20.5084 27.1507C20.8933 27.1507 21.2232 27.2603 21.4706 27.4521C21.718 27.6438 21.828 27.9178 21.828 28.2192H21.2232C21.2232 28.0548 21.1407 27.9178 21.0032 27.8082C20.8658 27.6986 20.7008 27.6438 20.4809 27.6438C20.261 27.6438 20.096 27.6986 19.9586 27.7808C19.8486 27.863 19.7661 28 19.7661 28.137C19.7661 28.274 19.8211 28.3836 19.9311 28.4658C20.041 28.548 20.261 28.6027 20.5359 28.6849C20.8383 28.7397 21.0857 28.8219 21.2506 28.9315C21.4431 29.0137 21.5805 29.1233 21.663 29.2603C21.7455 29.3973 21.8005 29.5343 21.8005 29.726C21.8005 30.0274 21.663 30.274 21.4156 30.4658C21.1682 30.6575 20.8383 30.7397 20.4534 30.7397C20.1785 30.7397 19.9311 30.6849 19.7111 30.6027C19.4912 30.4932 19.3263 30.3562 19.2163 30.1918C19.1063 30.0274 19.0238 29.8356 19.0238 29.6164H19.6287C19.6287 29.8082 19.7111 29.9726 19.8761 30.0822C20.0135 30.1918 20.2335 30.2466 20.4534 30.2466C20.6733 30.2466 20.8658 30.1918 21.0032 30.1096C21.2232 30.0274 21.2781 29.8904 21.2781 29.7534ZM22.6802 30.3562C22.6802 30.2466 22.7077 30.1644 22.7627 30.1096C22.8177 30.0548 22.9276 30 23.0376 30C23.1476 30 23.2575 30.0274 23.3125 30.1096C23.3675 30.1918 23.395 30.274 23.395 30.3562C23.395 30.4658 23.3675 30.548 23.3125 30.6027C23.2575 30.6575 23.1476 30.7123 23.0376 30.7123C22.9276 30.7123 22.8177 30.6849 22.7627 30.6027C22.7077 30.548 22.6802 30.4658 22.6802 30.3562ZM26.0891 27.726C26.0067 27.6986 25.8967 27.6986 25.7867 27.6986C25.4019 27.6986 25.1269 27.863 24.9895 28.1918V30.6575H24.3847V27.2055H24.962V27.6164C25.1544 27.3151 25.4293 27.1507 25.7867 27.1507C25.8967 27.1507 25.9792 27.1781 26.0616 27.2055V27.726H26.0891ZM28.7833 30.3288C28.5634 30.6027 28.206 30.7397 27.7661 30.7397C27.3812 30.7397 27.1063 30.6301 26.9139 30.411C26.7214 30.1918 26.6115 29.8904 26.6115 29.4521V27.2055H27.2163V29.4521C27.2163 29.9726 27.4362 30.2466 27.8486 30.2466C28.3159 30.2466 28.6183 30.0822 28.7558 29.7534V27.2329H29.3606V30.7123H28.7833V30.3288Z" fill="white"/>
<path d="M26.3093 16.137C28.3436 15.1781 30.268 13.9452 32 12.4384L29.0859 9.15069C27.4639 10.5753 25.6495 11.6986 23.6976 12.5205C21.3058 8.65753 19.5189 4.46575 18.4742 0H13.5258C12.4811 4.46575 10.7216 8.65753 8.30241 12.4931C6.35052 11.6712 4.53608 10.5479 2.91409 9.12329L0 12.4384C1.73196 13.9452 3.65636 15.2055 5.69072 16.137C4.42612 17.726 3.05155 19.2055 1.56701 20.6027L4.59107 23.8082C6.62543 21.9178 8.43986 19.863 10.0619 17.6712C11.9863 18.1644 13.9931 18.411 16 18.411C18.0069 18.411 20.0137 18.1644 21.9381 17.6712C23.5601 19.863 25.4021 21.8904 27.4089 23.8082L30.433 20.6027C28.9485 19.2055 27.5739 17.726 26.3093 16.137ZM16 14.0548C14.8729 14.0548 13.7732 13.9452 12.6735 13.7808C13.9656 11.589 15.0928 9.28767 16 6.93151C16.9072 9.31507 18.0344 11.6164 19.3265 13.7808C18.2268 13.9452 17.1271 14.0548 16 14.0548Z" fill="white"/>
</svg>
