<svg width="597" height="561" viewBox="0 0 597 561" fill="none" xmlns="http://www.w3.org/2000/svg">
<g opacity="0.2" filter="url(#filter0_dddd)">
<path d="M364.257 8.09673C415.006 10.7295 460.657 41.8551 495.993 78.2491C532.174 115.513 560.61 162.752 564.613 214.449C568.494 264.558 542.495 310.885 517.384 354.471C494.434 394.306 464.322 428.425 426.342 454.452C387.882 480.809 345.01 509.586 298.625 504.386C253.218 499.295 227.41 451.65 188.495 427.785C149.332 403.768 97.3592 400.353 69.5166 363.884C39.5429 324.624 29.2035 272.838 32.6282 223.626C36.1675 172.767 48.7615 116.239 88.9458 84.6879C128.35 53.7492 186.707 78.1525 235.025 64.7105C281.285 51.8411 316.293 5.60843 364.257 8.09673Z" fill="white"/>
</g>
<defs>
<filter id="filter0_dddd" x="0" y="0" width="597" height="561" filterUnits="userSpaceOnUse" color-interpolation-filters="sRGB">
<feFlood flood-opacity="0" result="BackgroundImageFix"/>
<feColorMatrix in="SourceAlpha" type="matrix" values="0 0 0 0 0 0 0 0 0 0 0 0 0 0 0 0 0 0 127 0"/>
<feOffset/>
<feGaussianBlur stdDeviation="0.5"/>
<feColorMatrix type="matrix" values="0 0 0 0 0 0 0 0 0 0 0 0 0 0 0 0 0 0 0.04 0"/>
<feBlend mode="normal" in2="BackgroundImageFix" result="effect1_dropShadow"/>
<feColorMatrix in="SourceAlpha" type="matrix" values="0 0 0 0 0 0 0 0 0 0 0 0 0 0 0 0 0 0 127 0"/>
<feOffset dy="2"/>
<feGaussianBlur stdDeviation="3"/>
<feColorMatrix type="matrix" values="0 0 0 0 0.983333 0 0 0 0 0.90519 0 0 0 0 0.858304 0 0 0 0.08 0"/>
<feBlend mode="normal" in2="effect1_dropShadow" result="effect2_dropShadow"/>
<feColorMatrix in="SourceAlpha" type="matrix" values="0 0 0 0 0 0 0 0 0 0 0 0 0 0 0 0 0 0 127 0"/>
<feOffset dy="16"/>
<feGaussianBlur stdDeviation="12"/>
<feColorMatrix type="matrix" values="0 0 0 0 0.983333 0 0 0 0 0.90519 0 0 0 0 0.858304 0 0 0 0.1 0"/>
<feBlend mode="normal" in2="effect2_dropShadow" result="effect3_dropShadow"/>
<feColorMatrix in="SourceAlpha" type="matrix" values="0 0 0 0 0 0 0 0 0 0 0 0 0 0 0 0 0 0 127 0"/>
<feOffset dy="24"/>
<feGaussianBlur stdDeviation="16"/>
<feColorMatrix type="matrix" values="0 0 0 0 0.983333 0 0 0 0 0.90519 0 0 0 0 0.858304 0 0 0 0.14 0"/>
<feBlend mode="normal" in2="effect3_dropShadow" result="effect4_dropShadow"/>
<feBlend mode="normal" in="SourceGraphic" in2="effect4_dropShadow" result="shape"/>
</filter>
</defs>
</svg>
