<svg width="121" height="119" viewBox="0 0 121 119" fill="none" xmlns="http://www.w3.org/2000/svg">
<path d="M59.3319 5.23084C71.2317 4.887 83.1048 8.11664 92.7028 15.1346C102.327 22.172 108.938 32.5723 112.402 44.0401C115.825 55.3765 115.671 67.4781 111.892 78.6978C108.127 89.8719 100.935 99.5363 91.386 106.427C81.8196 113.33 70.3879 117.321 58.6264 117.141C46.9466 116.964 35.891 112.378 26.4224 105.431C16.9334 98.4698 9.27205 89.2553 5.47303 78.1436C1.60385 66.8266 1.08662 54.4072 5.12091 43.1877C9.08401 32.1663 17.7926 23.8153 27.4629 17.0424C37.013 10.3538 47.7597 5.56522 59.3319 5.23084Z" stroke="white"/>
<path d="M57.7636 118.474C45.4908 118.829 33.2452 115.498 23.3457 108.258C13.4186 100.999 6.60071 90.2702 3.02869 78.4413C-0.502495 66.7476 -0.343445 54.2644 3.55471 42.6909C7.43703 31.1645 14.8549 21.1955 24.7034 14.0876C34.5697 6.9669 46.36 2.85064 58.4908 3.03537C70.5377 3.21884 81.94 7.9497 91.7049 15.1146C101.491 22.295 109.393 31.7999 113.311 43.2625C117.301 54.9359 117.835 67.7472 113.674 79.3211C109.586 90.6914 100.604 99.3057 90.6317 106.291C80.7833 113.19 69.6995 118.129 57.7636 118.474Z" stroke="white"/>
<path d="M70.0586 61.5L52.8086 71.4593L52.8086 51.5407L70.0586 61.5Z" fill="white"/>
</svg>
