<svg width="608" height="41" fill="none" xmlns="http://www.w3.org/2000/svg"><path d="M1 15.45l1.158-3.6 1.206 4.668 1.207 5.217 1.158-3.695 1.206-1.2 1.206 7.9 1.158-.945 1.207 6.587 1.158-17.597 1.206 3.421 1.206 19.034 1.158-18.089 1.207-6.124 1.206 3.09 1.158-6.388 1.206 8.42 1.207 7.126 1.158-17.862 1.206 17.758 1.158-9.687 1.206 13.572 1.207-13.581 1.158 4.092 1.206 6.7 1.206-12.323 1.158 1.115 1.207 4.744 1.206 6.2 1.158 9.933 1.206-9.394 1.158 4.961 1.207 5.803 1.206-19.903 1.158-11.19 1.206 4.045L43.8 25.175l1.158 6.389 1.206-14.054 1.206 5.68 1.159-5.084 1.206-6.55 1.158 16.605 1.206-9.13 1.206 6.588 1.159-4.621 1.206.15 1.206.01 1.158 16.218 1.206-28.92 1.207.955 1.158 16.35 1.158-4.451 1.206-9.319 1.206 5.415 1.159-2.447 1.206 9.535 1.206-6.464 1.158 5.16 1.207.085 1.158 9.319 1.206-1.749 1.206-20.441 1.158 8.099 1.207-6.682 1.206-1.134 1.158 5.198 1.206 9.318 1.207-6.946 1.158.747 1.206 5.32 1.158-6.785 1.206 9.063 1.206-11.123 1.159-.917 1.206-5.189 1.206 15.575 1.158-.142 1.207-1.852 1.206-19.28 1.158 16.445 1.206.406 1.158 7.23 1.207-9.715 1.206 10.112 1.158-.889 1.206-10.896 1.207-4.47 1.158 14.941 1.206-15.726 1.206 14.847 1.158 2.665 1.207-14.251 1.158 12.012 1.206-4.178 1.206-16.765 1.158 15.064 1.207-.85 1.206-1.607 1.158 9.347 1.206-16.208 1.158 7.315 1.207 15.707 1.158-10.576 1.206-1.04 1.206-4.328 1.158 1.938 1.207 3.591 1.206-21.66 1.158 5.518 1.206 16.199 1.158-11.379 1.207 2.637 1.206.803 1.158-1.569 1.206 20.329 1.207-17.427 1.158 13.77 1.206 3.043 1.206-12.825 1.158-.69 1.207 16.614 1.158-21.982 1.206 3.147 1.206 3.194 1.158-.746 1.207-5.765 1.206 3.213 1.158 7.788 1.206-4.934 1.207-5.49 1.158-2.618 1.206 2.674 1.158 12.116 1.206-15.99 1.207 19.855 1.158-15.461 1.206 1.578 1.206-.151 1.158-2.646 1.207-5.33 1.206 14.828 1.158-6.483 1.206 7.39 1.158-13.524 1.207.151 1.206 12.806 1.158-12.815 1.206 13.136 1.207.388 1.158-10.018 1.206 11.993 1.158-5.35 1.206-7.805 1.159 8.033 1.206-8.27 1.206 7.277 1.158 6.257 1.207-16.539 1.158 14.724 1.206-16.935 1.206 15.31 1.158-7.655 1.207 1.36 1.206 3.592 1.158-1.03 1.206-.794 1.206 14.526L200.62 15.6l1.206 7.533 1.206-8.922 1.158 6.984 1.207-6.634 1.158 16 1.206-16.747 1.206-8.912 1.158 3.421 1.207 15.84 1.206-1.862 1.158-7.627 1.206 13.628 1.158.784 1.207-15.158 1.206-5.907 1.158 5.68 1.206 13.647 1.207 2.334 1.158-3.157 1.206-12.976 1.206 10.576 1.158-5.746 1.207-2.968 1.158.52 1.206-.378 1.206 7.816 1.158 2.561 1.207-12.239 1.206 6.928 1.158.595 1.206 10.273 1.207-.16 1.158-14.489 1.206 14.526 1.158-11.785 1.206.794 1.158 3.08 1.207-8.306 1.206 9.205 1.158-.114 1.206-19.695 1.158 11.662 1.207-7.655 1.206 3.563 1.158 7.532 1.206-11.303 1.207 12.182 1.158-10.008 1.206 5.746 1.206 12.059 1.158-8.326 1.207 2.013 1.158-2.155 1.206 4.763 1.206-5.973 1.158 1.768 1.207-8.487 1.206 8.657 1.158.047 1.206 15.679 1.207-18.297 1.158 14.98 1.206-19.62 1.158 9.914 1.206-1.295 1.207-5.311 1.158 11.51 1.206-9.942 1.206-7.362 1.158 14.45 1.207-12.739 1.158 9.432 1.206-7.183 1.206 7.136 1.158-3.894 1.207-2.41 1.206 14.138 1.158-16.274 1.206-4.782 1.207.047 1.158 19.98 1.206-7.855 1.206-11.284 1.158 10.746 1.207.907 1.158-3.289 1.206 20.244 1.158-22.389 1.206-5.954 1.207-6.691 1.158 37.179 1.206-35.327 1.158 2.892 1.207 10.264 1.206-10.576 1.158 13.742 1.206-4.669 1.206-4.035 1.159 15.007 1.206-.34 1.206-6.086 1.158-7.816 1.207 9.139 1.158-1.522 1.206 3.818 1.206-2.306 1.158-4.753 1.207-3.62 1.206 9.375 1.158-12.134 1.206 8.6 1.206-6.871 1.159.879 1.206 2.76 1.158.897 1.206-5.576 1.207 8.052 1.158-15.839 1.206 9.432 1.206 12.125 1.158-6.001 1.207-8.563 1.158 9.149 1.206-3.988 1.206-.605 1.158 7.712 1.207-.085 1.206-4.64 1.158 2.882 1.206-1.749 1.207-5.283 1.158 8.44 1.206-.425 1.206-4.187 1.158-3.676 1.207 14.979 1.158-20.13 1.206 15.121 1.158-.973 1.206-1.427 1.158-10.727 1.207-.302 1.206 3.62L371.722 1l1.206 18.958 1.207 6.663 1.158-19.242 1.206 16.444 1.206-9.1 1.158-5.189 1.207 11.681 1.206-5.727 1.158-9.715 1.206 19.657 1.158.01 1.207-9.725 1.206-2.902 1.158 5.208 1.206.86 1.207 2.618 1.158-2.212 1.206-2.22 1.206 4.942 1.158-3.875 1.207-11.303 1.158 10.906 1.206 11.625 1.206-15.16 1.158-7.91 1.207-2.75 1.206 22.096 1.158-6.35 1.206 12.257 1.158-19.166 1.207 3.563 1.206 4.196 1.158-1.531 1.206 2.948 1.207-13.854 1.158 2.4 1.206 10.613 1.206-6.72 1.158 9.46 1.207-1.483 1.206-7.636 1.158 11.86 1.206-11.132 1.158.84 1.207 4.055 1.158 4.3 1.206-1.011 1.158-4.366 1.206 12.21 1.207-15.849 1.158 9.64 1.206-4.46 1.206.387 1.159 3.704 1.206-4.81 1.206-1.03 1.158-4.206 1.206.926 1.207 5.264 1.158 2.798 1.206-3.034 1.158 8.837 1.207-7.816 1.206-2.05 1.158 1.313 1.206 6.776 1.207-15.509 1.158 2.75 1.206 10.084 1.158-12.125 1.206 6.219 1.207 5.916 1.158 5.311 1.206-13.392 1.206-2.513 1.158-11.927 1.207 17.011 1.206-7.343 1.158 8.865 1.206 6.53 1.158-18.297 1.207 11.105 1.206-.765 1.158 7.437 1.206-5.472 1.207 3.809 1.158-8.203 1.206-.945 1.206 1.691 1.158 5.113 1.207-21.33 1.206 17.134 1.158 8.997 1.206-7.343 1.158.7 1.207-.095 1.158-2.902 1.206-.926 1.158 4.15 1.206 6.907 1.207-19.79 1.158-2.031 1.206 23.91 1.206-15.168 1.158 4.234 1.207 1.077 1.206-.879 1.158-4.8 1.206 4.762 1.158-9.261 1.207 13.892 1.206 2.902 1.158.585 1.206-4.668 1.207 3.487 1.158-17.125L510.785 22l1.206-9.669 1.158 5.255 1.207-7.249 1.158 6.616 1.206 7.069 1.206-12.267 1.158 12.635 1.207 7.646 1.206-15.735 1.158-5.661 1.206 14.95 1.158-2.485 1.207-11.624 1.206 7.343 1.158 3.393 1.206-1.786 1.207-7.816 1.158 6.426 1.206-9.431 1.206 11.945 1.158-13.854 1.207 17.918 1.206-7.4 1.158-10.065 1.206 20.092 1.158 3.072 1.207-22.833 1.206 12.683 1.158-14.006 1.206 4.045 1.158 2.23 1.207 9.007 1.158-20.84 1.206 15.765 1.206 10.102 1.158-4.404L554.743 27l1.206-10.443 1.158 4.857 1.206-18.589 1.207 6.162 1.158 15.556 1.206-1.919 1.158 3.554 1.207-15.169 1.206 4.215 1.158 7.958 1.206-11.681 1.206 11.577 1.159 6.974L571.39 14.6l1.206 13.391 1.158-11.36 1.206.936 1.159-4.404 1.206-1.607 1.206 17.37 1.158 3.157 1.207-8.562 1.206-1.39 1.158-4.602 1.206 3.866 1.158-16.331 1.207 29.855 1.206-26.973 1.158 21.935 1.206-11.36 1.207 8.289 1.158-12.305 1.206 11.917 1.206-5.538 1.158.256 1.207-.218 1.206 8.137 1.158-13.127 1.206 14.989 1.158-9.262 1.207-6.842 1.206 11.152 1.158-8.893 1.158 7.39" stroke="#fff" stroke-linecap="round" stroke-linejoin="round"/></svg>