<?xml version="1.0" encoding="utf-8"?><svg xmlns="http://www.w3.org/2000/svg" xmlns:xlink="http://www.w3.org/1999/xlink"><symbol viewBox="0 0 9 14" id="arrow" xmlns="http://www.w3.org/2000/svg"><path fill-rule="evenodd" clip-rule="evenodd" d="M2.207 13.707L.793 12.293 6.086 7 .793 1.707 2.207.293 8.914 7l-6.707 6.707z"/></symbol><symbol viewBox="0 0 20 14" id="check" xmlns="http://www.w3.org/2000/svg"><path d="M1 5l7 7L19 1"/></symbol><symbol viewBox="0 0 118 117" id="circle" xmlns="http://www.w3.org/2000/svg"><path d="M59.331 3.23c11.9-.343 23.773 2.886 33.371 9.904 9.625 7.038 16.236 17.438 19.699 28.906 3.424 11.336 3.27 23.438-.51 34.658-3.764 11.174-10.956 20.838-20.506 27.729-9.566 6.903-20.998 10.893-32.76 10.714-11.679-.178-22.734-4.764-32.203-11.71-9.49-6.961-17.15-16.176-20.95-27.288-3.869-11.317-4.386-23.736-.352-34.955 3.964-11.022 12.672-19.373 22.343-26.146C37.013 8.354 47.758 3.565 59.33 3.231z"/><path d="M57.764 116.475c-12.273.354-24.519-2.977-34.418-10.217C13.419 98.998 6.6 88.27 3.029 76.441c-3.531-11.693-3.372-24.177.526-35.75 3.882-11.526 11.3-21.495 21.149-28.603C34.57 4.968 46.36.85 58.49 1.036c12.047.183 23.45 4.914 33.214 12.079 9.786 7.18 17.688 16.685 21.606 28.148 3.991 11.673 4.524 24.484.363 36.058-4.088 11.37-13.07 19.985-23.042 26.97-9.849 6.899-20.932 11.839-32.868 12.184z"/></symbol><symbol viewBox="0 0 9 9" id="close" xmlns="http://www.w3.org/2000/svg"><path d="M4.5 5.23L.73 9 0 8.27 3.77 4.5 0 .73.731 0 4.5 3.77 8.27 0 9 .73 5.23 4.5 9 8.27 8.27 9 4.5 5.23z"/></symbol><symbol viewBox="0 0 40 40" id="decor-1" xmlns="http://www.w3.org/2000/svg"><path fill-rule="evenodd" clip-rule="evenodd" d="M19.49 1.124a46.916 46.916 0 00-.006-.043l1.568-.232.035.232c1.125 7.421 3.026 11.664 5.001 13.955a8.29 8.29 0 001.522 1.398c1.211-.927 2.765-1.723 4.699-2.352.656-.213 1.227-.34 1.715-.386.48-.046.932-.017 1.316.131.408.157.743.453.895.887.142.406.082.817-.04 1.155-.238.666-.807 1.322-1.509 1.845-.719.536-1.65.988-2.709 1.2a6.58 6.58 0 01-4.191-.545c-1.03 1.003-1.617 2.108-1.886 3.24 1.234.183 2.449.444 3.616.779 3.192.917 6.095 2.412 8.038 4.486 1.97 2.103 2.938 4.796 2.198 7.958-.322 1.375-1.094 2.299-2.236 2.653-1.074.334-2.311.11-3.502-.386-2.398-.999-5.07-3.287-7.017-6.037-1.697-2.396-2.93-5.266-2.862-8.07a27.603 27.603 0 00-3.315-.11c1.275 2.728 1.548 5.986.192 9.666-1.448 3.93-3.75 6.175-6.256 7.045a7.476 7.476 0 01-6.953-1.087c-1.884-1.414-3.094-3.72-2.814-6.371.28-2.647 2.023-5.48 5.711-8.042 1.997-1.387 4.618-2.226 7.434-2.59-1.076-1.41-2.474-2.61-4.021-3.572-.185.12-.374.239-.567.356-1.972 1.2-5.427 1.884-8.242 1.847-1.407-.02-2.773-.219-3.76-.705-.5-.246-.96-.594-1.249-1.087-.301-.513-.37-1.103-.216-1.717.266-1.06.989-1.815 1.93-2.29.924-.465 2.076-.675 3.314-.688 2.48-.026 5.505.733 8.275 2.17.15.078.301.158.45.24 3.428-2.455 4.91-5.19 5.498-7.694.63-2.682.257-5.162-.013-6.954l-.043-.285zm1.63 7.469a13.4 13.4 0 01-.031.133c-.646 2.749-2.222 5.646-5.58 8.221 1.732 1.163 3.296 2.629 4.446 4.386a28.916 28.916 0 014.363.084c.302-1.414.977-2.735 2.084-3.903-.513-.392-1.02-.87-1.514-1.443-1.413-1.639-2.713-4.05-3.769-7.478zm-8.598 8.456c-2.48-1.222-5.101-1.839-7.182-1.817-1.09.012-1.981.198-2.618.52-.62.312-.974.734-1.105 1.258-.064.256-.023.413.045.53.081.138.253.305.583.467.673.331 1.758.523 3.08.541 2.542.035 5.524-.574 7.197-1.5zm6.577 5.94c-2.952.285-5.6 1.09-7.494 2.406-3.446 2.393-4.823 4.86-5.04 6.906-.215 2.043.706 3.824 2.19 4.937a5.89 5.89 0 005.481.857c1.953-.678 3.962-2.495 5.288-6.095 1.31-3.554.903-6.561-.424-9.009v-.002zm6.62.195c-.009 2.287 1.009 4.755 2.572 6.962 1.823 2.574 4.277 4.633 6.332 5.49 1.036.43 1.858.51 2.423.335.495-.153.94-.55 1.162-1.5.605-2.584-.158-4.748-1.811-6.513-1.68-1.794-4.29-3.177-7.318-4.046a26.457 26.457 0 00-3.36-.727zm3.502-5.95c.877.271 1.71.272 2.445.125a5.227 5.227 0 002.073-.916c.56-.418.87-.842.965-1.109a.667.667 0 00.014-.044c-.094-.023-.265-.042-.546-.016-.338.032-.79.126-1.373.316-1.447.47-2.627 1.026-3.578 1.645z"/></symbol><symbol viewBox="0 0 60 60" id="decor-10" xmlns="http://www.w3.org/2000/svg"><path fill-rule="evenodd" clip-rule="evenodd" d="M55.907 15.264c.354 2.259-.307 4.548-1.846 6.575-.062.081-.124.162-.186.24.12.253.228.504.325.754.862 2.229.798 4.323.006 6.237-.779 1.884-2.234 3.525-4.043 4.953-1.812 1.431-4.032 2.688-6.42 3.79-7.907 3.645-18.106 5.76-22.51 6.673-.882.183-1.532.318-1.884.407-1.402.355-2.717 1.676-3.822 3.446-1.079 1.73-1.829 3.681-2.182 4.933L11.383 53c0-2.968-.556-10.357-2.735-16.095-1.458-3.839-2.627-10.891-.433-17.408 1.104-3.28 3.063-6.43 6.263-8.941 3.198-2.509 7.579-4.336 13.463-5.063 11.596-1.433 19.607.394 24.037 3.74 2.229 1.683 3.575 3.777 3.929 6.031zm-3.504 8.475c-1.721 1.676-3.384 2.36-4.944 2.077-2.022-.366-3.233-2.247-3.79-3.995-.562-1.766-.633-3.91.11-5.353.395-.766 1.072-1.415 2.07-1.546.944-.124 1.943.249 2.95.955l.045.032.041.036c1.656 1.456 2.945 2.871 3.894 4.25 1.025-1.53 1.387-3.121 1.152-4.62-.259-1.646-1.258-3.31-3.159-4.746-3.831-2.895-11.22-4.755-22.586-3.351-5.596.691-9.615 2.409-12.473 4.651-2.855 2.24-4.606 5.046-5.602 8.006-2.007 5.962-.936 12.524.407 16.06 1.515 3.99 2.277 8.676 2.62 12.29.215-.405.446-.81.693-1.205 1.173-1.88 2.845-3.773 5.027-4.325.417-.106 1.144-.257 2.11-.459 4.527-.942 14.298-2.977 21.938-6.5 2.302-1.061 4.37-2.242 6.018-3.543 1.653-1.304 2.831-2.69 3.434-4.148.57-1.377.653-2.88.045-4.566zm-.938-1.901c-1.688 1.836-2.914 2.144-3.65 2.01-.909-.165-1.758-1.12-2.24-2.634-.477-1.496-.425-3.039-.017-3.83.18-.35.371-.455.552-.479.232-.03.71.037 1.497.579 1.774 1.566 3.026 3.018 3.858 4.354z"/><path fill-rule="evenodd" clip-rule="evenodd" d="M40.978 25.792a1 1 0 01-.77 1.186c-.712.151-1.422.416-2.19.702l-.454.169c-1.564.574-3.136 1.038-4.693 1.499l-.438.13c-1.791.53-3.61 1.006-5.405 1.475l-1.06.279c-.657.172-1.328.362-2.01.556-1.553.44-3.164.896-4.775 1.195a1 1 0 01-.365-1.966c1.518-.282 2.978-.696 4.487-1.124.703-.2 1.418-.402 2.153-.596l1.072-.28c1.795-.47 3.578-.937 5.335-1.457l.43-.128c1.569-.463 3.08-.91 4.58-1.46l.41-.153c.764-.286 1.637-.612 2.507-.797a1 1 0 011.186.77zM31.983 31.817a1 1 0 01-.8 1.166c-.381.071-.76.195-1.199.337l-.267.087c-.904.29-1.813.525-2.701.755l-.251.065c-1.03.267-2.075.506-3.1.741l-.605.139c-.362.083-.738.176-1.124.272-.895.222-1.84.456-2.776.608a1 1 0 11-.32-1.974c.853-.139 1.664-.34 2.518-.552.405-.1.82-.203 1.253-.303l.615-.141c1.025-.235 2.038-.467 3.037-.726l.244-.063c.899-.233 1.752-.453 2.598-.725l.227-.074c.436-.143.962-.315 1.485-.412a1 1 0 011.166.8zM35.967 22.746a1 1 0 01-.713 1.221c-.547.144-1.094.396-1.716.682l-.376.172c-1.276.579-2.56 1.047-3.819 1.507l-.355.13c-1.456.532-2.935 1.01-4.388 1.48l-.857.278c-.516.167-1.051.355-1.599.546-1.265.443-2.598.91-3.92 1.213a1 1 0 01-.447-1.95c1.212-.277 2.366-.682 3.578-1.107a80.338 80.338 0 012.64-.886c1.453-.47 2.89-.934 4.306-1.453l.347-.127c1.272-.464 2.484-.907 3.688-1.453l.324-.148c.617-.286 1.352-.625 2.086-.818a1 1 0 011.221.713zM30.975 20.777a1 1 0 01-.752 1.198c-.406.093-.81.255-1.285.445l-.292.117c-.981.388-1.968.702-2.93 1.008l-.272.087c-1.116.356-2.25.675-3.361.988l-.655.185c-.389.11-.794.234-1.211.361-.971.296-2.002.611-3.02.815a1 1 0 11-.393-1.962c.92-.183 1.791-.45 2.714-.731.44-.135.891-.273 1.365-.407l.666-.188c1.11-.313 2.206-.622 3.287-.967l.265-.084c.973-.31 1.895-.604 2.81-.965l.244-.098c.472-.19 1.048-.422 1.622-.554a1 1 0 011.198.752z"/></symbol><symbol viewBox="0 0 60 61" id="decor-11" xmlns="http://www.w3.org/2000/svg"><path fill-rule="evenodd" clip-rule="evenodd" d="M29.5 50.294c10.217 0 18.5-8.283 18.5-18.5s-8.283-18.5-18.5-18.5S11 21.577 11 31.794s8.283 18.5 18.5 18.5zm0 2c11.322 0 20.5-9.178 20.5-20.5s-9.178-20.5-20.5-20.5S9 20.472 9 31.794s9.178 20.5 20.5 20.5z"/><path fill-rule="evenodd" clip-rule="evenodd" d="M29.2 31.97a11.898 11.898 0 00-1.165-1.068c-1.556-1.251-3.271-2.03-4.412-2.372l-.574 1.916c.918.275 2.397.94 3.733 2.015 1.043.838 1.953 1.888 2.474 3.152.096.535.239 1.01.439 1.381l1.86-.675a8.128 8.128 0 00-.36-1.241 8.94 8.94 0 01-.086-1.022c-.03-1 .066-2.22.344-3.495.56-2.572 1.816-5.214 4.046-6.807l-1.163-1.628c-2.784 1.99-4.22 5.17-4.837 8.01a17.598 17.598 0 00-.3 1.835z"/><path fill-rule="evenodd" clip-rule="evenodd" d="M43.965 6.542c7.304 4.09 12.246 13.1 7.418 22.22l-1.767-.936c4.172-7.88.029-15.811-6.628-19.539-3.311-1.853-7.158-2.6-10.76-1.772-2.008.463-3.973 1.421-5.753 2.995 2.688.468 5.356 1.284 7.8 2.506l-.895 1.79c-2.674-1.338-5.651-2.152-8.604-2.53-.74.9-1.434 1.932-2.068 3.109l-1.76-.948c.46-.854.951-1.644 1.471-2.371-3.66-.189-7.144.273-9.809 1.213-2.73.963-4.256 2.299-4.588 3.606-.303 1.192.274 2.975 3.39 5.214l-1.168 1.624c-3.285-2.361-4.783-4.879-4.16-7.33.593-2.337 2.992-3.989 5.861-5 3.26-1.15 7.577-1.64 12.016-1.22 2.297-2.468 4.99-3.956 7.818-4.607 4.164-.958 8.516-.078 12.186 1.976zM5.483 34.94c.612.397 1.272.76 1.956 1.052 4.94 2.115 12.707 3.896 20.677 4.824 7.976.93 16.007.987 21.49-.255 1.715-.388 3.136-.894 4.215-1.51 1.08-.617 1.759-1.311 2.096-2.053.334-.735.005-1.905-1.266-2.956-1.211-1.003-2.95-1.568-4.581-1.16l-.485-1.94c2.37-.593 4.746.239 6.341 1.56 1.538 1.271 2.708 3.351 1.812 5.324-.566 1.245-1.616 2.213-2.924 2.96-1.31.75-2.936 1.312-4.766 1.726-5.81 1.316-14.105 1.23-22.164.29-8.066-.939-16.044-2.75-21.232-4.97-.56-.24-1.105-.52-1.626-.825-.321 1.346-.614 2.646-.582 3.863.033 1.252.409 2.345 1.483 3.24.015.007.045.02.095.037.113.039.275.083.487.127.423.087.979.161 1.6.207 1.26.092 2.668.058 3.677-.163l.428 1.954c-1.274.279-2.896.303-4.25.204a14.79 14.79 0 01-1.86-.244 6.04 6.04 0 01-.734-.194 2.208 2.208 0 01-.676-.352c-1.65-1.35-2.204-3.06-2.249-4.764-.041-1.561.346-3.176.672-4.533a394.107 394.107 0 00.139-.582c-.85-.66-1.575-1.359-2.115-2.008a7.016 7.016 0 01-.746-1.064C.21 32.4.047 32.012.008 31.612c-.04-.427.062-.975.544-1.355.422-.332.94-.373 1.347-.344.975.07 1.798.294 2.435.738.665.463 1.034 1.101 1.195 1.801.153.667.118 1.382.022 2.061-.02.14-.042.282-.068.426zm-1.85-1.43a2.559 2.559 0 00-.053-.608c-.066-.285-.186-.467-.39-.61-.175-.121-.46-.246-.923-.324.106.165.243.35.41.55.264.317.587.653.956.992zm-2-1.6l.007-.001a.037.037 0 01-.007 0z"/></symbol><symbol viewBox="0 0 61 60" id="decor-12" xmlns="http://www.w3.org/2000/svg"><path fill-rule="evenodd" clip-rule="evenodd" d="M5.094 16.999c0-6.627 5.372-12 12-12h17.25c6.627 0 12 5.373 12 12v5.61c5.164 2.37 8.75 7.586 8.75 13.64v3.75c0 8.284-6.716 15-15 15h-26.25V38.304c-5.049-1.417-8.75-6.054-8.75-11.555v-9.75zm12 21.75c-.252 0-.502-.008-.75-.023v13.773h23.75c6.903 0 12.5-5.596 12.5-12.5v-3.75c0-4.627-2.514-8.666-6.25-10.828V38.75h-29.25zm9.25 5h15v-2h-15v2zm12.5 5h-12.5v-2h12.5v2zM28.03 24.335h-1.97l-.005-.053a8.417 8.417 0 01-.033-.648c0-1.875.832-2.727 1.608-3.523l.002-.001.01-.01c.735-.716 1.316-1.283 1.316-2.075 0-.663-.549-1.326-1.648-1.326-.928 0-1.63.379-2.217 1.08l-1.25-1.383c1.042-1.08 2.16-1.61 3.713-1.61 2.274 0 3.638 1.458 3.638 3.012 0 1.352-.84 2.19-1.803 3.15-.05.048-.099.097-.148.147-.682.663-1.25 1.345-1.25 2.69 0 .17.018.36.037.55zm-2.293 2.482c0-.91.664-1.326 1.327-1.326.682 0 1.345.416 1.345 1.326 0 .89-.663 1.307-1.345 1.307-.663 0-1.327-.416-1.327-1.307z"/></symbol><symbol viewBox="0 0 52 51" id="decor-13" xmlns="http://www.w3.org/2000/svg"><path fill-rule="evenodd" clip-rule="evenodd" d="M35.154 2.112c-5.436-.65-10.62 1.47-12.429 7.124-.577 1.805-.674 3.307-.478 4.543 2.082.16 4.207.844 6.144 2.366.92.724 1.57 1.43 1.882 2.125.161.36.253.763.192 1.18a1.733 1.733 0 01-.576 1.058c-.551.488-1.331.616-2.01.605-.722-.012-1.535-.183-2.346-.5-1.62-.634-3.36-1.906-4.412-3.922a8.175 8.175 0 01-.417-.937c-.58.027-1.159.096-1.728.2-2.753.497-5.217 1.776-6.618 2.788l-1.17-1.621c1.599-1.155 4.335-2.576 7.432-3.136a15.321 15.321 0 011.607-.205c-.184-1.5-.026-3.217.593-5.153C23.011 1.78 29.328-.6 35.392.127c6.025.72 12.16 4.523 14.32 10.463 2.066 5.68 2.819 14.098 1.802 21.724-.51 3.821-1.47 7.495-2.968 10.557-1.496 3.058-3.565 5.575-6.326 6.955-.294.147-.623.2-.904.221-.297.022-.63.013-.982-.018-.705-.06-1.573-.211-2.558-.436-1.974-.45-4.509-1.216-7.319-2.228-5.618-2.025-12.42-5.07-18.151-8.648-2.866-1.788-5.488-3.726-7.565-5.755-2.067-2.019-3.655-4.187-4.353-6.446-.713-2.309-.479-4.662 1.005-6.908 1.453-2.2 4.057-4.229 7.95-6.08l.012-.005.012-.005c3.726-1.656 7.097-2.087 8.405-2.087v2c-1.023 0-4.112.37-7.581 1.91-3.725 1.771-5.96 3.6-7.13 5.37-1.139 1.724-1.307 3.453-.762 5.214.56 1.812 1.89 3.702 3.84 5.607 1.94 1.895 4.435 3.747 7.226 5.489 5.582 3.484 12.248 6.472 17.77 8.462 2.76.995 5.214 1.734 7.086 2.16.938.214 1.707.344 2.284.394.288.024.508.027.665.015.112-.008.164-.021.173-.023 2.231-1.123 4.032-3.228 5.406-6.037 1.377-2.813 2.292-6.264 2.782-9.943.984-7.373.236-15.456-1.698-20.776-1.84-5.06-7.204-8.506-12.679-9.161zM22.953 15.876c.797 1.452 2.086 2.396 3.31 2.874.626.246 1.204.356 1.65.363.254.005.421-.024.522-.052-.127-.26-.48-.715-1.28-1.343a9.08 9.08 0 00-4.202-1.842z"/></symbol><symbol viewBox="0 0 42 50" id="decor-14" xmlns="http://www.w3.org/2000/svg"><path fill-rule="evenodd" clip-rule="evenodd" d="M18.5 2h5a8 8 0 018 8v15a8 8 0 01-8 8h-5a8 8 0 01-8-8V10a8 8 0 018-8zm-10 8c0-5.523 4.477-10 10-10h5c5.523 0 10 4.477 10 10v15c0 5.523-4.477 10-10 10h-1.25v6.46C32.16 40.816 40 32.572 40 22.5h2c0 11.178-8.734 20.317-19.75 20.963V47.5h7.5V50H13.5v-2.5h6.25v-4.037C8.734 42.817 0 33.678 0 22.5h2c0 10.073 7.84 18.316 17.75 18.96V35H18.5c-5.523 0-10-4.477-10-10V10zm18.75 3.75h-12.5v-2h12.5v2zm-12.5 5h12.5v-2h-12.5v2z"/></symbol><symbol viewBox="0 0 35 36" id="decor-15" xmlns="http://www.w3.org/2000/svg"><path fill-rule="evenodd" clip-rule="evenodd" d="M17.38 2.066c-.125.09-.325.279-.577.657-.051.076-.11.162-.178.258a12.983 12.983 0 00-1.643 3.075c-.567 1.493-1.093 3.583-1.277 6.477.393.166.756.331 1.092.496-.08-2.718.278-5.984 1.986-8.506l.408-.602.565.459c4.057 3.296 6.744 7.536 8.723 11.531.99 1.999 1.806 3.945 2.526 5.685.058.139.115.276.17.412.583 1.409 1.099 2.655 1.6 3.687h1.513c-.24-.516-.476-1.027-.71-1.534-3.857-8.347-7.156-15.484-14.198-22.095zm.13-.071l-.01.003.01-.003zm14.22 25.033h2.65l-.443-.948c-.393-.843-.777-1.676-1.158-2.5C28.892 15.165 25.458 7.73 18.053.87l-.07-.064-.085-.043c-.37-.184-.791-.082-1.12.108-.352.202-.716.56-1.084 1.112a12.73 12.73 0 01-.161.233c-.395.563-1.135 1.617-1.798 3.367-.588 1.551-1.116 3.64-1.33 6.439-2.62-.962-6.353-1.971-11.611-2.991L.54 10.34c5.497 1.066 9.255 2.11 11.787 3.076-.005.122-.009.244-.012.367a31.624 31.624 0 00-4.522-1.469c-2.153-.515-4.549-.802-6.415-.267l.367 1.282c1.52-.436 3.632-.222 5.738.282a29.71 29.71 0 015.206 1.789l.947.437v-1.043c0-.284.003-.562.009-.833.477.215.89.422 1.245.621.098 1.084.248 2.037.386 2.762a24.683 24.683 0 00.3 1.374l.021.079.006.021.002.006v.002l.643-.176-.643.177.219.794.73-.379-.306-.592.308.592.001-.001.003-.002.008-.004.018-.01.008-.004.082-.047a4.225 4.225 0 001.01-.839c.25-.294.497-.684.595-1.164.101-.495.034-1.034-.264-1.582-.325-.596-.917-1.194-1.85-1.796a20.408 20.408 0 01-.009-.14c-.145-2.52.078-5.452 1.342-7.748 3.529 3.053 5.947 6.889 7.784 10.598.968 1.954 1.77 3.865 2.49 5.603l.175.426c.646 1.56 1.235 2.985 1.818 4.132l.04.08.06.065c.223.245.442.537.678.859l.066.09c-6.05-1.658-10.188-3.333-12.877-4.717-.084-.102-.168-.2-.25-.297-1.044-1.217-1.989-2.05-2.733-2.559a4.802 4.802 0 00-.998-.545 1.75 1.75 0 00-.457-.11.915.915 0 00-.61.152.796.796 0 00-.33.721c.016.2.097.373.169.496.149.257.399.536.717.825.65.59 1.72 1.343 3.299 2.195l.335.178c1.89 2.338 4.142 6.068 6.074 11.652l1.26-.436c-1.495-4.323-3.19-7.59-4.791-9.997 3.052 1.346 7.272 2.84 12.953 4.286.296.157.639.253 1.022.218l.1-1.311c-.204-.05-.407-.101-.607-.152-.174-.12-.365-.31-.584-.574a16.04 16.04 0 01-.574-.755zM16.345 15.606a27.589 27.589 0 00.316 1.875l.01-.012c.158-.184.264-.375.303-.566.036-.174.025-.394-.13-.676a2.59 2.59 0 00-.5-.621z"/></symbol><symbol viewBox="0 0 39 40" id="decor-2" xmlns="http://www.w3.org/2000/svg"><path fill-rule="evenodd" clip-rule="evenodd" d="M31.963 4.23C24.098-.148 14.222.855 7.899 7.177L6.561 8.516c-6.675 6.674-6.675 17.495 0 24.17l1.287 1.286c5.963 5.964 15.632 5.964 21.595 0l1.068-1.067c6.287-6.288 5.22-16.763-2.206-21.653l-1.26-.83a12.188 12.188 0 00-15.322 1.56l-.848.848c-4.292 4.291-4.292 11.25 0 15.541l1.287 1.288a9.169 9.169 0 0012.967 0l.977-.978c3.901-3.901 2.885-10.469-2.013-13.009l-1.227-.636a6.268 6.268 0 00-7.317 1.132l-.668.668a5.324 5.324 0 000 7.529l1.348 1.348a3.418 3.418 0 004.833 0l.518-.518c1.474-1.474.98-3.97-.943-4.772l-1.322-.55a.789.789 0 00-.861 1.285l.741.742-1.1 1.1-.74-.742a2.344 2.344 0 012.558-3.82l1.322.55c2.944 1.227 3.7 5.05 1.445 7.306l-.518.518a4.973 4.973 0 01-7.033 0l-1.347-1.348a6.879 6.879 0 010-9.728l.667-.667a7.823 7.823 0 019.133-1.413l1.227.636c5.831 3.024 7.042 10.844 2.397 15.489l-.978.977c-4.188 4.188-10.977 4.188-15.165 0l-1.288-1.287c-4.898-4.9-4.898-12.842 0-17.74l.848-.848A13.743 13.743 0 0127.9 9.123l1.261.83c8.25 5.432 9.434 17.067 2.45 24.052l-1.067 1.067c-6.57 6.57-17.224 6.57-23.795 0l-1.287-1.287c-7.281-7.282-7.281-19.087 0-26.369L6.8 6.077c6.855-6.855 17.5-7.892 25.92-3.206A139.63 139.63 0 0038.1 5.73l-.696 1.39c-1.74-.87-3.591-1.86-5.441-2.89z"/></symbol><symbol viewBox="0 0 40 41" id="decor-3" xmlns="http://www.w3.org/2000/svg"><g clip-path="url(#amclip0)"><path fill-rule="evenodd" clip-rule="evenodd" d="M23 5.5h3a1 1 0 011 1v2h-5v-2a1 1 0 011-1zm6 3.797V6.5a3 3 0 00-3-3h-3a3 3 0 00-3 3v2.504a15.99 15.99 0 00-7.671 4.551A1 1 0 0012 13.5H5a1 1 0 100 2h5.77a15.938 15.938 0 00-1.973 4H2a1 1 0 100 2h6.28a16.087 16.087 0 00-.25 4H5a1 1 0 100 2h3.28c.268 1.407.719 2.75 1.328 4H5a1 1 0 100 2h5.77c2.88 4.225 7.73 7 13.23 7 8.837 0 16-7.163 16-16 0-3.82-1.339-7.328-3.573-10.079l-1.308 1.57A13.94 13.94 0 0138 24.5c0 7.732-6.268 14-14 14s-14-6.268-14-14 6.268-14 14-14c3.18 0 6.111 1.06 8.462 2.846l1.281-1.538A15.96 15.96 0 0029 9.297zM23 12.5v3h2v-3h-2zm0 24v-3h2v3h-2zm-11-11h3v-2h-3v2zm24 0h-3v-2h3v2zm-20.485 8.485l2.121-2.121-1.414-1.414L14.1 32.57l1.414 1.414zm0-16.97l2.121 2.12 1.414-1.413L16.93 15.6l-1.414 1.415zm16.97 16.97l-2.12-2.121 1.413-1.414L33.9 32.57l-1.415 1.414zm-6.949-8.205L37 10 24 24.5l1.536 1.28z"/></g><defs><clipPath id="amclip0"><path d="M0 .5h40v40H0z"/></clipPath></defs></symbol><symbol viewBox="0 0 40 41" id="decor-4" xmlns="http://www.w3.org/2000/svg"><g clip-path="url(#anclip0)"><path fill-rule="evenodd" clip-rule="evenodd" d="M1 2.5h28v-2H1v2zm36 21a2 2 0 00-2-2H23a2 2 0 00-2 2v13a2 2 0 002 2h12a2 2 0 002-2v-13zm-14-4a4 4 0 00-4 4v5H1v2h18v6a4 4 0 004 4h12a4 4 0 004-4v-13a4 4 0 00-4-4H23zm11.207 8.707l-5.5 5.5-.707.707-.707-.707-3-3 1.414-1.414L28 31.586l4.793-4.793 1.414 1.414zM29 16.5H1v-2h28v2zm-28 7h15v-2H1v2zm0-14h38v-2H1v2z"/></g><defs><clipPath id="anclip0"><path d="M0 .5h40v40H0z"/></clipPath></defs></symbol><symbol viewBox="0 0 60 60" id="decor-5" xmlns="http://www.w3.org/2000/svg"><path fill-rule="evenodd" clip-rule="evenodd" d="M4 4.5a1 1 0 011-1c13.82 0 24.948 1.618 31.686 3.32 1.686.427 3.11.862 4.239 1.283 1.108.412 2.001.837 2.576 1.266.272.204.593.495.76.89.091.218.143.487.088.781a1.358 1.358 0 01-.371.699c-.304.31-.719.465-1.064.557a7.44 7.44 0 01-1.341.201c-1.624.119-3.74.24-6.13.379-5.053.292-11.331.655-16.767 1.2-4.01.401-7.462.894-9.578 1.505a8.45 8.45 0 00-1.246.449 3.029 3.029 0 00-.28.149l.028.021c1.747 1.31 4.113 1.77 6.854 1.816 1.942.032 3.95-.14 5.956-.312.843-.072 1.685-.145 2.522-.202 2.728-.186 5.466-.217 7.533.692 1.072.471 1.982 1.2 2.61 2.282.622 1.068.925 2.404.925 4.024v15a1 1 0 11-2 0v-15c0-1.38-.259-2.34-.654-3.019-.386-.665-.945-1.13-1.686-1.456-1.558-.685-3.82-.716-6.592-.527-.761.052-1.558.12-2.375.19-2.048.175-4.222.362-6.272.328-2.883-.049-5.767-.526-8.02-2.216-.389-.291-.78-.685-.93-1.213-.175-.613.035-1.159.37-1.55.303-.352.727-.612 1.152-.814.441-.21.967-.395 1.55-.564 2.31-.667 5.928-1.172 9.934-1.574 5.474-.548 11.857-.917 16.93-1.21a450 450 0 006.07-.376c-.334-.16-.75-.335-1.25-.522-1.043-.389-2.394-.803-4.031-1.217C29.64 7.103 18.68 5.5 5 5.5a1 1 0 01-1-1z"/><path d="M36 48a3 3 0 11-6 0 3 3 0 016 0z"/><path fill-rule="evenodd" clip-rule="evenodd" d="M32.499 23L14.745 53.75h35.507L32.5 23zm.866-2.5a1 1 0 00-1.732 0L12.147 54.25a1 1 0 00.866 1.5h38.971a1 1 0 00.866-1.5L33.365 20.5z"/></symbol><symbol viewBox="0 0 60 61" id="decor-6" xmlns="http://www.w3.org/2000/svg"><path fill-rule="evenodd" clip-rule="evenodd" d="M20.5 1.294a1 1 0 00-1 1v12a1 1 0 102 0v-12a1 1 0 00-1-1z"/><path d="M26.5 5.928a1 1 0 010 1.732l-5.25 3.031a1 1 0 01-1.5-.866V3.763a1 1 0 011.5-.866l5.25 3.031z"/><path fill-rule="evenodd" clip-rule="evenodd" d="M31.234 14.448c-.733-1.4-2.724-1.436-3.508-.064L16.633 33.798l1.736.992 11.094-19.414 10.152 19.382 1.772-.928-10.153-19.382z"/><path fill-rule="evenodd" clip-rule="evenodd" d="M22.233 14.463c-.73-1.406-2.726-1.447-3.512-.071L7.63 33.798l1.737.992 11.09-19.406 6.169 11.898.015.026c1.497 2.495 4.91 8.117 6.526 10.54 1.063 1.595 3.032 3.826 5.605 5.475 2.58 1.654 5.856 2.775 9.452 1.945 3.334-.769 6.068-1.958 7.956-4.055C58.087 39.095 59 36.198 59 32.293c0-4.002-1.48-7.439-3.558-9.959-2.06-2.5-4.77-4.168-7.3-4.53-1.923-.275-4.309.003-6.412.45-2.109.446-4.073 1.094-5.177 1.645l.894 1.79c.896-.449 2.682-1.052 4.698-1.48 2.022-.428 4.136-.65 5.714-.425 1.923.275 4.215 1.607 6.04 3.822A13.615 13.615 0 0157 32.294c0 3.596-.837 5.948-2.306 7.58-1.487 1.654-3.753 2.715-6.919 3.445-2.904.67-5.627-.208-7.923-1.68-2.302-1.475-4.083-3.494-5.02-4.9-1.579-2.368-4.948-7.915-6.459-10.433l-6.14-11.843z"/><path fill-rule="evenodd" clip-rule="evenodd" d="M6.22 28.727c1.229-1.224 2.836-1.798 3.914-1.942l-.264-1.982c-1.422.19-3.464.915-5.061 2.508-1.638 1.633-2.736 4.11-2.3 7.607.277 2.206 1.126 3.83 2.503 4.974 1.344 1.115 3.092 1.688 5.01 2.013 1.92.325 4.127.42 6.455.498l.752.025c2.127.069 4.366.141 6.678.361 6.237.594 11.278 4.073 13.089 7.443.893 1.661.937 3.142.221 4.283-.742 1.182-2.485 2.307-5.856 2.789-5.04.72-11.09-.044-16.017-1.71-2.46-.832-4.594-1.874-6.163-3.029-1.59-1.17-2.478-2.364-2.699-3.467l-1.96.392c.362 1.813 1.71 3.39 3.473 4.686 1.784 1.313 4.12 2.437 6.708 3.312 5.172 1.749 11.539 2.568 16.94 1.796 3.629-.518 6.073-1.801 7.268-3.706 1.222-1.948.953-4.235-.153-6.293-2.19-4.071-7.898-7.842-14.661-8.486-2.379-.227-4.682-.302-6.802-.37l-.752-.025c-2.345-.079-4.42-.172-6.186-.471-1.77-.3-3.115-.79-4.068-1.58-.92-.764-1.57-1.89-1.795-3.683-.362-2.903.54-4.76 1.727-5.943z"/><path d="M2.5 50.294a3 3 0 106 0 3 3 0 00-6 0z"/></symbol><symbol viewBox="0 0 60 60" id="decor-7" xmlns="http://www.w3.org/2000/svg"><path fill-rule="evenodd" clip-rule="evenodd" d="M9.216 3.157c-2.24.565-4.23 2.565-5.375 4.34L2.16 6.415c1.266-1.965 3.618-4.452 6.565-5.196 1.511-.381 3.16-.297 4.827.53 1.65.816 3.25 2.322 4.761 4.666.383.593.737 1.265 1.064 2.006 1.8.071 3.65.31 5.508.68 4.606.917 9.337 2.663 13.596 4.8 4.256 2.134 8.08 4.678 10.856 7.22 1.387 1.269 2.536 2.558 3.345 3.817.801 1.248 1.318 2.541 1.318 3.798 0 1.439-1 2.777-2.254 3.951-1.302 1.22-3.117 2.476-5.209 3.742-3.796 2.296-8.669 4.716-13.423 7.077l-1.462.727c-3.86 1.921-7.547 3.785-10.486 5.515a32.672 32.672 0 01-.893 3.37c-.585 1.77-1.32 3.276-2.282 4.125-.506.447-1.127.757-1.847.758-.713 0-1.365-.304-1.937-.773-.59-.485-1.007-1.093-1.118-1.827-.11-.721.1-1.407.446-2.013.667-1.171 2.01-2.338 3.644-3.477a42.346 42.346 0 012.203-1.426c.576-2.96.988-6.548 1.205-10.4.326-5.81.203-12.145-.448-17.71a67.156 67.156 0 00-.492-3.462c-.344.054-.7.095-1.06.127-2.286.198-5.02-.005-7.25-.498-1.114-.246-2.15-.575-2.96-.99-.743-.381-1.582-.981-1.79-1.911-.237-1.066.45-1.923 1.28-2.523.863-.626 2.196-1.226 4.039-1.814 1.64-.524 3.41-.804 5.258-.882-.171-.331-.348-.64-.531-.923-1.383-2.144-2.738-3.35-3.968-3.958-1.212-.6-2.368-.656-3.45-.383zm8.803 7.242c-1.98.02-3.835.277-5.504.81-1.775.566-2.868 1.089-3.475 1.528-.357.258-.46.419-.489.486.038.061.195.27.74.549.599.307 1.453.59 2.478.816 2.045.452 4.575.638 6.647.458.302-.026.59-.06.86-.1-.356-1.697-.775-3.229-1.257-4.547zm3.575 6.023a7.28 7.28 0 00.093-.037c.838-.338 1.706-.906 2.006-1.874l-1.911-.59c-.025.08-.143.272-.575.489a37.159 37.159 0 00-1.048-3.944c1.405.098 2.857.3 4.336.595 4.4.877 8.96 2.555 13.09 4.626 4.132 2.072 7.792 4.519 10.402 6.908 1.306 1.194 2.326 2.354 3.013 3.423.694 1.08 1 1.994 1 2.717 0 .541-.42 1.368-1.62 2.491-1.15 1.078-2.826 2.25-4.877 3.49-3.72 2.25-8.515 4.632-13.289 7.004l-1.452.721c-3.216 1.601-6.382 3.195-9.113 4.724.441-2.708.756-5.77.935-8.97.332-5.905.209-12.357-.457-18.053a68.83 68.83 0 00-.533-3.72zM8.542 13.258l.003-.02c0 .014-.002.02-.003.02zm10.201 38.005l-.42.288c-1.604 1.12-2.62 2.072-3.05 2.826-.203.358-.227.586-.206.724.02.125.096.322.41.58.333.273.55.319.666.319.11 0 .28-.041.525-.257.54-.476 1.14-1.538 1.707-3.253.127-.385.25-.795.368-1.227z"/><path d="M38.5 27.634a1 1 0 010 1.732l-5.25 3.031a1 1 0 01-1.5-.866V25.47a1 1 0 011.5-.866l5.25 3.031z"/></symbol><symbol viewBox="0 0 60 60" id="decor-8" xmlns="http://www.w3.org/2000/svg"><path fill-rule="evenodd" clip-rule="evenodd" d="M18.976 10.245l-.043 1.73v.011l-.002.04-.007.17c-.007.152-.02.379-.04.673a44.743 44.743 0 01-.252 2.496 52.447 52.447 0 01-1.725 8.208c-1.903 6.396-5.538 13.762-12.443 18.13l-1.347.853 1.354.842c3.775 2.348 10.094 5.78 16.824 8.467 6.686 2.67 13.956 4.679 19.557 4.003l.33-.04.242-.23C52.932 44.584 53.999 31.359 53.999 21.11v-1h-1c-8.907 0-17.049-2.239-22.979-4.49a72.556 72.556 0 01-7.019-3.089c-.828-.42-1.47-.77-1.902-1.012a30.367 30.367 0 01-.61-.352l-.029-.017-.006-.004h-.001l-1.477-.902zm1.852 3.408a49.125 49.125 0 01-.212 1.966 54.465 54.465 0 01-1.792 8.524c-1.845 6.203-5.34 13.56-11.975 18.36 3.756 2.234 9.318 5.16 15.187 7.505 6.505 2.597 13.216 4.406 18.248 3.91C50.6 43.882 51.92 31.96 51.995 22.103c-8.83-.16-16.835-2.39-22.684-4.611a74.559 74.559 0 01-7.215-3.175c-.485-.247-.909-.47-1.268-.663z"/><path fill-rule="evenodd" clip-rule="evenodd" d="M14.106 41.553a1 1 0 011.341-.447l8 4a1 1 0 11-.894 1.789l-8-4a1 1 0 01-.447-1.342zM16.122 37.521a1 1 0 011.357-.399l11 6a1 1 0 11-.958 1.756l-11-6a1 1 0 01-.399-1.357zM24.132 36.504a1 1 0 011.364-.372l7 4a1 1 0 01-.992 1.736l-7-4a1 1 0 01-.372-1.364z"/><path fill-rule="evenodd" clip-rule="evenodd" d="M5 5a1 1 0 011-1c12.614 0 22.774 1.526 28.931 3.135 1.541.402 2.844.813 3.878 1.212 1.014.39 1.84.795 2.374 1.208.254.196.557.48.713.864.086.21.135.47.083.752a1.34 1.34 0 01-.352.682c-.292.309-.69.462-1.014.55a6.69 6.69 0 01-1.245.194c-1.484.112-3.416.227-5.597.358-4.608.275-10.329.617-15.284 1.13-3.658.379-6.797.842-8.716 1.415a7.447 7.447 0 00-1.12.417 2.9 2.9 0 00-.187.1c1.64 1.26 3.955 2.04 6.516 2.566 2.104.431 4.278.673 6.267.895.44.048.869.096 1.287.145 1.142.133 2.208.273 3.099.461.855.18 1.7.434 2.287.873.313.234.607.56.75 1.006.147.453.097.907-.056 1.316-.282.753-.974 1.506-1.904 2.287-3.98 3.344-4.522 5.885-4.074 7.582.48 1.815 2.212 3.208 3.841 3.94l-.82 1.824c-1.867-.839-4.25-2.59-4.954-5.253-.736-2.783.471-6.055 4.721-9.625.895-.75 1.23-1.221 1.317-1.457l.002-.003a.578.578 0 00-.02-.015c-.211-.158-.677-.343-1.504-.518-.791-.167-1.777-.3-2.916-.432-.399-.046-.815-.092-1.245-.14-1.991-.221-4.277-.475-6.48-.927-2.669-.547-5.359-1.41-7.366-2.966-.363-.281-.728-.663-.87-1.172-.161-.587.032-1.112.348-1.493.285-.344.685-.596 1.079-.79.409-.2.895-.378 1.43-.537 2.118-.633 5.427-1.11 9.082-1.489 4.995-.517 10.823-.865 15.452-1.142 2.07-.124 3.901-.233 5.31-.337-.267-.125-.583-.26-.953-.403-.946-.364-2.174-.754-3.664-1.143C28.456 7.51 18.469 6 6 6a1 1 0 01-1-1zm21.784 17.614v-.002.002zm-.026-.093v-.001z"/></symbol><symbol viewBox="0 0 60 50" id="decor-9" xmlns="http://www.w3.org/2000/svg"><path d="M52.63 37.23c0 1.052-1.053 2.104-2.105 3.157-1.053 1.053-1.053 1.053 0 2.105l1.052 1.053-3.158 2.105-1.052-2.105h-1.053c-2.105 1.052-3.158 1.052-5.263 1.052 0 0-1.053 0-1.053 1.053v2.105l-3.157-1.052v-3.158c-2.106-1.053-3.158-1.053-4.211-2.105-1.053-1.053-1.053-1.053-2.105-1.053l-1.053 1.053-2.105-2.106 2.105-1.052v-1.053c-1.053-2.105-1.053-3.158-1.053-5.263 0 0 0-1.053-1.052-1.053h-2.105l1.052-3.158h2.105s1.053 0 1.053-1.052c1.053-1.053 1.053-2.105 3.158-3.158V21.44l-1.053-1.053 2.106-2.105 1.052 1.052c0 1.053 1.053 1.053 2.105 1.053 1.053-1.053 2.106-1.053 4.211-1.053 0 0 1.053 0 1.053-1.052v-2.106l3.157 1.053v2.105s0 1.053 1.053 1.053 2.105 1.053 3.158 2.105c1.053 1.053 2.105 1.053 2.105 0l2.106-1.052 1.052 3.157-1.052 1.053c-1.053 0-1.053 1.053-1.053 1.053 1.053 2.105 1.053 3.158 1.053 5.263l1.052 1.053h2.105l-1.052 3.157h-1.053c-1.052 0-2.105 0-2.105 1.053zm4.21 2.104c1.053 0 1.053-1.052 1.053-1.052l2.105-5.263c0-1.053 0-1.053-1.052-1.053v-1.053h-3.158v-4.21l2.105-1.053v-1.052l-3.158-5.264h-1.052c0-1.052-1.053 0-1.053 0l-2.105 1.053c0-1.053-1.053-1.053-2.106-2.105v-2.106c0-1.052 0-1.052-1.052-1.052l-5.263-1.053H41.05s-1.053 0-1.053 1.053v2.105h-3.157l-2.106-1.053v-1.052h-1.052l-5.264 3.158v2.105l1.053 2.105c-1.053 1.053-1.053 2.105-2.105 3.158l-2.105-1.052h-1.053v1.052l-1.053 5.263c0 1.053 0 2.106 1.053 2.106h2.105v4.21l-1.052 1.053h-1.053v1.052l3.158 5.263h2.105l2.105-1.052c1.053 1.052 2.106 1.052 3.158 2.105l-1.052 2.105c0 1.053 1.052 1.053 1.052 1.053l6.316 1.053s1.053 0 1.053-1.053v-2.105h4.21l1.053 1.052c0 1.053 0 1.053 1.052 1.053h1.053l4.21-3.158c1.053-1.053 1.053-1.053 0-2.105L52.63 41.44c1.053-1.053 2.105-2.106 2.105-3.158l2.105 1.052z"/><path d="M47.368 33.018c0 2.105-1.053 3.158-2.105 4.21-2.105 1.053-3.158 1.053-5.263 1.053s-3.158-1.052-4.21-3.157c-1.053-1.053-1.053-3.158-1.053-4.211 0-2.105 1.052-3.158 3.157-4.21C38.947 25.65 40 25.65 41.053 25.65h1.053c4.21 0 6.316 4.21 5.263 7.368zm-4.21-10.526c-3.158 0-5.264 0-7.369 2.105-2.105 1.053-3.158 3.158-3.158 5.263-1.052 3.158 0 5.264 1.053 7.369 1.053 2.105 3.158 3.158 6.316 3.158 0 1.052 1.052 1.052 1.052 1.052 4.21 0 8.421-3.158 9.474-7.368 1.053-5.263-3.158-10.526-7.368-11.58zM3.158 14.071c1.053 0 1.053 0 1.053-1.053 0-1.052 0-2.105 1.052-3.157V8.808L4.211 7.755l1.052-1.052h1.053c0 1.052 1.052 1.052 1.052 0 1.053 0 2.106-1.053 3.158-1.053 0-1.053 1.053-1.053 1.053-1.053l-1.053-2.105h3.158v1.053c0 1.052 0 1.052 1.053 1.052s2.105 0 3.158 1.053h1.052L20 4.597l2.105 1.053-1.052 1.053v1.052c1.052 1.053 1.052 2.106 2.105 3.158 0 0 0 1.053 1.052 1.053l1.053-1.053v3.158H24.21c-1.052 0-1.052 0-1.052 1.053 0 1.052 0 2.105-1.053 3.158 0 0 0 1.052 1.053 1.052l1.052 1.053-2.105 2.105-1.052-1.053H20c-1.053 1.053-2.105 1.053-3.158 2.106v2.105h-2.105l-1.053-1.053c0-1.052 0-1.052-1.052-1.052-1.053 0-2.106 0-3.158-1.053 0 0-1.053 0-1.053 1.053l-1.053 1.052-1.052-2.105V21.44c1.052 0 1.052-1.052 0-1.052 0-1.053-1.053-2.105-1.053-3.158H2.105v-2.105l1.053-1.053zm-2.105 4.21s0 1.053 1.052 1.053l1.053-1.052c1.053 1.052 1.053 2.105 1.053 3.157v1.053c-1.053 0-1.053 0-1.053 1.053H4.21l3.157 3.158s1.053 0 1.053-1.053l1.053-1.053c1.052 0 2.105 1.053 3.158 1.053v2.105H17.894c0-1.052 1.053-1.052 1.053-1.052l-1.052-2.106c1.052 0 2.105-1.052 3.158-1.052l1.052 1.052s1.053 0 1.053-1.052l3.158-3.158s0-1.053-1.053-1.053l-1.053-1.052c0-1.053 1.053-2.106 1.053-3.158h2.105V9.86c-1.052 0-1.052-1.053-1.052-1.053L24.21 9.86c0-1.053-1.053-2.106-1.053-3.158L24.21 5.65c0-1.053 0-1.053-1.052-1.053L20 2.492c0-1.053 0-1.053-1.053-1.053v1.053l-1.052 1.053c-1.053 0-2.105-1.053-3.158-1.053V1.44c0-1.052 0-1.052-1.053-1.052l-4.21 1.052c-1.053 0-1.053 0-1.053 1.053l1.053 1.053C8.42 4.597 7.368 4.597 6.316 4.597H5.263V3.545c-1.052 0-1.052 1.052-1.052 1.052L2.105 7.755c-1.052 0-1.052 0-1.052 1.053h1.052L3.158 9.86c0 1.052-1.053 2.105-1.053 3.157H0v1.053l1.053 4.21z"/><path d="M12.638 8.808h1.052c2.106 0 4.21 2.105 5.263 4.21 0 3.158-2.105 5.263-4.21 6.316-3.158 0-5.263-2.105-6.316-4.21 0-3.158 2.105-5.264 4.21-6.316zm1.052 12.631h1.053c4.21-1.052 6.316-4.21 6.316-8.42-1.053-3.159-4.21-6.317-8.421-5.264-3.158 0-6.316 3.158-5.264 7.369 0 3.157 3.158 6.315 6.316 6.315z"/></symbol><symbol viewBox="0 0 24 24" id="delete" xmlns="http://www.w3.org/2000/svg"><path fill-rule="evenodd" clip-rule="evenodd" d="M16 9v10H8V9h8zm-1.5-6h-5l-1 1H5v2h14V4h-3.5l-1-1zM18 7H6v12c0 1.1.9 2 2 2h8c1.1 0 2-.9 2-2V7z"/></symbol><symbol viewBox="0 0 24 24" id="edit" xmlns="http://www.w3.org/2000/svg"><path fill-rule="evenodd" clip-rule="evenodd" d="M4 13.68l10-9.6 3.75 3.6-10 9.6H4v-3.6zm2 1.68h.92l8-7.68-.92-.883-8 7.68v.883z"/><path d="M20.71 3.485a.93.93 0 010 1.354L18.75 6.72 15 3.12l1.96-1.881a1.025 1.025 0 011.41 0l2.34 2.246zM24 20.16H0V24h24v-3.84z"/></symbol><symbol viewBox="0 0 24 24" id="exit" xmlns="http://www.w3.org/2000/svg"><path fill-rule="evenodd" clip-rule="evenodd" d="M10.09 15.59L11.5 17l5-5-5-5-1.41 1.41L12.67 11H3v2h9.67l-2.58 2.59zM19 3H5a2 2 0 00-2 2v4h2V5h14v14H5v-4H3v4a2 2 0 002 2h14c1.1 0 2-.9 2-2V5c0-1.1-.9-2-2-2z"/></symbol><symbol viewBox="0 0 20 20" id="fb" xmlns="http://www.w3.org/2000/svg"><path d="M18.404 0H1.651A1.62 1.62 0 00.027 1.623v16.754c0 .87.696 1.623 1.624 1.623h9.39v-7.71h-1.68V8.928h1.68V6.725c0-.464-.057-3.42 3.595-3.42h2.609v3.362h-2.261c-.348 0-.58.174-.58.58v1.68h2.783l-.58 3.363h-2.26V20h4a1.62 1.62 0 001.622-1.623V1.623C20.027.753 19.274 0 18.404 0z"/></symbol><symbol viewBox="0 0 15 15" id="google" xmlns="http://www.w3.org/2000/svg"><path d="M14.085 6.298h-3.192c.043.255.086.51.086.808 0 2.17-1.788 3.958-3.958 3.958S3.064 9.277 3.064 7.106c0-2.17 1.787-3.957 3.957-3.957.894 0 1.702.298 2.34.808l2.256-2.255A7.032 7.032 0 007.02 0C3.106 0 0 3.191 0 7.106s3.106 7.107 7.021 7.107 7.106-3.192 7.106-7.107c0-.298 0-.553-.042-.808z"/><path d="M13.362 7.872l.809-.808V5.489H7.064v3.15h5.958c.17-.341.34-.767.34-.767z"/></symbol><symbol viewBox="0 0 24 20" id="heart" xmlns="http://www.w3.org/2000/svg"><path d="M11.299 4.322l.701.69.701-.69 1.944-1.912c1.912-1.88 5.017-1.88 6.928 0a4.729 4.729 0 010 6.77L12 18.597 2.427 9.18a4.728 4.728 0 010-6.77C4.338.53 7.444.53 9.355 2.41l1.944 1.912z"/></symbol><symbol viewBox="0 0 20 20" id="inst" xmlns="http://www.w3.org/2000/svg"><path d="M14.721 0H5.28C2.405 0 0 2.405 0 5.396v9.208C0 17.537 2.346 20 5.279 20h9.442C17.595 20 20 17.595 20 14.604V5.396C20 2.405 17.654 0 14.721 0zm3.52 14.428c0 2.053-1.643 3.695-3.637 3.695h-9.15c-1.994 0-3.636-1.7-3.636-3.695V5.513c0-2.053 1.642-3.695 3.637-3.695h9.09c1.995 0 3.637 1.701 3.637 3.695v8.915h.059z"/><path d="M10.03 4.81c-2.757 0-4.986 2.287-4.986 5.102 0 2.815 2.229 5.103 4.985 5.103 2.757 0 4.986-2.288 4.986-5.103s-2.23-5.103-4.986-5.103zm0 8.445c-1.76 0-3.227-1.466-3.227-3.284 0-1.819 1.467-3.285 3.226-3.285 1.76 0 3.226 1.466 3.226 3.285 0 1.818-1.466 3.284-3.226 3.284zM15.308 5.748c.615 0 1.114-.525 1.114-1.173s-.499-1.173-1.114-1.173c-.616 0-1.115.525-1.115 1.173s.5 1.173 1.115 1.173z"/></symbol><symbol viewBox="0 0 18 14" id="mail" xmlns="http://www.w3.org/2000/svg"><path fill-rule="evenodd" clip-rule="evenodd" d="M0 1a1 1 0 011-1h16a1 1 0 011 1v12a1 1 0 01-1 1H1a1 1 0 01-1-1V1zm2 2.001V12h14V2.999L8.998 8.25 2 3.001zM13.998 2h-10l5 3.75 5-3.75z"/></symbol><symbol viewBox="0 0 18 20" id="play" xmlns="http://www.w3.org/2000/svg"><path d="M17.383 10L.133 19.959V.04L17.383 10z"/></symbol><symbol viewBox="0 0 20 18" id="teleg" xmlns="http://www.w3.org/2000/svg"><path d="M18.706.63L.418 7.787c-.589.245-.54 1.078.049 1.274l4.658 1.373 1.716 5.443c.196.588.931.735 1.323.343l2.403-2.452 4.707 3.482c.588.44 1.422.098 1.569-.589l3.138-14.954c.147-.785-.588-1.373-1.275-1.079zm-2.304 3.284l-8.483 7.551c-.098.098-.147.196-.147.294l-.343 2.893c0 .098-.147.098-.196 0l-1.324-4.364a.49.49 0 01.196-.54l10.052-6.226c.245-.098.44.245.245.392z"/></symbol><symbol viewBox="0 0 20 14" id="vk" xmlns="http://www.w3.org/2000/svg"><path d="M19.817 11.694c-.048-.097-.386-.867-1.975-2.409-1.687-1.638-1.446-1.349.578-4.191 1.204-1.735 1.734-2.747 1.541-3.228-.096-.29-1.06-.193-1.06-.193h-2.986s-.482 0-.675.29c-.337.577-.482 1.348-1.108 2.456-1.349 2.409-1.879 2.505-2.072 2.36-.53-.336-.385-1.396-.385-2.119 0-2.313.337-3.276-.626-3.517-.338-.096-.53-.096-1.398-.144-1.108.048-1.975 0-2.505.289-.337.192-.626.578-.433.578.192.048.626.144.867.481.289.434.289 1.446.289 1.446s.193 2.698-.434 3.035c-.385.24-.963-.24-2.168-2.409-.626-1.108-.674-1.83-1.06-2.312-.24-.338-.722-.434-.722-.434H.642s-.481-.048-.578.096c-.144.193 0 .53 0 .53s2.216 5.492 4.77 8.239c2.312 2.553 4.962 2.408 4.962 2.408s1.542.049 1.734-.289c.145-.144.145-.53.145-.53s0-1.686.723-1.927c.722-.24 1.686 1.638 2.65 2.361.77.53.963.434 1.348.434h2.65s1.445-.193.77-1.301z"/></symbol><symbol viewBox="0 0 24 24" id="yandex" xmlns="http://www.w3.org/2000/svg"><path d="M16.926 1h-3.333C10.318 1 7.54 3.493 7.54 8.334c0 2.903 1.345 5.044 3.742 6.1L6.81 22.532c-.147.264 0 .469.233.469H9.12c.175 0 .293-.058.351-.205l4.064-7.95h1.462v7.95c0 .087.088.205.205.205h1.813c.175 0 .234-.088.234-.234V1.293c0-.205-.117-.293-.322-.293zm-1.93 11.968h-1.228c-1.93 0-3.8-1.408-3.8-4.928 0-3.667 1.754-5.163 3.537-5.163h1.491v10.091z"/></symbol></svg>