<svg width="370" height="228" fill="none" xmlns="http://www.w3.org/2000/svg"><g clip-path="url(#clip0)"><path d="M185.599 183.31c77.673 0 140.639-37.184 140.639-83.053 0-45.87-62.966-83.053-140.639-83.053-77.672 0-140.638 37.184-140.638 83.053s62.966 83.053 140.638 83.053z" fill="#F9EA96"/><g opacity=".75"><path opacity=".75" d="M183.09 177.931c94.499 0 171.106-78.609 171.106-175.578 0-96.969-76.607-175.578-171.106-175.578S11.984-94.615 11.984 2.353c0 96.97 76.607 175.578 171.106 175.578z" fill="url(#paint0_radial)"/><path opacity=".75" d="M183.089 142.1c75.214 0 136.187-62.567 136.187-139.747s-60.973-139.746-136.187-139.746c-75.214 0-136.187 62.567-136.187 139.746 0 77.18 60.973 139.747 136.187 139.747z" fill="url(#paint1_radial)"/><path opacity=".63" d="M183.092 105.437c55.482 0 100.459-46.152 100.459-103.084s-44.977-103.084-100.459-103.084c-55.482 0-100.46 46.152-100.46 103.084s44.978 103.084 100.46 103.084z" fill="url(#paint2_radial)"/></g><path opacity=".1" d="M232.811 190.171c-56.174-1.048-111.135 2.789-107.936 6.921 3.199 4.133 28.656 3.837 60.935 4.707 29.985.811 68.257-.91 63.555-6.051-4.702-5.142-16.554-5.577-16.554-5.577z" fill="#1A578E"/><path d="M174.243 67.554c1.731-1.776-.544-6.991-5.082-11.648-4.538-4.656-9.62-6.991-11.351-5.215-1.731 1.776.545 6.99 5.083 11.647 4.537 4.657 9.619 6.992 11.35 5.216z" fill="#E5CF70"/><path d="M163.629 52.699c-.347 3.915-3.103 8.641-3.103 8.641s-1.079 7.12 6.437 9.453c7.515 2.333 9.751-5.181 9.751-5.181s1.368-6.783 3.064-11.272c3.334-8.82-14.858-16.69-15.051-12.34-.231 5.518-.905 8.543-1.098 10.699z" fill="#F8B093"/><path d="M161.952 188.925s-9.925 2.334-9.771 2.294c.154-.059-.173-3.223-3.083-3.164-2.91.06-2.833 1.997-4.105 2.294-7.92 1.76-11.331 3.915-12.661 6.209-1.329 2.294 7.208-1.957 30.14-.237 0 0 3.102-.277 3.295-3.441.193-3.183-3.815-3.955-3.815-3.955z" fill="#FBC299"/><path d="M156.748 150.464s-3.026 18.746 7.4 22.306c10.425 3.559 43.186 11.152 54.498 13.328 0 0-7.709-2.156-17.999-2.156-9.25 0-42.396 5.043-42.396 5.043l-.308 7.633s20.658-.811 41.663.277c11.139.573 31.951.079 33.493-.02 9.366-.514 11.37-12.597 8.344-17.145-5.126-7.771-46.096-26.102-50.316-28.752-4.22-2.65 4.278-3.777-8.556-3.777-12.835 0-22.509-2.155-25.823 3.263z" fill="#276190"/><path d="M163.127 56.535c-1.946-.395-4.008 1.523-5.897 4.964l23.761 7.633c-8.479-8.246-17.864-12.597-17.864-12.597z" fill="#F2F2F2"/><path d="M192.515 86.493c-2.37-6.94-6.822-12.754-11.543-17.361l-23.742-7.634c-2.756 4.984-5.184 13.15-6.533 22.05-2.274 15.028 6.34 43.068 7.246 47.557.906 4.489.154 5.121-1.214 9.907-1.368 4.805 0 9.452 0 9.452 19.02 4.647 34.379.514 34.379.514s8.055-45.066 1.407-64.485z" fill="#FFCB60"/><path d="M157.345 187.126l6.456-.652-.694 10.48-5.955-.158.193-9.67z" fill="#428EA6"/><path d="M189.202 197.172h-24.358v-23.097l24.358 5.873v17.224z" fill="#715D5D"/><path d="M164.844 177.634l24.358 5.854v-2.037l-24.358-6.348v2.531z" fill="#513D3E"/><path d="M163.011 172.671l27.403 7.138-.25 1.958-27.48-6.605.327-2.491z" fill="#715D5D"/><path d="M181.779 70.892c-.482-.475-1.619-.158-1.619.573 0 .732 3.7 14.436 3.989 14.356.289-.079 2.313-.81 2.505-1.186.232-.356-3.892-12.794-4.875-13.743z" fill="#F3A34E"/><path d="M152.777 62.824s8.441 10.362 28.733 9.808l.039-2.848c-12.507.178-28.772-6.96-28.772-6.96z" fill="#F3A34E"/><path d="M159.869 50.128c-3.18.12-3.835 2.017-3.835 2.017s-6.051.238-7.593 7.811c0 0 14.704 12.083 33.801 10.382 1.369-.119 0 0 0 0l-2.004-1.977h-.443c-4.374-.614-21.699-10.837-19.926-18.233z" fill="#F9EA96"/><path d="M156.035 52.126s.039.098.135.276c.077.178.212.435.385.771a27.34 27.34 0 001.638 2.67c.367.534.791 1.107 1.272 1.68.463.594 1.022 1.187 1.6 1.78a27.942 27.942 0 001.888 1.78c.328.297.713.574 1.06.85.366.278.733.554 1.118.811.385.258.771.534 1.176.772.192.118.404.237.597.375.212.119.405.238.617.337.404.237.828.434 1.233.652.405.218.829.395 1.253.593.404.198.828.356 1.252.514.212.08.405.178.617.238.212.079.404.138.616.217.405.139.791.277 1.195.396.386.118.752.237 1.118.356.366.099.713.197 1.06.276.173.04.327.1.482.139.154.04.327.079.462.099.617.138 1.137.277 1.58.356.887.178 1.407.277 1.407.277s-.52-.02-1.445-.06a21.716 21.716 0 01-1.658-.158c-.635-.06-1.348-.198-2.139-.316-.77-.159-1.618-.317-2.486-.574-.211-.06-.443-.118-.655-.178a8.453 8.453 0 01-.655-.217 18.255 18.255 0 01-1.349-.475c-.443-.178-.906-.356-1.349-.573a10.365 10.365 0 01-.674-.317c-.232-.099-.444-.237-.656-.336-.212-.118-.443-.237-.655-.356-.212-.119-.424-.257-.636-.376-.443-.257-.828-.534-1.252-.81-.405-.277-.79-.574-1.176-.87-.366-.317-.751-.613-1.079-.93l-.52-.474c-.174-.159-.328-.317-.482-.475-.328-.316-.617-.652-.906-.969a18.707 18.707 0 01-1.484-1.958 14.735 14.735 0 01-1.079-1.839 16.834 16.834 0 01-1.156-2.887c-.231-.652-.27-1.067-.27-1.067z" fill="#FFCB60"/><path d="M182.166 70.22c-.482-.475-1.619-.16-1.619.573 0 .731 3.7 14.435 3.989 14.356.289-.06 2.312-.81 2.505-1.187.212-.336-3.893-12.794-4.875-13.743z" fill="#F9EA96"/><path d="M185.48 130.69s5.184-9.255 7.304-10.619c2.12-1.365-1.195 9.037-1.195 9.037l-4.972 3.302-1.137-1.72z" fill="#F3A34E"/><path d="M193.037 118.706s-.636 7.653-8.267 11.984l-2.293 16.215s4.451.613 9.365-.257c0 0 1.677-5.952 3.083-27.961h-1.888v.019z" fill="#F9EA96"/><path d="M190.453 44.117c-.077-.139-.116-.297-.193-.435-.116-.178-.675-.83-.867-1.78-.27-1.444-.058-12.379-.058-12.379s1.31-9.175-7.149-12.082c-3.816-1.305-21.796-2.175-20.832 11.904.27 4.074 4.143 10.204 7.226 12.28-.058 4.588.964 7.633 1.484 8.701.81 1.602 3.642 4.034 7.882 5.34 6.822 2.115 12.988 1.186 13.258-.12.135-.711-1.175-4.508-1.117-9.63.308-.257 1.175-.514.366-1.8z" fill="#FBC299"/><path d="M184.308 44.73a.18.18 0 00-.251.04.19.19 0 00.039.257c.019.02 1.734 1.325 4.509 1.325.27 0 .559-.02.848-.04.096 0 .154-.08.154-.178 0-.099-.096-.198-.193-.178-3.122.277-5.087-1.206-5.106-1.226z" fill="#D87350"/><path d="M183.9 45.738a.175.175 0 01-.173-.178c0-.672.289-1.127.847-1.384.02 0 .02-.02.039-.02a.172.172 0 01.231.02.19.19 0 01-.019.257c-.019.02-.058.04-.096.06-.174.079-.636.296-.636 1.067-.02.1-.097.178-.193.178zm5.684 2.077a.175.175 0 00-.212-.178c-.308.06-.54.02-.54.02a.164.164 0 00-.192.158c-.02.099.058.198.154.198.019 0 .096.02.231.02.116 0 .251 0 .424-.04a.172.172 0 00.135-.178z" fill="#D87350"/><path d="M188.45 40.913s.597.258.828.297c2.506.435 2.756-1.325 2.756-1.325s-.077-.771-.154-.83c-.077-.08-.174-.238-.174-.238s-1.387-.257-1.483-.316c-.116-.06-.54-.277-.636-.475-.097-.217-.251-.83-.251-.83l-.308-1.147.096-2.373s.097-.633-.539-.554c-.636.08-1.002.376-1.002.376l-1.985 6.506" fill="#FBC299"/><path d="M189.064 32.746c.057.158.077.317.096.495.019.158.038.336.058.494l.058 1.009c.019.336 0 .672 0 1.008v.099c0-.02 0 0 0 0v.395c0 .159.038.297.057.455l.058.218c.019.079.039.158.058.217.019.08.058.139.077.218a.9.9 0 01.096.198c.02.04.039.059.058.098l.058.1c.039.059.077.118.135.177l.154.159.154.138c.058.06.116.079.174.138.058.04.115.08.192.119l.097.06.096.039c.058.02.135.06.193.06.077.019.135.039.212.039l.096.02h.097c.135 0 .25-.04.366-.1l.038-.02a.204.204 0 01.289.12c0 .02.02.039.02.039.019.099.019.178.038.257 0 .08.019.178.019.257 0 .178-.019.336-.057.514a2.082 2.082 0 01-.155.495 1.362 1.362 0 01-.308.435 1.411 1.411 0 01-.193.158c-.077.04-.154.099-.231.118-.077.04-.154.06-.231.08-.077.02-.154.04-.251.04-.154.019-.327 0-.481 0-.078-.02-.155-.02-.232-.04l-.231-.06h.231l.232-.02c.154-.02.308-.039.443-.078.077-.02.135-.04.212-.06a.892.892 0 00.193-.099l.173-.118c.058-.04.096-.1.135-.159a1.29 1.29 0 00.193-.355c.038-.139.077-.277.096-.416a1.667 1.667 0 000-.435c0-.079-.019-.138-.019-.217a.512.512 0 00-.039-.198l.347.158c-.173.099-.366.178-.559.178l-.135.02h-.135c-.096 0-.192-.02-.269-.04a1.379 1.379 0 01-.27-.079l-.135-.04-.116-.059a1.425 1.425 0 01-.231-.138c-.077-.06-.154-.099-.212-.158-.077-.06-.135-.119-.193-.178l-.173-.198c-.058-.06-.097-.158-.154-.217l-.077-.12-.058-.118-.116-.237c-.038-.08-.058-.178-.096-.257a.615.615 0 01-.058-.257l-.058-.257a5.441 5.441 0 01-.038-.534l.019-.257v-.258l.096-.988c.019-.336.058-.653.077-.989 0-.158.02-.336.02-.494a2.862 2.862 0 000-.574z" fill="#FBC299"/><path opacity=".48" d="M187.158 30.413c.617 4.904-.154 6.387-2.524 6.348-2.37-.04-3.97-4.133-3.97-4.133s1.002-1.661 3.026-2.491c2.042-.831 3.468.276 3.468.276z" fill="url(#paint3_linear)"/><path d="M187.638 27.249c.116.099.443 3.243-.385 3.856-.829.613-4.645.257-6.668 1.958 0 0-1.021-2.353.366-3.896 1.388-1.542 4.452-1.66 4.548-1.66.732-.02 1.33.652 1.33.652s.713-1.009.809-.91z" fill="#8E552F"/><path d="M185.152 36.701c-1.137 0-2.158-.534-2.216-.573-.077-.04-.116-.158-.077-.237.038-.08.154-.119.231-.08.019.02 2.37 1.227 3.7-.098a.2.2 0 01.251 0 .215.215 0 010 .257c-.559.553-1.234.731-1.889.731z" fill="#562E18"/><path d="M169.813 40.103c.212.02-.482-4.47.173-7.08.27-1.087 3.835-2.847 4.259-3.875 1.099-2.61-.308-2.986-.25-5.814.828.85 3.873 1.186 6.224 1.186 7.362 0 14.473-3.381 10.734-8.641-1.002-1.424-5.993-7.514-15.012-5.636-14.434 3.006-12.545 8.8-12.545 8.8s-.52-.95-1.099-1.147c-.52-.178-1.214.02-1.329.85-.077.554.636 1.286.983 1.503-.232-.138-.964-.712-1.504-.672-.558.02-.925.514-.79.969.232.712.694.77 1.33 1.008-1.388-.455-6.167 1.859-6.167 4.885 0 3.361 5.261 10.935 7.978 12.813.232-.712 0-1.918.444-2.511 2.929-3.797 4.837-.653 6.571 3.362z" fill="#8E552F"/><path d="M161.874 35.91c-.559 1.424.674 6.645 1.677 7.297 1.002.653 5.839-.573 5.839-.573s-1.696-3.223-1.889-5.379c-.366-3.777-5.068-2.768-5.627-1.344z" fill="#FBC299"/><path d="M164.262 37.414c.444-.712 2.082-.653 2.679.02 1.002 1.146 1.021 4.033.212 4.27-.809.238-1.985.14-2.081-1.403-.097-1.543-1.234-2.195-.81-2.887z" fill="#F7A17C"/><path d="M241.444 179.75c-5.126-7.771-46.096-26.102-50.316-28.752l-26.98 21.792c10.426 3.559 43.186 11.152 54.498 13.328l14.434 10.796c9.366-.533 11.37-12.616 8.364-17.164z" fill="#276190"/><path d="M161.009 111.33c2.467 13.091 7.362 20.388 12.122 23.235 6.301 3.797 12.314-.217 11.947-8.918-.636-15.266-7.534-54.973-20.292-51.473a5.352 5.352 0 00-1.349.574c-4.336 2.57-7.034 12.16-2.428 36.582z" fill="#FFD880"/><path opacity=".55" d="M161.008 111.33c2.467 13.091 7.362 20.388 12.122 23.235.616-2.333.269-5.358-1.272-8.068-4.876-8.483-13.644-34.012-8.402-51.75-4.356 2.571-7.053 12.162-2.448 36.583z" fill="#F3A34E"/><path d="M165.578 130.71c0-8.899 10.406-11.707 16.13-8.424 5.723 3.262 5.434 15.76-1.966 17.955-7.4 2.195-14.164-2.769-14.164-9.531z" fill="#F9EA96"/><path d="M201.962 156.673c-2.062-.415-19.117-8.384-27.056-16.254-7.555-7.495-5.743-13.862 1.965-14.693.386-.039.79-.059 1.214-.059 9.905.059 13.316 11.232 17.363 17.955 2.525 4.192 5.859 7.258 7.516 8.642a2.539 2.539 0 01.848 2.511c-.212 1.028-.733 2.116-1.85 1.898z" fill="#FFCFAE"/><path d="M207.816 156.693c-1.6 2.195-8.46-.237-10.117-1.503-1.658-1.265 1.773-1.147 2.833-3.658.886-2.116 6.166-.475 7.824.791 1.657 1.266 1.059 2.175-.54 4.37z" fill="#FFCFAE"/><path d="M198.936 151.354s2.794-3.085 3.777-2.729c.983.356 1.098 2.077.077 3.184-1.021 1.107-4.085 1.186-4.278.949-.212-.237.424-1.404.424-1.404z" fill="#FFCFAE"/><path opacity=".37" d="M128.612 0L24.782 159.897l28.944 24.204L147.074 0h-18.462zm23.336 0c-1.021 0-74.366 224.915-74.366 224.915l44.882 3.164L172.452 0h-20.504zm25.65 0l-11.813 223.59h39.505L196.06 0h-18.462zm28.714 0s38.985 218.053 38.735 218.844c-.251.791 38.464-13.941 38.464-13.941L220.419 0h-14.107zm18.211 0l96.952 188.056s19.791-49.476 21.314-49.476C344.311 138.58 239.401 0 239.401 0h-14.878z" fill="#fff"/></g><defs><radialGradient id="paint0_radial" cx="0" cy="0" r="1" gradientUnits="userSpaceOnUse" gradientTransform="matrix(171.115 0 0 175.588 183.095 2.363)"><stop stop-color="#fff"/><stop offset="1" stop-color="#fff" stop-opacity="0"/></radialGradient><radialGradient id="paint1_radial" cx="0" cy="0" r="1" gradientUnits="userSpaceOnUse" gradientTransform="matrix(136.184 0 0 139.743 183.094 2.363)"><stop stop-color="#fff"/><stop offset="1" stop-color="#fff" stop-opacity="0"/></radialGradient><radialGradient id="paint2_radial" cx="0" cy="0" r="1" gradientUnits="userSpaceOnUse" gradientTransform="matrix(100.467 0 0 103.093 183.097 2.363)"><stop stop-color="#fff"/><stop offset="1" stop-color="#fff" stop-opacity="0"/></radialGradient><linearGradient id="paint3_linear" x1="183.635" y1="36.571" x2="184.442" y2="29.795" gradientUnits="userSpaceOnUse"><stop stop-color="#F7A17C"/><stop offset="1" stop-color="#F7A17C" stop-opacity="0"/></linearGradient><clipPath id="clip0"><path fill="#fff" d="M0 0h370v228H0z"/></clipPath></defs></svg>