<svg width="416" height="240" fill="none" xmlns="http://www.w3.org/2000/svg"><g clip-path="url(#clip0)"><path d="M208.67 198.394c87.329 0 158.124-41.177 158.124-91.971 0-50.794-70.795-91.97-158.124-91.97S50.547 55.629 50.547 106.423s70.794 91.971 158.123 91.971z" fill="#9CCFDD"/><g opacity=".75"><path opacity=".75" d="M205.855 192.438c106.248 0 192.378-87.05 192.378-194.43 0-107.382-86.13-194.431-192.378-194.431-106.248 0-192.378 87.049-192.378 194.43s86.13 194.431 192.378 194.431z" fill="url(#paint0_radial)"/><path opacity=".75" d="M205.857 152.759c84.564 0 153.118-69.284 153.118-154.752 0-85.467-68.554-154.751-153.118-154.751-84.565 0-153.119 69.284-153.119 154.751 0 85.468 68.554 154.752 153.119 154.752z" fill="url(#paint1_radial)"/><path opacity=".63" d="M205.855 112.161c62.379 0 112.948-51.109 112.948-114.154 0-63.045-50.569-114.153-112.948-114.153-62.38 0-112.949 51.108-112.949 114.153 0 63.045 50.569 114.154 112.949 114.154z" fill="url(#paint2_radial)"/></g><path opacity=".1" d="M256.294 206.343c-54.405-.635-107.618 1.686-104.542 4.204 3.099 2.519 27.755 2.343 58.999 2.869 29.055.482 66.105-.547 61.555-3.679-4.55-3.131-16.012-3.394-16.012-3.394z" fill="#1A578E"/><path d="M202.299 171.985l5.503.745h-26.65l4.399-.745h16.748z" fill="#554645"/><path d="M186.939 209.957h-3.185v-58.292h5.157l-1.972 58.292zm16.901-.154h-2.665l-2.491-58.138h5.156v58.138z" fill="#554645"/><path d="M179.811 211.161h-3.358v-59.496h5.438l-2.08 59.496zm31.61 0h-2.817l-2.643-59.496h5.46v59.496z" fill="#715D5D"/><path d="M178.477 172.743v4.182h29.315v-4.182h-29.315zm.972-21.152v5.211h27.365v-5.211h-27.365z" fill="#715D5D"/><path d="M176.441 151.589v1.62h34.992v-1.62h-34.992z" fill="#513D3E"/><path d="M173.305 150.489v1.62h41.275v-1.62h-41.275z" fill="#715D5D"/><path d="M213.134 149.19l1.452 1.292h-41.297l1.213-1.292h38.632zm-6.242 23.212h-25.74v.328h25.74v-.328z" fill="#A18284"/><path d="M228.175 199.555c.498-1.839 1.257-3.482 1.777-5.409-2.319-.46-4.204-1.248-6.544-1.642-.541 2.759-1.43 7.051-2.621 9.306-1.192 2.256-2.384 4.752-.954 5.913 2.037 1.642 3.12.701 6.522.635 3.207-.066 14.69 1.314 15.188-.307.499-1.62-5.698-1.489-8.601-3.766-1.625-1.27-5.33-2.584-4.767-4.73z" fill="#FFCFAE"/><path d="M245.507 140.277c-5.482-5.43-42.445-11.715-46.367-13.16-3.922-1.445 3.163-5.431-7.41-3.263s-17.312-2.299-19.153 2.65c0 0-1.062 21.547 8.081 22.664 9.165 1.117 37.44.263 47.125.109l14.885.679c2.925.132 5.287-2.43 4.854-5.365-.26-1.773-1.062-3.372-2.015-4.314z" fill="#276190"/><path d="M239.896 168.131c3.055-8.671 7.345-19.445 7.627-20.693.043-.175.065-.35.087-.526.563-4.511-4.724-7.357-8.234-4.511l-4.983 4.03s-3.163 4.992-5.568 13.138c-2.167 7.314-6.11 33.351-6.11 33.351l7.431 3.525c.022.022 3.987-11.956 9.75-28.314z" fill="#276190"/><path d="M221.477 195l1.235-7.423 9.619 3.328-1.863 6.657-8.991-2.562z" fill="#428EA6"/><path d="M187.036 59.168c1.456-1.471-.458-5.79-4.274-9.647s-8.09-5.79-9.545-4.32c-1.455 1.47.459 5.79 4.275 9.646 3.816 3.857 8.089 5.791 9.544 4.32z" fill="#E5CF70"/><path d="M178.122 46.861c-.303 3.241-2.6 7.16-2.6 7.16s-.91 5.891 5.417 7.818c6.305 1.927 8.19-4.292 8.19-4.292s1.148-5.606 2.578-9.328c2.795-7.292-12.48-13.818-12.632-10.227-.216 4.599-.78 7.095-.953 8.87z" fill="#F8B093"/><path d="M177.708 50.036c-1.647-.328-3.359 1.249-4.962 4.095l19.955 6.329c-7.128-6.81-14.993-10.424-14.993-10.424z" fill="#F2F2F2"/><path d="M202.39 74.825c-1.994-5.737-5.72-10.555-9.685-14.365l-19.955-6.33c-2.319 4.117-4.355 10.884-5.482 18.241-1.907 12.438 5.33 35.628 6.088 39.351.759 3.722.13 4.226-1.018 8.211-1.148 3.964 0 7.818 0 7.818 15.968 3.854 28.882.438 28.882.438s6.76-37.292 1.17-53.365z" fill="#FFCB60"/><path d="M193.373 61.905c-.412-.394-1.365-.131-1.365.482s3.098 11.934 3.358 11.89c.26-.044 1.929-.679 2.102-.985.173-.307-3.272-10.599-4.095-11.387z" fill="#F3A34E"/><path d="M169.02 55.248s7.085 8.584 24.136 8.124l.044-2.343c-10.53.131-24.18-5.781-24.18-5.781z" fill="#F3A34E"/><path d="M174.958 44.737c-2.665.11-3.229 1.664-3.229 1.664s-5.091.197-6.37 6.46c0 0 12.35 10.007 28.384 8.606 1.148-.11 0 0 0 0l-1.69-1.642h-.369c-3.661-.504-18.2-8.957-16.726-15.088z" fill="#F9EA96"/><path d="M171.73 46.401s.044.088.109.241.195.372.325.635c.151.285.346.591.563.986.238.372.498.788.802 1.226.325.438.671.92 1.061 1.401.39.482.845.986 1.344 1.468.498.503 1.018.985 1.603 1.467.282.24.585.46.888.7.304.22.607.46.932.68.325.218.65.437.975.634.173.11.325.197.498.307.174.087.347.197.52.285.347.197.694.372 1.04.547.347.175.694.328 1.04.482.347.153.694.284 1.04.438l.52.197c.174.066.347.11.52.175.347.11.672.24.997.328.325.11.628.197.953.285.304.088.607.153.889.241.151.044.281.066.411.11.13.021.26.065.39.087.52.11.954.24 1.322.285.737.153 1.17.24 1.17.24s-.433 0-1.213-.043c-.39 0-.845-.066-1.387-.132-.542-.043-1.148-.153-1.798-.262-.65-.132-1.365-.263-2.08-.482-.174-.044-.369-.11-.564-.153-.195-.044-.368-.11-.563-.176-.368-.11-.758-.24-1.127-.394-.368-.153-.758-.284-1.126-.46-.195-.087-.369-.175-.564-.262-.195-.088-.368-.197-.563-.285-.195-.088-.368-.197-.563-.285a6.963 6.963 0 00-.542-.306c-.368-.197-.693-.438-1.04-.657-.347-.22-.65-.482-.997-.723-.303-.263-.628-.504-.91-.766-.151-.132-.281-.263-.433-.394-.152-.132-.26-.263-.412-.395-.281-.262-.52-.547-.758-.81a15.351 15.351 0 01-1.235-1.62c-.368-.526-.65-1.051-.91-1.511a13.617 13.617 0 01-.975-2.387c-.108-.613-.152-.942-.152-.942z" fill="#FFCB60"/><path d="M193.677 61.38c-.411-.395-1.365-.132-1.365.481s3.099 11.934 3.359 11.89c.26-.043 1.928-.678 2.101-.985.195-.306-3.271-10.62-4.095-11.387z" fill="#F9EA96"/><path d="M196.473 111.394s4.355-7.664 6.131-8.781c1.799-1.117-1.018 7.467-1.018 7.467l-4.182 2.738-.931-1.424z" fill="#F3A34E"/><path d="M202.823 101.496s-.52 6.329-6.934 9.92l-1.928 13.423s3.748.504 7.865-.219c0 0 1.408-4.927 2.6-23.124h-1.603z" fill="#F9EA96"/><path d="M174.913 94.686c2.08 10.927 6.262 17.037 10.292 19.423 5.352 3.176 10.465-.197 10.14-7.467-.542-12.766-6.392-45.941-17.225-43.029-.39.11-.78.263-1.148.482-3.684 2.168-5.959 10.182-2.059 30.591z" fill="#FFD880"/><path opacity=".55" d="M174.912 94.686c2.08 10.927 6.262 17.037 10.292 19.424.52-1.949.238-4.489-1.083-6.745-4.139-7.095-11.57-28.445-7.129-43.27-3.705 2.168-5.98 10.183-2.08 30.591z" fill="#F3A34E"/><path d="M178.793 110.89c0-7.423 8.84-9.788 13.693-7.051 4.854 2.737 4.615 13.183-1.668 15.022-6.283 1.84-12.025-2.299-12.025-7.971z" fill="#F9EA96"/><path d="M211.899 129.985c-1.776-.131-16.965-4.927-24.461-10.598-7.129-5.409-6.262-10.884.13-12.394.325-.066.671-.132 1.018-.176 8.342-1.007 12.372 7.905 16.467 13.03 2.556 3.197 5.676 5.386 7.215 6.372a2.103 2.103 0 01.975 1.993c-.065.897-.369 1.861-1.344 1.773z" fill="#FFCFAE"/><path d="M216.836 129.394c-1.126 1.993-7.15.701-8.666-.175-1.517-.876 1.365-1.139 2.015-3.35.541-1.84 5.156-1.051 6.673-.176 1.517.876 1.105 1.708-.022 3.701z" fill="#FFCFAE"/><path d="M208.8 125.912s2.037-2.847 2.904-2.671c.866.175 1.126 1.598.39 2.627-.737 1.03-3.315 1.424-3.51 1.249-.195-.176.216-1.205.216-1.205z" fill="#FFCFAE"/><path d="M200.654 39.766c-.065-.11-.086-.24-.173-.35-.087-.153-.563-.679-.715-1.467-.238-1.183-.043-10.226-.043-10.226s1.105-7.599-6.002-9.986c-3.207-1.095-18.308-1.795-17.507 9.854.239 3.372 3.489 8.43 6.067 10.16-.043 3.79.802 6.33 1.257 7.205.671 1.336 3.055 3.329 6.608 4.424 5.72 1.751 10.92.963 11.137-.11.13-.591-.997-3.723-.932-7.97.26-.264.975-.482.303-1.534z" fill="#FBC299"/><path d="M195.475 40.27c-.065-.044-.151-.044-.195.022-.043.066-.043.153.022.197.022.022 1.452 1.095 3.792 1.095.238 0 .476 0 .715-.044.065 0 .13-.066.13-.153a.149.149 0 00-.152-.154c-2.643.285-4.29-.941-4.312-.963z" fill="#D87350"/><path d="M195.152 41.102a.149.149 0 01-.152-.153c0-.548.238-.942.715-1.139 0 0 .022 0 .022-.022.065-.043.151-.022.195.022a.17.17 0 01-.022.22c-.022.021-.043.021-.087.043-.151.066-.541.24-.541.876.021.087-.044.153-.13.153zm4.767 1.73a.139.139 0 00-.173-.131c-.26.044-.455.022-.455.022-.087 0-.152.044-.174.131-.021.088.044.153.13.175 0 0 .087.022.195.022.087 0 .217 0 .347-.022.087-.065.152-.131.13-.197z" fill="#D87350"/><path d="M198.966 37.117s.498.219.693.262c2.102.373 2.318-1.094 2.318-1.094s-.065-.635-.13-.701a1.632 1.632 0 01-.151-.197s-1.149-.22-1.257-.263c-.087-.044-.455-.219-.542-.394-.086-.175-.195-.679-.195-.679l-.26-.964.065-1.97s.087-.526-.455-.46c-.541.066-.845.306-.845.306l-1.668 5.387" fill="#FBC299"/><path d="M199.482 30.35c.044.132.065.263.087.416.022.132.043.285.043.417.022.284.044.547.044.832v.897c0-.021 0 0 0 0v.329c0 .131.021.24.043.372l.043.175c.022.066.022.132.065.176.022.065.044.109.065.175.022.065.065.11.087.175.022.022.022.066.043.087l.044.066c.043.044.065.11.108.153l.13.132.13.131c.043.044.087.066.152.11.043.043.108.065.151.087l.087.044.087.022c.065.022.108.044.173.044a.47.47 0 00.173.022h.174c.108 0 .216-.044.303-.066l.022-.022c.086-.044.195 0 .238.11 0 .021 0 .021.022.043a.855.855 0 01.021.22v.218c0 .132-.021.285-.043.416a1.55 1.55 0 01-.13.416 1.058 1.058 0 01-.26.35c-.043.045-.108.088-.173.132-.065.044-.13.066-.195.11l-.195.065c-.065.022-.13.022-.195.022-.13.022-.26 0-.39 0-.065 0-.13-.022-.195-.022l-.195-.044h.39c.13-.021.26-.021.368-.065.065-.022.108-.044.173-.066a.348.348 0 00.152-.087.682.682 0 00.152-.11l.13-.131c.065-.088.13-.197.173-.307.043-.11.065-.219.087-.35a.982.982 0 000-.35c0-.066 0-.132-.022-.176 0-.066-.022-.131-.022-.175l.282.131a1.22 1.22 0 01-.477.154h-.238c-.087 0-.152-.022-.238-.044a2.676 2.676 0 01-.217-.066l-.108-.044-.109-.043c-.065-.044-.13-.066-.195-.11l-.195-.131c-.065-.044-.108-.11-.173-.154l-.152-.175a1.144 1.144 0 00-.13-.175l-.065-.087a.172.172 0 01-.043-.11c-.043-.066-.065-.131-.108-.197-.022-.066-.044-.131-.065-.219-.022-.066-.044-.153-.065-.219l-.044-.219c0-.153-.021-.307-.021-.438v-.416l.086-.81.065-.81c0-.132.022-.263.022-.417.065-.109.065-.24.043-.394z" fill="#FBC299"/><path opacity=".48" d="M197.882 28.423c.52 4.073-.13 5.278-2.123 5.256-1.994-.044-3.337-3.416-3.337-3.416s.845-1.358 2.535-2.059c1.733-.7 2.925.22 2.925.22z" fill="url(#paint3_linear)"/><path d="M198.292 25.817c.109.088.369 2.694-.325 3.176-.693.503-3.9.219-5.611 1.62 0 0-.867-1.949.303-3.219 1.17-1.27 3.748-1.38 3.813-1.38.607-.021 1.105.526 1.105.526s.629-.81.715-.723z" fill="#8E552F"/><path d="M196.211 33.635c-.953 0-1.82-.438-1.863-.482-.065-.044-.108-.131-.065-.197s.13-.11.195-.066c.022 0 1.993 1.03 3.098-.065.065-.066.152-.066.217 0 .065.065.065.153 0 .219-.477.438-1.04.59-1.582.59z" fill="#562E18"/><path d="M183.321 36.46c.173 0-.412-3.701.151-5.847.239-.898 3.207-2.343 3.575-3.197.91-2.146-.26-2.474-.195-4.817.694.7 3.25.985 5.222.985 6.197 0 12.155-2.781 9.013-7.16-.845-1.183-5.026-6.22-12.61-4.665-12.133 2.474-10.53 7.27-10.53 7.27s-.433-.788-.931-.942c-.434-.13-1.019 0-1.127.701-.065.46.542 1.051.823 1.248-.195-.11-.801-.59-1.256-.569-.455.022-.78.416-.65.81.195.591.585.635 1.126.832-1.17-.394-5.178 1.555-5.178 4.03 0 2.78 4.42 9.043 6.695 10.598.195-.591 0-1.598.368-2.08 2.427-3.132 4.052-.526 5.504 2.803z" fill="#8E552F"/><path d="M177.038 32.846c-.433 1.074.52 4.993 1.279 5.497.758.503 3.596-.438 3.596-.438s-.433-2.43-.585-4.051c-.281-2.847-3.856-2.08-4.29-1.008z" fill="#FBC299"/><path d="M178.858 33.964c.325-.548 1.603-.482 2.036.021.759.854.78 3.022.174 3.22-.629.175-1.517.109-1.582-1.052-.087-1.16-.953-1.664-.628-2.19z" fill="#F7A17C"/><path d="M204.404 149.715c9.295-.087 18.59-.35 23.379-.416l13.411.57c4.68.197 7.627-5.19 4.832-8.978a4.5 4.5 0 00-.498-.592c-4.377-4.335-32.262-10.051-43.919-12.569" fill="#276190"/></g><defs><radialGradient id="paint0_radial" cx="0" cy="0" r="1" gradientUnits="userSpaceOnUse" gradientTransform="matrix(192.389 0 0 194.441 205.86 -1.982)"><stop stop-color="#fff"/><stop offset="1" stop-color="#fff" stop-opacity="0"/></radialGradient><radialGradient id="paint1_radial" cx="0" cy="0" r="1" gradientUnits="userSpaceOnUse" gradientTransform="matrix(153.114 0 0 154.748 205.862 -1.982)"><stop stop-color="#fff"/><stop offset="1" stop-color="#fff" stop-opacity="0"/></radialGradient><radialGradient id="paint2_radial" cx="0" cy="0" r="1" gradientUnits="userSpaceOnUse" gradientTransform="matrix(112.957 0 0 114.162 205.86 -1.982)"><stop stop-color="#fff"/><stop offset="1" stop-color="#fff" stop-opacity="0"/></radialGradient><linearGradient id="paint3_linear" x1="194.925" y1="33.524" x2="195.583" y2="27.916" gradientUnits="userSpaceOnUse"><stop stop-color="#F7A17C"/><stop offset="1" stop-color="#F7A17C" stop-opacity="0"/></linearGradient><clipPath id="clip0"><path fill="#fff" d="M0 0h416v240H0z"/></clipPath></defs></svg>