<svg width="5" height="8" fill="none" xmlns="http://www.w3.org/2000/svg"><path d="M2.015.903V3.68c0 .521-.035 1.007 0 1.528.035.347.07.694 0 1.076-.07.382-.208.556-.59.556H.592c-.521 0-.66-.174-.556-.66.035-.278.035-.59.035-.868.035-.382.07-.764.07-1.18 0-.417.034-.903-.07-1.285-.14-.382-.035-.73-.07-1.076 0-.347.035-.695.07-1.042C.106.451.279.278.557.21.8.14 1.043.105 1.286.036c.625-.14.833.034.73.868zM3.096.451c.382-.173.764-.069 1.18-.034.174 0 .383-.07.522.139.173.208-.035.347-.035.52 0 .174-.035.313-.035.487V3.75c.035.903.035 1.805 0 2.673 0 .209-.07.382-.173.556a.313.313 0 01-.209.208c-.277.174-.937.104-1.11-.173-.105-.174-.14-.452-.174-.66-.035-.764-.07-1.493-.07-2.257V1.215c0-.243.07-.52.104-.764z" fill="#FEFEFE"/></svg>