<?xml version="1.0" encoding="UTF-8"?>
<!DOCTYPE svg PUBLIC "-//W3C//DTD SVG 1.0//EN" "http://www.w3.org/TR/2001/REC-SVG-20010904/DTD/svg10.dtd">
<!-- Creator: CorelDRAW X8 -->
<svg xmlns="http://www.w3.org/2000/svg" xml:space="preserve" version="1.0" style="shape-rendering:geometricPrecision; text-rendering:geometricPrecision; image-rendering:optimizeQuality; fill-rule:evenodd; clip-rule:evenodd"
viewBox="0 0 51801 2555"
 xmlns:xlink="http://www.w3.org/1999/xlink">
 <defs>
  <style type="text/css">
   <![CDATA[
    .str1 {stroke:#464A52;stroke-width:20.119;stroke-opacity:0.039216}
    .str0 {stroke:#464A52;stroke-width:20.119;stroke-opacity:0.121569}
    .fil1 {fill:none}
    .fil0 {fill:none}
   ]]>
  </style>
 </defs>
 <g id="Layer_x0020_1">
  <metadata id="CorelCorpID_0Corel-Layer"/>
  <path class="fil0 str0" d="M51792 1278c-431,475 -863,475 -1294,0 -516,-662 -948,-662 -1295,0 -431,661 -863,661 -1295,0 -385,-520 -816,-520 -1294,0 -432,519 -863,519 -1295,0 -469,-612 -901,-612 -1294,0 -432,611 -863,611 -1295,0 -338,-349 -770,-349 -1294,0 -432,348 -863,348 -1295,0 -574,-579 -1006,-579 -1295,0 -431,578 -863,578 -1294,0 -398,-489 -830,-489 -1295,0 -431,488 -863,488 -1294,0 -595,-859 -859,-966 -1295,0 -431,858 -863,858 -1294,0 -426,-837 -858,-837 -1295,0 -432,836 -863,836 -1295,0 -318,-398 -750,-398 -1294,0 -432,397 -863,397 -1295,0 -595,-700 -1027,-700 -1294,0 -268,699 -700,699 -1295,0 -431,-398 -863,-398 -1294,0 -545,397 -977,397 -1295,0 -432,-837 -863,-837 -1295,0 -437,836 -868,836 -1294,0 -432,-859 -863,-859 -1295,0 -268,858 -699,858 -1294,0 -432,-489 -863,-489 -1295,0 -465,488 -897,488 -1294,0 -432,-579 -864,-579 -1295,0 -289,578 -720,578 -1295,0 -431,-349 -863,-349 -1294,0 -525,348 -956,348 -1295,0 -431,-612 -863,-612 -1294,0 -394,611 -825,611 -1295,0 -431,-520 -863,-520 -1294,0 -478,519 -910,519 -1295,0 -432,-662 -863,-662 -1295,0 -347,661 -778,661 -1294,0 -432,-476 -863,-476 -1295,0"/>
  <path class="fil1 str1" d="M51792 1278c-558,1298 -1256,1298 -2094,0 -919,-1551 -1617,-1551 -2094,0 -559,1550 -1257,1550 -2095,0 -717,-1104 -1415,-1104 -2094,0 -806,1371 -1404,1545 -2517,201 -766,-915 -1390,-1881 -2443,-141 -750,1102 -1768,1856 -2843,-60m-35603 0c559,-1299 1257,-1299 2094,0 919,1550 1617,1550 2095,0 558,-1551 1256,-1551 2094,0 717,1103 1415,1103 2094,0 559,-1104 1257,-1104 2095,0 766,914 1464,914 2094,0 569,-916 1300,-918 2094,0 857,956 1555,956 2094,0 559,-957 1257,-957 2095,0 966,1249 1664,1249 2094,0 558,-1250 1256,-1250 2094,0 842,1263 1540,1263 2094,0 559,-1264 1257,-1264 2095,0 930,1543 1628,1543 2094,0 558,-1544 1256,-1544 2094,0 878,1689 1556,1689 2094,0 539,-1690 1257,-1690 2095,0"/>
 </g>
</svg>
