<svg width="1419" height="414" fill="none" xmlns="http://www.w3.org/2000/svg"><g clip-path="url(#clip0)" stroke="#464A52"><path d="M297.479 265.266c35.236-21.258 62.755-48.203 99.649 8.372 36.893 56.575 48.453-21.307 99.648 8.372 51.196 29.678 71.244-51.684 99.649 8.371 27.694 56.517 60.91 59.308 99.649 8.372 37.737-51.02 70.954-48.229 99.649 8.372 36.893 56.575 48.454-21.306 99.649 8.372s71.244-51.684 99.649 8.372c27.689 56.517 60.909 59.307 99.649 8.371 37.74-51.019 70.95-48.229 99.65 8.372 36.89 56.576 48.45-21.306 99.65 8.372 51.19 29.678 71.24-51.684 99.65 8.372 27.69 56.517 60.91 59.307 99.65 8.372 37.73-51.02 70.95-48.23 99.64 8.371"/><path opacity=".2" d="M1565.44 359.748c-31.2-26.839-53.84-57.998-99.65-8.371-45.82 49.626-44.22-29.093-99.65-8.372-55.43 20.72-61.62-62.846-99.65-8.372-36.73 51.104-69.95 48.313-99.65-8.372-28.69-56.601-61.91-59.391-99.65-8.372-45.81 49.627-44.22-29.092-99.646-8.371-55.429 20.72-61.621-62.847-99.649-8.372-36.735 51.104-69.951 48.313-99.649-8.372-28.695-56.601-61.911-59.392-99.648-8.372-45.816 49.627-44.22-29.092-99.649-8.372-55.43 20.721-61.622-62.846-99.649-8.371-36.736 51.104-69.952 48.313-99.649-8.372-28.696-56.601-61.912-59.392-99.649-8.372"/><path d="M184.981 138.064c-56.656 19.277-153.323-79.228 37.805 67.371C249.463 324.26 5.311 60.873 278.437 282.208c-116.512-25.701 75.122-36.134-51.133-165.352C-16.63 89.134-9.378 380.351 212.755 4.972 25.37 155.262 53.898 106.37 161.976 325.492 48.885 262.579-47.752 380.244 325.789 40.242c-39.053 180.389-349.71 38.87-285.11 152.48 112.142 129.966 213.256-135.545 264.466-3.699-169.577 117.28-92.923 227.253 16.307-34.305C77.06 251.501 260.268 381.342 29.79 111.681c64.894-39.951 183.147 117.207 0-20.808 230.939 247.003 256.02 262.395 169.596 75.444C222.595 372.128 352.768 270.019 153.194.002c71.309 229.762 11.783 21.127 124.064 27.087 63.239 135.501 75.508 178.62-101.03 54.594 152.174-46.94 107.007-48.915-164.426 74.737 283.143-158.553 9.788-25.193 196.11 49.85C55.7-28.687 279.303 320.593 226.984 125.443c-280.684 73.699-61.83 73.455 78.161-98.982-19.957 156.523 78.87-88.396-299.533 148.754 233.863 132.505 338.761-29.639 123.426 71.775 31.659 40.884 12.284 86.548 38.504-226.005 7.657 97.468-124.73 128.135 65.851 145.598C238.758 285.051 152.113 195.992 132.646 0c247.042 222.709 226.343 314.791-86.294 175.999 330.226 33.5 273.293-139.812 199.647-109.043-144.19 255.592 107.668-95.828-227.517 52.498 103.641 245.75 341.123 32.03 278.043-100.42-245.463 349-13.346 95.79-243.89 160.933C221.8 99.946 20.55 126.73 153.194 333 297.864 174.376 2.756 186.865 72.019 141.588c3.93 111.478-97.06 61.779 212.658 45.787C38.638 10.267 336.73 232.992 56.368 282.308c252.283-289.54 289.849 2.919 31.33-255.847C351.73 264.172 300.103 240.878 306.486 261.429 50.108 370.572 211.116 2.179 333 142.697c-10.215-42.624-105.659 99.132-8.021 13.821-.608 99.594-183.134-49.95-116.728 153.956-245.027-292.443-139.03 32.778-102.815-4.736 6.674 15.112 129.733-144.402 187.766-269.23C51.233 335.22 269.684 344.221 87.698 270.913-84.657 137.113 1.898 94.08 310.82 157.164c-332.925 148.047-204.432 137.449-63.649-74.498-263.07 93.371-254.307 179.151 65.467 97.884.87 74.468-3.256-66.916-242.726-109.281C-61.467 377.997 271.479-37.198 30.209 217.676c372.575-64.477 251.473-172.689 298.584-79.612C239.442 270.672 213.473 305.458 0 192.815c37.392 84.718 117.475 76.318 245.276 124.695-260.4-312.974-42.6-196.109 80.513-97.007-315.457-247.3-28.801-163.276-252.163-70.854 9.06 100.359 179.855-6.761 101.803-108.509-16.313 43.883-218.141-77.612 130.599 197.465C157.102 81.308 136.601 296.508 63.982 42.582c89.716 47.774 29.001 283.424 205.624-11.18-249.632 94.924-15.445-95.95-247.005 230.027 214.088-131.295 150.712-130.706 86.902 54.189-12.016-87.549-38.05-83.16 0-33.996C41.24 74.43 142.931 78.883 218.479 70.707 55.477 287.82 144.764 111.513 39.329 95.98c252.869-44.438 197.589 146.116 6.438-37.053 73.34 165.282-33.35 22.698-15.56 66.517"/></g><circle cx="459.201" cy="280.358" r="13" transform="rotate(4.802 459.201 280.358)" fill="#28C48B"/><circle cx="859.79" cy="314.012" r="6" transform="rotate(4.802 859.79 314.012)" fill="#28C48B"/><circle cx="1042.87" cy="368.531" r="4" transform="rotate(4.802 1042.87 368.531)" fill="#28C48B"/><defs><clipPath id="clip0"><path fill="#fff" d="M0 0h1419v414H0z"/></clipPath></defs></svg>