<svg viewBox="0 0 80 80" fill="none" xmlns="http://www.w3.org/2000/svg">
<path d="M0 40C0 17.9086 17.9086 0 40 0V0C62.0914 0 80 17.9086 80 40V40C80 62.0914 62.0914 80 40 80V80C17.9086 80 0 62.0914 0 40V40Z" fill="#D9EBFB"/>
<path d="M24.3259 22.0356C24.6841 25.4907 23.9889 23.6367 20.7866 24.2477C13.4973 25.6592 7.61949 19.1704 12.149 13.4822C16.0043 8.67888 24.3891 14.8727 24.3259 22.0356Z" fill="#6D9FCC"/>
<path d="M23.6081 22.3096C23.8398 24.5638 23.3763 23.3419 21.3117 23.7422C16.5715 24.6691 12.7583 20.4557 15.7078 16.7478C18.1937 13.6509 23.6502 17.6537 23.6081 22.3096Z" fill="#FFBDBD"/>
<path d="M54.5159 22.0356C54.1577 25.4907 54.8529 23.6367 58.0552 24.2477C65.3445 25.6592 71.2223 19.1704 66.6928 13.4822C62.8586 8.67888 54.4527 14.8727 54.5159 22.0356Z" fill="#6D9FCC"/>
<path d="M55.233 22.3096C55.0013 24.5638 55.4648 23.3419 57.5294 23.7422C62.2695 24.6691 66.0827 20.4557 63.1333 16.7478C60.6473 13.6509 55.1909 17.6537 55.233 22.3096Z" fill="#FFBDBD"/>
<path d="M70 45.9893C70 60.3362 56.559 68.2154 40 68.2154C23.4199 68.2154 10 60.3362 10 45.9893C10 31.6424 23.441 16.221 40 16.221C56.5801 16.221 70 31.6213 70 45.9893Z" fill="#6D9FCC"/>
<path d="M23.483 41.4387C23.483 43.1663 22.4718 44.5778 21.2288 44.5778C19.9858 44.5778 18.9746 43.1663 18.9746 41.4387C18.9746 39.7112 19.9858 38.2997 21.2288 38.2997C22.4718 38.2997 23.483 39.7112 23.483 41.4387Z" fill="#441F04"/>
<path d="M21.3555 40.006C21.3555 40.7223 20.9341 41.3122 20.4285 41.3122C19.9018 41.3122 19.4805 40.7223 19.4805 40.006C19.4805 39.2897 19.9018 38.6998 20.4285 38.6998C20.9341 38.6998 21.3555 39.2687 21.3555 40.006Z" fill="white"/>
<path d="M64.5864 55.0271C64.5864 62.3164 53.6524 68.2153 40.1482 68.2153C26.665 68.2153 15.71 62.3164 15.71 55.0271C15.71 47.7378 26.6439 41.8389 40.1482 41.8389C53.6313 41.8389 64.5864 47.7378 64.5864 55.0271Z" fill="#FFBDBD"/>
<path d="M59.7819 41.4387C59.7819 43.1663 58.7706 44.5778 57.5277 44.5778C56.2847 44.5778 55.2734 43.1663 55.2734 41.4387C55.2734 39.7112 56.2847 38.2997 57.5277 38.2997C58.7706 38.2997 59.7819 39.7112 59.7819 41.4387Z" fill="#441F04"/>
<path d="M57.6543 40.006C57.6543 40.7223 57.2329 41.3122 56.7273 41.3122C56.2217 41.3122 55.7793 40.7223 55.7793 40.006C55.7793 39.2897 56.2006 38.6998 56.7273 38.6998C57.254 38.6998 57.6543 39.2687 57.6543 40.006Z" fill="white"/>
<path d="M42.6972 58.6719C42.6972 58.6719 42.1073 60.9683 39.5371 60.9683C38.1466 60.9683 36.082 60.1888 36.082 58.4191C36.082 58.4191 37.1775 60.0624 39.5371 60.0624C41.391 60.0624 42.6972 58.6719 42.6972 58.6719Z" fill="#441F04"/>
<path d="M29.6762 48.8756C29.2338 49.7183 27.5695 50.7717 26.7689 50.3503C25.9683 49.929 26.3476 48.2014 26.79 47.3587C27.2324 46.516 28.2436 46.1579 29.0442 46.5792C29.8447 47.0006 30.1397 48.0329 29.6762 48.8756Z" fill="#C45353"/>
<path d="M49.9439 48.4964C50.3863 49.3391 52.0506 50.3924 52.8512 49.9711C53.6518 49.5497 53.2725 47.8222 52.8301 46.9795C52.3877 46.1368 51.3765 45.7787 50.5759 46.2C49.7754 46.6214 49.4804 47.6537 49.9439 48.4964Z" fill="#C45353"/>
</svg>
